<svg width="150" height="150" viewBox="0 0 150 150" fill="none" xmlns="http://www.w3.org/2000/svg">
<g clip-path="url(#clip0_585_4986)">
<path d="M75.2292 96.135C61.5573 96.135 50.7445 84.0678 49.2176 72.6702C53.3301 72.9566 57.8124 73.1426 61.484 73.2571C61.5856 73.2609 61.6851 73.2627 61.7856 73.2627C65.0688 73.2627 68.1027 71.6063 69.5761 68.9893C71.7984 65.0399 73.9516 63.2427 75.0114 63.2427C76.066 63.2427 78.2118 65.0305 80.4236 68.9546C81.9641 71.6843 85.1509 73.3745 88.6016 73.2177C91.7664 73.0928 96.8225 72.8505 101.273 72.4749C99.8438 83.9289 88.9786 96.135 75.2292 96.135ZM42.7654 66.9611C40.6521 66.6663 39.1168 65.0775 39.1168 63.1873V48.0205C39.1168 46.227 40.5631 44.6532 42.557 44.2739C52.8913 42.3104 63.345 41.3292 73.8531 41.3292C84.3937 41.3292 94.9888 42.317 105.558 44.2936C107.561 44.6682 109.017 46.2439 109.017 48.0411V63.1713C109.017 65.0671 107.481 66.6559 105.369 66.9489C100.661 67.6034 92.6848 67.9902 88.3481 68.1649C87.1543 68.2062 86.0023 67.6269 85.465 66.6728C82.2866 61.0388 78.771 58.1814 75.0114 58.1814C71.2444 58.1814 67.7194 61.051 64.5347 66.7085C64.0048 67.6513 62.901 68.2795 61.6809 68.2015C56.8164 68.0475 47.8907 67.6841 42.7654 66.9611ZM101.937 38.5582C84.0146 35.6942 66.0542 35.5477 48.385 38.1619L49.7663 29.1306C49.7831 29.0151 49.7925 28.9015 49.7925 28.7869C49.7925 26.4112 59.4314 23.0928 75.1318 23.0928C82.1484 23.0928 88.9199 23.8083 93.708 25.0487C98.3798 26.261 100.47 27.8 100.47 28.7869C100.47 28.9015 100.481 29.0151 100.497 29.1278L101.937 38.5582ZM28.5061 22.8533L74.4616 5.27145L119.729 22.8665L106.014 27.692C104.239 18.5133 80.1146 18.0334 75.1318 18.0334C70.0558 18.0334 45.1343 18.5367 44.1908 28.2207L28.5061 22.8533ZM150.018 144.774C149.155 137.779 147.808 127.541 146.097 119.422C142.112 100.502 125.02 86.9356 102.875 84.6087C105.237 80.5485 106.691 76.122 107.013 71.7763C111.482 70.8289 114.662 67.3376 114.662 63.1713V48.0411C114.662 44.2025 111.828 40.8315 107.802 39.6333L106.768 32.864L124.572 26.6V71.1087C124.572 72.5059 125.836 73.6384 127.394 73.6384C128.954 73.6384 130.216 72.5059 130.216 71.1087V24.4581C130.216 24.0412 130.095 23.6534 129.894 23.3069C129.908 23.213 129.945 23.1247 129.948 23.0271C129.967 22.0035 129.296 21.0692 128.248 20.6617L75.5937 0.197085C74.8826 -0.0799202 74.0772 -0.0817985 73.363 0.190512L19.8652 20.6551C18.8054 21.0608 18.1288 22.0007 18.1508 23.0336C18.1728 24.0647 18.8912 24.9802 19.9647 25.3473L43.4179 33.373L42.5382 39.1319C42.1538 39.2023 41.7674 39.2493 41.3841 39.3234C36.7982 40.1958 33.47 43.8532 33.47 48.0205V63.1873C33.47 67.5874 37.0129 71.2777 41.8931 71.9613C42.3853 72.0308 42.9299 72.0946 43.4765 72.1566C43.8514 76.3549 45.2736 80.6161 47.5441 84.5383C25.1685 86.6501 7.85111 100.324 3.85899 119.489C2.19176 127.496 0.859656 137.757 0.00300365 144.776C-0.0839181 145.493 0.171611 146.205 0.707804 146.741C1.2419 147.275 2.0064 147.583 2.80964 147.583H40.8804C42.4408 147.583 43.7027 146.45 43.7027 145.052C43.7027 143.656 42.4408 142.523 40.8804 142.523H5.96396C6.80281 135.835 7.98621 127.255 9.40942 120.418C13.0905 102.733 29.7313 90.3526 50.933 89.3817C56.674 96.2608 65.2604 101.194 75.2292 101.194C85.1718 101.194 93.7362 96.2871 99.4762 89.438C120.459 90.6493 136.875 102.917 140.548 120.361C142.008 127.29 143.205 135.859 144.056 142.523H115.219C113.658 142.523 112.396 143.656 112.396 145.052C112.396 146.45 113.658 147.583 115.219 147.583H147.211C148.015 147.583 148.78 147.275 149.314 146.741C149.85 146.204 150.106 145.489 150.018 144.774Z" fill="#E74237" fill-opacity="0.8"/>
<path d="M47.5411 52.6995C48.2941 52.6995 49.0093 52.446 49.5361 51.9577C50.0807 51.4863 50.3645 50.8431 50.3645 50.1698C50.3645 49.5106 50.0639 48.8533 49.5361 48.381C48.8952 47.7913 47.9181 47.5218 46.9955 47.6909C46.8258 47.7228 46.6384 47.7744 46.4677 47.842C46.2991 47.8909 46.1294 47.9773 45.9796 48.0618C45.8288 48.1622 45.678 48.2636 45.5471 48.381C45.0193 48.8533 44.7188 49.5106 44.7188 50.1698C44.7188 50.8431 45.0193 51.4863 45.5471 51.9577C46.0927 52.446 46.807 52.6995 47.5411 52.6995Z" fill="#E74237" fill-opacity="0.8"/>
<path d="M47.7088 55.5842C47.6334 55.433 47.5402 55.2809 47.446 55.1466C47.3329 55.0114 47.2208 54.8752 47.0888 54.7569C46.9579 54.6386 46.8249 54.5381 46.6563 54.4386C46.5045 54.3522 46.3359 54.2677 46.1683 54.217C45.9966 54.1494 45.828 54.1005 45.6405 54.0658C45.2813 53.9963 44.9053 53.9963 44.5482 54.0658C44.3597 54.1005 44.1911 54.1494 44.0225 54.217C43.8518 54.2677 43.6821 54.3522 43.5313 54.4386C43.3816 54.5381 43.2308 54.6386 43.0999 54.7569C42.9679 54.8752 42.8538 55.0114 42.7407 55.1466C42.6474 55.2809 42.5532 55.433 42.4778 55.5842C42.4212 55.7353 42.3657 55.8875 42.328 56.0565C42.2903 56.2246 42.2715 56.3757 42.2715 56.5466C42.2715 56.8819 42.3458 57.2039 42.4778 57.5232C42.6276 57.8274 42.837 58.0979 43.0999 58.3336C43.6444 58.8218 44.3419 59.0763 45.0938 59.0763C45.8468 59.0763 46.5621 58.8218 47.0888 58.3336C47.3517 58.0979 47.5601 57.8274 47.7088 57.5232C47.8418 57.2039 47.9172 56.8819 47.9172 56.5466C47.9172 56.3757 47.8984 56.2246 47.8617 56.0565C47.823 55.8875 47.7654 55.7353 47.7088 55.5842Z" fill="#E74237" fill-opacity="0.8"/>
<path d="M64.2355 50.7279C64.9874 50.7279 65.7037 50.4565 66.2295 49.9842C66.7573 49.494 67.0578 48.8705 67.0578 48.1973C67.0578 47.5221 66.7573 46.8639 66.2295 46.4085C65.1958 45.4648 63.294 45.4648 62.2394 46.4085C61.7137 46.8808 61.4121 47.5221 61.4121 48.1973C61.4121 48.8705 61.7137 49.494 62.2394 49.9842C62.7851 50.4565 63.4815 50.7279 64.2355 50.7279Z" fill="#E74237" fill-opacity="0.8"/>
<path d="M60.697 56.9008C61.0541 57.0351 61.4123 57.1027 61.7872 57.1027C62.5402 57.1027 63.2376 56.8332 63.7833 56.3599C64.309 55.8876 64.6106 55.2472 64.6106 54.5711C64.6106 54.403 64.5917 54.2349 64.554 54.0659C64.5174 53.9138 64.4608 53.7457 64.3854 53.5945C64.3289 53.4406 64.2357 53.3063 64.1226 53.1542C64.0273 53.0189 63.9142 52.9034 63.7833 52.7842C62.7287 51.8405 60.8269 51.8405 59.7932 52.7842C59.6623 52.9034 59.5492 53.0189 59.4351 53.1542C59.3429 53.3063 59.2466 53.4406 59.1722 53.5945C59.0968 53.7457 59.0591 53.9138 59.0214 54.0659C58.9837 54.2349 58.9648 54.403 58.9648 54.5711C58.9648 55.2472 59.2466 55.8876 59.7932 56.3599C60.0571 56.5956 60.3566 56.7825 60.697 56.9008Z" fill="#E74237" fill-opacity="0.8"/>
<path d="M62.1468 60.9487C62.1468 60.7797 62.1279 60.6097 62.0902 60.4585C62.0693 60.2895 62.0148 60.1383 61.9405 59.9853C61.8651 59.8341 61.7687 59.6829 61.6755 59.5477C61.5813 59.4125 61.4493 59.2782 61.3184 59.1608C60.2638 58.2153 58.383 58.2153 57.3284 59.1608C57.1975 59.2782 57.0844 59.4125 56.9912 59.5477C56.8781 59.6829 56.8016 59.8341 56.7262 59.9853C56.6508 60.1383 56.5943 60.2895 56.5566 60.4585C56.5199 60.6097 56.5 60.7797 56.5 60.9487C56.5 61.2849 56.5754 61.606 56.7262 61.9093C56.8571 62.2286 57.0655 62.499 57.3284 62.7366C57.5923 62.9723 57.9117 63.1582 58.25 63.2934C58.5893 63.4108 58.9464 63.4784 59.3244 63.4784C60.0753 63.4784 60.7895 63.2079 61.3184 62.7366C61.6001 62.499 61.8064 62.2286 61.9405 61.9093C62.0902 61.606 62.1468 61.2849 62.1468 60.9487Z" fill="#E74237" fill-opacity="0.8"/>
<path d="M56.0478 54.589C55.9734 54.4387 55.898 54.2847 55.7838 54.1495C55.6896 54.0162 55.5587 53.8809 55.4456 53.7795C54.3722 52.8171 52.4913 52.8358 51.4367 53.7795C51.3058 53.8809 51.1916 54.0162 51.0974 54.1495C50.9864 54.2847 50.9089 54.4387 50.8345 54.589C50.7591 54.7401 50.7026 54.9082 50.6649 55.0603C50.6272 55.2303 50.6094 55.3974 50.6094 55.5674C50.6094 56.2416 50.9089 56.867 51.4367 57.3553C51.9823 57.8276 52.6787 58.098 53.4328 58.098C54.1847 58.098 54.9 57.8276 55.4456 57.3553C55.7084 57.1027 55.9168 56.8332 56.0478 56.528C56.1986 56.2247 56.2551 55.8876 56.2551 55.5674C56.2551 55.3974 56.2551 55.2303 56.2153 55.0603C56.1797 54.9082 56.1232 54.7401 56.0478 54.589Z" fill="#E74237" fill-opacity="0.8"/>
<path d="M53.6005 60.9637C53.5272 60.8116 53.4329 60.6604 53.3376 60.527C53.2266 60.3909 53.1114 60.2557 52.9805 60.1552C52.8486 60.0369 52.7166 59.9195 52.548 59.834C52.3961 59.7336 52.2474 59.666 52.0579 59.5993C51.8882 59.5308 51.7196 59.481 51.5311 59.4472C51.173 59.3965 50.797 59.3796 50.4399 59.4472C50.2514 59.481 50.0807 59.5308 49.9121 59.5993C49.7435 59.666 49.5738 59.7336 49.424 59.834C49.2732 59.9195 49.1224 60.0369 48.9915 60.1552C48.4637 60.6097 48.1621 61.2688 48.1621 61.9421C48.1621 62.6182 48.4637 63.2426 48.9915 63.7309C49.5173 64.2023 50.2325 64.4737 50.9865 64.4737C51.3604 64.4737 51.7196 64.4051 52.0579 64.2699C52.416 64.1525 52.7166 63.9666 52.9805 63.7309C53.5083 63.2426 53.8089 62.6182 53.8089 61.9421C53.8089 61.774 53.79 61.6059 53.7523 61.4369C53.7146 61.2848 53.6581 61.1177 53.6005 60.9637Z" fill="#E74237" fill-opacity="0.8"/>
<path d="M55.8976 51.7053C56.6495 51.7053 57.3648 51.4518 57.8916 50.9616C58.1544 50.7278 58.3628 50.4564 58.4937 50.1531C58.6446 49.8489 58.72 49.5108 58.72 49.1906C58.72 49.0216 58.7011 48.8535 58.6634 48.6855C58.6257 48.5343 58.5692 48.3643 58.4937 48.2131C58.4361 48.062 58.344 47.9098 58.2487 47.7746C58.1356 47.6404 58.0225 47.5051 57.8916 47.3859C56.837 46.4581 54.9561 46.4422 53.9026 47.3859C53.7685 47.5051 53.6575 47.6404 53.5434 47.7746C53.4512 47.9098 53.3559 48.062 53.2805 48.2131C53.2261 48.3643 53.1674 48.5164 53.1297 48.6855C53.092 48.8535 53.0742 49.0216 53.0742 49.1906C53.0742 49.8658 53.3559 50.4893 53.9026 50.9616C54.4283 51.4518 55.1436 51.7053 55.8976 51.7053Z" fill="#E74237" fill-opacity="0.8"/>
<path d="M101.309 52.6995C102.061 52.6995 102.758 52.446 103.304 51.9577C103.83 51.4863 104.131 50.8431 104.131 50.1698C104.131 49.5106 103.83 48.8533 103.304 48.381C103.173 48.2636 103.021 48.1622 102.87 48.0618C102.72 47.9773 102.551 47.8909 102.382 47.842C102.212 47.7744 102.044 47.7228 101.855 47.6909C100.931 47.5218 99.9734 47.7913 99.3137 48.381C98.7879 48.8533 98.4863 49.5106 98.4863 50.1698C98.4863 50.8431 98.768 51.4863 99.3137 51.9577C99.8394 52.446 100.556 52.6995 101.309 52.6995Z" fill="#E74237" fill-opacity="0.8"/>
<path d="M101.761 54.757C101.629 54.8753 101.517 55.0115 101.404 55.1467C101.31 55.281 101.216 55.4331 101.16 55.5843C101.085 55.7354 101.028 55.8876 100.991 56.0566C100.953 56.2247 100.932 56.3758 100.932 56.5467C100.932 56.882 101.009 57.204 101.141 57.5233C101.291 57.8275 101.498 58.098 101.761 58.3337C102.024 58.5693 102.344 58.7543 102.684 58.8914C103.022 59.0088 103.38 59.0764 103.756 59.0764C104.51 59.0764 105.224 58.8219 105.751 58.3337C106.297 57.8613 106.578 57.2209 106.578 56.5467C106.578 56.3758 106.562 56.2247 106.524 56.0566C106.485 55.8876 106.428 55.7354 106.372 55.5843C106.297 55.4331 106.202 55.281 106.109 55.1467C105.996 55.0115 105.883 54.8753 105.751 54.757C105.62 54.6387 105.487 54.5382 105.318 54.4387C105.167 54.3523 105.017 54.2678 104.848 54.2171C104.679 54.1495 104.489 54.1006 104.322 54.0659C103.399 53.8978 102.42 54.1673 101.761 54.757Z" fill="#E74237" fill-opacity="0.8"/>
<path d="M84.6164 50.7277C85.3704 50.7277 86.0846 50.4563 86.6124 49.984C87.1381 49.4938 87.4387 48.8703 87.4387 48.1971C87.4387 47.5219 87.1381 46.8637 86.6124 46.4083C86.4794 46.2909 86.3475 46.1726 86.1789 46.0881C86.0281 45.9848 85.8773 45.919 85.6898 45.8505C85.5201 45.7829 85.3515 45.734 85.162 45.7002C84.2603 45.5472 83.2811 45.8186 82.6213 46.4083C82.0956 46.8806 81.793 47.5219 81.793 48.1971C81.793 48.8703 82.0956 49.4938 82.6213 49.984C83.1492 50.4563 83.8634 50.7277 84.6164 50.7277Z" fill="#E74237" fill-opacity="0.8"/>
<path d="M86.517 52.0922C86.3463 52.1269 86.1609 52.1767 85.9891 52.2274C85.8205 52.295 85.6509 52.3786 85.5011 52.4631C85.3503 52.5645 85.1985 52.6659 85.0676 52.7842C84.9356 52.9035 84.8225 53.019 84.7283 53.1542C84.6152 53.3063 84.5408 53.4406 84.4654 53.5946C84.39 53.7457 84.3334 53.9138 84.2947 54.0659C84.2591 54.235 84.2402 54.403 84.2402 54.5711C84.2402 55.2472 84.5408 55.8876 85.0676 56.3599C85.6142 56.8332 86.3295 57.1027 87.0626 57.1027C87.4375 57.1027 87.8156 57.0351 88.1517 56.9008C88.4921 56.7825 88.7947 56.5956 89.0576 56.3599C89.6022 55.8876 89.8849 55.2472 89.8849 54.5711C89.8849 54.403 89.8661 54.235 89.8472 54.0659C89.8095 53.9138 89.7551 53.7457 89.6776 53.5946C89.6022 53.4406 89.5268 53.3063 89.4147 53.1542C89.3205 53.019 89.1885 52.9035 89.0576 52.7842C88.4167 52.1945 87.4375 51.9241 86.517 52.0922Z" fill="#E74237" fill-opacity="0.8"/>
<path d="M70.1427 56.5956C70.8768 56.5956 71.5931 56.343 72.1387 55.8547C72.6655 55.3805 72.9482 54.7401 72.9482 54.0659C72.9482 53.4086 72.6477 52.7503 72.1387 52.278C71.0841 51.3325 69.1844 51.3325 68.1309 52.278C67.6209 52.7503 67.3203 53.4086 67.3203 54.0659C67.3203 54.7401 67.602 55.3805 68.1309 55.8547C68.6755 56.343 69.3907 56.5956 70.1427 56.5956Z" fill="#E74237" fill-opacity="0.8"/>
<path d="M76.7129 54.0659C76.7129 54.7401 77.0135 55.3805 77.5413 55.8547C78.0879 56.343 78.8011 56.5956 79.5551 56.5956C80.2882 56.5956 81.0035 56.343 81.5491 55.8547C81.812 55.6181 82.0183 55.3467 82.1513 55.0453C82.3021 54.7251 82.3775 54.403 82.3775 54.0659C82.3775 53.4086 82.0748 52.7503 81.5491 52.278C80.4945 51.3325 78.5948 51.3325 77.5413 52.278C77.0135 52.7503 76.7129 53.4086 76.7129 54.0659Z" fill="#E74237" fill-opacity="0.8"/>
<path d="M74.8117 51.0648C75.5636 51.0648 76.2799 50.8103 76.8056 50.3211C77.3523 49.8488 77.634 49.2075 77.634 48.5342C77.634 47.8759 77.3314 47.2177 76.8056 46.7454C76.6747 46.6261 76.5417 46.5257 76.3731 46.4252C76.2213 46.3407 76.0726 46.2562 75.904 46.2055C75.7333 46.1379 75.5458 46.0881 75.3761 46.0524C74.4535 45.8853 73.4743 46.1557 72.8167 46.7454C72.2909 47.2177 71.9883 47.8759 71.9883 48.5342C71.9883 49.2075 72.2909 49.8488 72.8167 50.3211C73.3623 50.8103 74.0587 51.0648 74.8117 51.0648Z" fill="#E74237" fill-opacity="0.8"/>
<path d="M87.5355 59.1608C87.4015 59.2782 87.2894 59.4125 87.1763 59.5477C87.0821 59.6829 86.9889 59.8341 86.9135 59.9853C86.8569 60.1383 86.8004 60.2895 86.7637 60.4585C86.726 60.6097 86.7051 60.7797 86.7051 60.9487C86.7051 61.2849 86.7815 61.606 86.9135 61.9093C87.0643 62.2286 87.2706 62.499 87.5355 62.7366C87.7984 62.9722 88.099 63.1582 88.4383 63.2934C88.7964 63.4108 89.1536 63.4784 89.5285 63.4784C90.2835 63.4784 90.9988 63.2079 91.5245 62.7366C91.7874 62.499 91.9937 62.2286 92.1267 61.9093C92.2765 61.606 92.3508 61.2849 92.3508 60.9487C92.3508 60.7797 92.332 60.6097 92.2953 60.4585C92.2576 60.2895 92.2032 60.1383 92.1267 59.9853C92.0691 59.8341 91.9759 59.6829 91.8816 59.5477C91.7685 59.4125 91.6565 59.2782 91.5245 59.1608C91.3926 59.0425 91.2407 58.942 91.091 58.8388C90.9402 58.7542 90.7716 58.6716 90.6019 58.62C90.4322 58.5524 90.2636 58.5007 90.0741 58.4697C89.1536 58.2988 88.1932 58.5693 87.5355 59.1608Z" fill="#E74237" fill-opacity="0.8"/>
<path d="M93.423 53.7796C93.2911 53.881 93.179 54.0162 93.0659 54.1495C92.9717 54.2847 92.8774 54.4387 92.8031 54.589C92.7465 54.7401 92.69 54.9082 92.6523 55.0603C92.6146 55.2303 92.5957 55.3975 92.5957 55.5674C92.5957 56.2416 92.8774 56.867 93.423 57.3553C93.9508 57.8276 94.6651 58.098 95.4191 58.098C96.1721 58.098 96.8695 57.8276 97.4141 57.3553C97.9398 56.867 98.2425 56.2416 98.2425 55.5674C98.2425 55.3975 98.2236 55.2303 98.1849 55.0603C98.1472 54.9082 98.0906 54.7401 98.0152 54.589C97.9587 54.4387 97.8644 54.2847 97.7712 54.1495C97.6581 54.0162 97.545 53.881 97.4141 53.7796C96.3595 52.8359 94.4577 52.8359 93.423 53.7796Z" fill="#E74237" fill-opacity="0.8"/>
<path d="M97.3207 59.4472C97.1312 59.481 96.9626 59.5308 96.7929 59.5993C96.6233 59.666 96.4547 59.7336 96.3039 59.834C96.1541 59.9195 96.0033 60.0369 95.8703 60.1552C95.7394 60.2557 95.6263 60.3909 95.532 60.527C95.42 60.6604 95.3446 60.8116 95.2692 60.9637C95.1938 61.1177 95.1372 61.2848 95.1006 61.4369C95.0618 61.6059 95.043 61.774 95.043 61.9421C95.043 62.6182 95.3446 63.2426 95.8703 63.7309C96.1353 63.9666 96.4547 64.1525 96.7929 64.2699C97.1312 64.4051 97.4893 64.4737 97.8653 64.4737C98.2434 64.4737 98.6005 64.4051 98.9576 64.2699C99.2959 64.1525 99.5985 63.9666 99.8614 63.7309C100.406 63.2426 100.69 62.6182 100.69 61.9421C100.69 61.774 100.671 61.6059 100.632 61.4369C100.594 61.2848 100.538 61.1177 100.481 60.9637C100.406 60.8116 100.312 60.6604 100.218 60.527C100.105 60.3909 99.9923 60.2557 99.8614 60.1552C99.7294 60.0369 99.5985 59.9195 99.4289 59.834C99.277 59.7336 99.1262 59.666 98.9576 59.5993C98.789 59.5308 98.6005 59.481 98.4308 59.4472C98.0538 59.3796 97.6768 59.3965 97.3207 59.4472Z" fill="#E74237" fill-opacity="0.8"/>
<path d="M92.9523 51.7053C93.7042 51.7053 94.4205 51.4518 94.9651 50.9616C95.2301 50.7278 95.4364 50.4564 95.5683 50.1531C95.7181 49.8489 95.7757 49.5108 95.7757 49.1906C95.7757 49.0216 95.7757 48.8535 95.738 48.6855C95.7003 48.5164 95.6437 48.3643 95.5683 48.2131C95.494 48.062 95.4186 47.9098 95.3055 47.7746C95.2112 47.6404 95.0793 47.5051 94.9651 47.3859C93.8938 46.4422 92.0119 46.4581 90.9573 47.3859C90.8264 47.5051 90.7133 47.6404 90.619 47.7746C90.5038 47.9098 90.4305 48.062 90.3562 48.2131C90.2818 48.3643 90.2221 48.5164 90.1865 48.6855C90.1478 48.8535 90.1289 49.0216 90.1289 49.1906C90.1289 49.8658 90.4305 50.4893 90.9573 50.9616C91.5039 51.4518 92.2014 51.7053 92.9523 51.7053Z" fill="#E74237" fill-opacity="0.8"/>
<path d="M92.8164 115.481H90.79C89.4799 115.481 88.418 116.435 88.418 117.607V123.206C88.418 124.379 89.4799 125.332 90.79 125.332H91.5587C95.4691 125.332 97.4935 123.895 97.4935 120.407C97.4935 116.919 96.4462 115.481 92.8164 115.481Z" fill="#E74237" fill-opacity="0.8"/>
<path d="M103.916 134.514V143.081C103.916 144.106 102.798 144.928 101.402 144.928H99.4482C98.0522 144.928 96.9337 144.106 96.9337 143.081V134.514C96.9337 131.949 94.9796 130.513 91.5582 130.513H91.1089C89.6229 130.513 88.4175 131.592 88.4175 132.925V143.081C88.4175 144.106 87.299 144.928 85.9742 144.928H84.0201C82.622 144.928 81.5067 144.106 81.5067 143.081V112.2C81.5067 111.172 82.622 110.353 84.0201 110.353H92.8159C101.402 110.353 104.405 113.535 104.405 120.407C104.405 123.844 103.505 126.564 100.916 128.111C100.915 128.13 100.915 128.133 100.914 128.153C102.938 129.743 103.916 131.847 103.916 134.514ZM70.4707 112.61L60.5564 143.49C60.2778 144.312 59.1604 144.928 58.1142 144.928H56.647C55.5306 144.928 54.4132 144.312 54.2038 143.49L44.2915 112.61C43.8737 111.43 44.9911 110.353 46.7337 110.353H48.691C49.7372 110.353 50.8536 111.02 51.1343 111.788L56.0899 127.381C56.27 127.948 56.8072 128.231 57.3466 128.231C57.8838 128.231 58.4231 127.948 58.6033 127.381L63.5599 111.788C63.7683 111.02 64.9559 110.353 66.0031 110.353H68.0264C69.7031 110.353 70.8184 111.43 70.4707 112.61ZM92.8159 105.292H84.0201C80.073 105.292 76.7752 107.676 76.0243 110.832C75.7991 109.856 75.33 108.924 74.6252 108.104C73.092 106.317 70.6885 105.292 68.0264 105.292H66.0031C62.3598 105.292 58.9981 107.502 58.1121 110.455L57.3466 112.866L56.5632 110.401C56.5433 110.342 56.5245 110.283 56.5025 110.222C55.4646 107.366 52.1784 105.292 48.691 105.292H46.7337C43.9637 105.292 41.5016 106.363 39.98 108.228C38.5976 109.924 38.1986 112.041 38.8804 114.054L48.7518 144.808C49.6304 147.821 52.9135 149.988 56.647 149.988H58.1142C61.6686 149.988 64.9674 147.877 65.9581 144.967L75.8599 114.119V143.081C75.8599 146.889 79.519 149.988 84.0201 149.988H85.9742C88.7631 149.988 91.2273 148.776 92.6829 146.937C94.1501 148.776 96.6342 149.988 99.4482 149.988H101.402C105.901 149.988 109.563 146.889 109.563 143.081V134.514C109.563 132.272 109.057 130.207 108.075 128.383C109.389 126.237 110.051 123.57 110.051 120.407C110.051 110.377 104.251 105.292 92.8159 105.292Z" fill="#E74237" fill-opacity="0.8"/>
</g>
<defs>
<clipPath id="clip0_585_4986">
<rect width="150" height="150" fill="white"/>
</clipPath>
</defs>
</svg>
