<svg width="150" height="150" viewBox="0 0 150 150" fill="none" xmlns="http://www.w3.org/2000/svg">
<g clip-path="url(#clip0_585_5014)">
<path d="M6.67595 25.9709C7.20842 25.9709 7.74608 25.9131 8.27855 25.798L19.1878 46.0953C18.8507 46.3984 18.5544 46.7261 18.2915 47.0705C14.4639 48.3096 11.6813 51.8325 11.6813 55.9637V140.311C11.6813 145.465 16.0101 149.683 21.2999 149.683H135.516C140.807 149.683 145.135 145.465 145.135 140.311V113.287C148.009 111.715 149.944 108.816 149.944 105.489V90.785C149.944 87.4582 148.009 84.5589 145.135 82.987V55.9637C145.135 53.9194 144.446 52.0292 143.295 50.4848C145.215 48.3197 146.337 45.5586 146.337 42.6578C146.337 38.366 143.918 34.3462 139.975 32.1399C138.015 31.1011 135.804 30.5962 133.215 30.5962C132.694 30.5962 132.694 30.3481 132.694 30.1484C132.694 29.9922 132.694 29.7007 133.215 29.7007C135.698 29.7007 138.103 29.1495 140.037 28.123C143.922 25.9463 146.336 21.9316 146.336 17.6455C146.336 13.353 143.929 9.34115 140.115 7.21079C138.338 6.15032 136.115 5.5897 133.683 5.5897C131.361 5.5897 129.127 6.15828 127.449 7.15943C123.56 9.33608 121.145 13.3516 121.145 17.6376C121.145 19.6218 121.79 21.6878 123.064 23.8594C123.182 24.0851 123.255 24.3672 123.274 24.4439C123.273 24.4446 123.214 24.5068 123.024 24.5979L122.873 24.6782C122.599 24.8367 122.251 24.65 122.041 24.3202L121.91 24.1328C120.949 22.8995 119.418 21.1004 117.238 19.7274L117.132 19.6645C113.32 17.5262 108.349 17.5262 104.539 19.6623C100.658 21.8361 98.2456 25.8545 98.2456 30.1484C98.2456 34.4352 100.656 38.4521 104.542 40.636C108.349 42.762 113.379 42.7352 117.065 40.6671C119.048 39.616 120.743 37.9407 121.944 35.8566C122.031 35.7156 122.274 35.5145 122.384 35.5145C122.441 35.5145 122.568 35.547 122.691 35.6136C122.935 35.7525 123.038 36.1482 122.953 36.3174C121.768 38.3472 121.143 40.5391 121.143 42.6557C121.143 44.0171 121.417 45.338 121.876 46.5916H98.9548C99.7865 45.8913 100.024 44.6985 99.4516 43.7299L80.2078 11.1344C79.878 10.576 79.4429 10.2967 79.0084 10.2967C78.574 10.2967 78.1395 10.576 77.8098 11.1344L58.5667 43.7299C57.9949 44.6985 58.2318 45.8921 59.0635 46.5916H48.9013C48.885 45.8472 48.7498 45.1 48.4699 44.3766C52.0612 39.6139 52.6427 33.2243 49.6989 27.7461C48.1817 24.9227 45.7615 22.6369 42.8385 21.1619C43.2662 17.9595 42.6966 14.7188 41.1349 11.8137C38.3166 6.56988 32.8627 3.3125 26.903 3.3125C26.736 3.3125 26.5681 3.31539 26.4003 3.31973C25.0858 1.46644 22.9017 0.34375 20.5164 0.34375C19.3408 0.34375 18.166 0.625868 17.1196 1.15972C15.3937 2.04008 14.1402 3.5136 13.5906 5.30975C13.4213 5.86458 13.3247 6.43027 13.3002 6.99667C12.1893 6.30874 10.8874 5.92607 9.52543 5.92607C8.38326 5.92535 7.23589 6.20385 6.20735 6.7283C4.53494 7.58116 3.27989 9.00694 2.67687 10.7409C2.27882 11.8838 2.19787 13.1042 2.42438 14.2681C1.58297 14.9806 0.918315 15.8537 0.492044 16.826C-0.310743 18.6518 -0.226083 20.7127 0.723745 22.4792C1.89933 24.6659 4.125 25.9709 6.67595 25.9709ZM145.135 90.785V105.489C145.135 107.895 142.93 109.852 140.22 109.852H114.087C106.015 109.852 99.4479 104.597 99.4479 98.1374C99.4479 91.6769 106.015 86.4223 114.087 86.4223H140.22C142.93 86.4223 145.135 88.3791 145.135 90.785ZM122.384 30.8284C120.173 30.8284 118.528 32.2636 117.772 33.5266C116.994 34.875 115.954 35.9217 114.717 36.5778C112.385 37.8843 109.279 37.8806 106.939 36.5735C104.543 35.2273 103.055 32.7649 103.055 30.1484C103.055 27.5269 104.542 25.0653 106.937 23.7241C109.274 22.4133 112.333 22.4039 114.679 23.6959C116.159 24.6413 117.285 25.9528 118.02 26.8903C119.055 28.4405 120.84 29.3976 122.712 29.3976C123.601 29.3976 124.466 29.1791 125.224 28.7653C127.219 27.7786 127.831 26.2805 127.991 25.1962C128.22 23.6778 127.684 22.3678 127.293 21.6299C126.392 20.0913 125.955 18.7856 125.955 17.6376C125.955 15.024 127.445 12.566 129.901 11.1901C130.875 10.6085 132.254 10.2758 133.683 10.2758C135.206 10.2758 136.597 10.6063 137.662 11.2407C140.045 12.5732 141.527 15.0276 141.527 17.6455C141.527 20.2598 140.037 22.7172 137.688 24.0337C136.496 24.6667 134.908 25.0146 133.215 25.0146C130.177 25.0146 127.885 27.2216 127.885 30.1484C127.885 33.4832 130.631 35.2823 133.215 35.2823C134.981 35.2823 136.439 35.6006 137.627 36.2299C140.033 37.5761 141.528 40.0392 141.528 42.6578C141.528 44.4511 140.815 46.1604 139.602 47.4965C138.359 46.9229 136.977 46.5916 135.516 46.5916H127.179C126.401 45.4255 125.952 44.0692 125.952 42.6557C125.952 41.3493 126.361 39.9582 127.186 38.5389C128.47 36.0823 127.546 32.9573 125.08 31.546C124.203 31.07 123.296 30.8284 122.384 30.8284ZM81.4138 22.5754L92.4397 41.2509L81.4138 36.9374V22.5754ZM81.4138 41.9873L90.7658 45.6461L88.9723 46.5916H81.4138V41.9873ZM76.6045 22.5732V36.8686L65.6848 41.07L76.6045 22.5732ZM76.6045 41.9063V46.5916H69.046L67.0995 45.5651L76.6045 41.9063ZM135.516 51.2776C138.168 51.2776 140.325 53.3798 140.325 55.9637V81.7413C140.29 81.7406 140.256 81.7363 140.22 81.7363H114.087C103.346 81.7363 94.6386 89.0793 94.6386 98.1374C94.6386 107.195 103.346 114.538 114.087 114.538H140.22C140.256 114.538 140.29 114.534 140.325 114.533V140.311C140.325 142.894 138.168 144.997 135.516 144.997H21.2999C18.6479 144.997 16.4906 142.894 16.4906 140.311V55.9637C16.4906 53.3798 18.6479 51.2776 21.2999 51.2776H135.516ZM6.17764 17.4083L8.54739 16.1988L7.35769 13.9852C6.76507 12.8828 7.25149 11.4852 8.43896 10.8791C8.79617 10.6968 9.16674 10.6121 9.52543 10.6121C10.3616 10.6121 11.1399 11.0729 11.5543 11.844L12.7433 14.0576L19.5718 10.5731L18.3821 8.35952C17.7895 7.25709 18.1637 5.91667 19.3512 5.31047C19.7248 5.12023 20.125 5.0298 20.5164 5.0298C21.3689 5.0298 22.1806 5.45804 22.5869 6.21398L23.7714 8.41811C24.8229 8.13455 25.8738 7.99855 26.903 7.99855C31.0521 7.99855 34.847 10.215 36.8751 13.9874C38.5988 17.1956 38.5416 20.9268 36.9746 24.1531C40.4264 24.6891 43.7148 26.7124 45.4384 29.9199C47.9693 34.6291 46.8873 40.16 42.6751 43.5874L43.8596 45.7915C43.997 46.0462 44.0705 46.3181 44.0957 46.5916H38.9315L38.4651 45.7235L36.7652 46.5916H24.8831L10.4374 19.7151L8.06839 20.9246C7.60573 21.1604 7.12524 21.2856 6.67595 21.2856C5.97268 21.2856 5.34515 20.9774 4.98349 20.3047C4.39013 19.2008 4.99017 18.0137 6.17764 17.4083Z" fill="#E74237" fill-opacity="0.8"/>
<path d="M113.875 91.1082C109.898 91.1082 106.662 94.2606 106.662 98.1372C106.662 102.013 109.898 105.166 113.875 105.166C117.854 105.166 121.089 102.013 121.089 98.1372C121.089 94.2606 117.854 91.1082 113.875 91.1082ZM113.875 100.48C112.55 100.48 111.471 99.4292 111.471 98.1372C111.471 96.8446 112.55 95.7942 113.875 95.7942C115.202 95.7942 116.28 96.8446 116.28 98.1372C116.28 99.4292 115.202 100.48 113.875 100.48Z" fill="#E74237" fill-opacity="0.8"/>
<path d="M28.5133 92.2794C29.8418 92.2794 30.9179 91.2305 30.9179 89.9364V64.1638H76.6047C77.9325 64.1638 79.0094 63.1149 79.0094 61.8208C79.0094 60.5267 77.9325 59.4778 76.6047 59.4778H28.5133C27.1855 59.4778 26.1094 60.5267 26.1094 61.8208V89.9364C26.1094 91.2305 27.1855 92.2794 28.5133 92.2794Z" fill="#E74237" fill-opacity="0.8"/>
<path d="M30.9179 99.3084C30.9179 99.4624 30.9031 99.6143 30.8719 99.7655C30.8414 99.916 30.7954 100.063 30.7352 100.205C30.6751 100.347 30.6008 100.482 30.5132 100.61C30.4256 100.738 30.3253 100.856 30.2139 100.965C30.1025 101.074 29.9807 101.171 29.8493 101.256C29.7186 101.342 29.5797 101.414 29.4341 101.473C29.2878 101.532 29.1378 101.576 28.9826 101.607C28.8282 101.636 28.6715 101.651 28.5133 101.651C28.3558 101.651 28.1991 101.636 28.0447 101.607C27.8895 101.576 27.7395 101.532 27.5932 101.473C27.4476 101.414 27.3087 101.342 27.178 101.256C27.0466 101.171 26.9248 101.074 26.8134 100.965C26.702 100.856 26.6017 100.738 26.5141 100.61C26.4265 100.482 26.3522 100.347 26.2921 100.205C26.2319 100.063 26.1859 99.916 26.1554 99.7655C26.1242 99.6143 26.1094 99.4624 26.1094 99.3084C26.1094 99.1543 26.1242 99.0024 26.1554 98.8512C26.1859 98.7007 26.2319 98.5539 26.2921 98.4121C26.3522 98.2696 26.4265 98.1343 26.5141 98.007C26.6017 97.879 26.702 97.7603 26.8134 97.6518C26.9248 97.5426 27.0466 97.4457 27.178 97.3603C27.3087 97.2749 27.4476 97.2026 27.5932 97.144C27.7395 97.0847 27.8895 97.0406 28.0447 97.0102C28.1991 96.9805 28.3558 96.9653 28.5133 96.9653C28.6715 96.9653 28.8282 96.9805 28.9826 97.0102C29.1378 97.0406 29.2878 97.0847 29.4341 97.144C29.5797 97.2026 29.7186 97.2749 29.8493 97.3603C29.9807 97.4457 30.1025 97.5426 30.2139 97.6518C30.3253 97.7603 30.4256 97.879 30.5132 98.007C30.6008 98.1343 30.6751 98.2696 30.7352 98.4121C30.7954 98.5539 30.8414 98.7007 30.8719 98.8512C30.9031 99.0024 30.9179 99.1543 30.9179 99.3084Z" fill="#E74237" fill-opacity="0.8"/>
<path d="M29.4996 25.6626C32.9447 23.9048 34.0972 19.613 32.2867 16.2427C31.025 13.8961 28.5847 12.594 26.0909 12.5947C25.0022 12.5947 23.9031 12.8428 22.8879 13.3608L14.6328 17.573L21.2445 29.8748L29.4996 25.6626ZM25.1188 17.5123C25.4203 17.3582 25.7478 17.2808 26.0916 17.2808C26.7318 17.2808 27.5762 17.5788 28.0262 18.4165C28.6344 19.5486 28.2802 20.9953 27.2687 21.5118L23.2733 23.5503L21.1242 19.5507L25.1188 17.5123Z" fill="#E74237" fill-opacity="0.8"/>
<path d="M23.1348 33.3906L29.7464 45.6924L38.0015 41.4794C41.4466 39.7216 42.79 35.7828 40.9788 32.4133C39.6695 29.9769 36.9923 28.4832 34.347 28.4832C33.3296 28.4832 32.3174 28.7038 31.3899 29.1776L23.1348 33.3906ZM34.347 33.1692C35.2798 33.1692 36.2764 33.7653 36.7183 34.5878C37.0621 35.2265 36.999 35.7669 36.8861 36.1076C36.7183 36.6139 36.3217 37.0465 35.7707 37.3279L31.7753 39.3671L29.6261 35.3668L33.6207 33.3284C33.8287 33.2227 34.073 33.1692 34.347 33.1692Z" fill="#E74237" fill-opacity="0.8"/>
</g>
<defs>
<clipPath id="clip0_585_5014">
<rect width="150" height="150" fill="white"/>
</clipPath>
</defs>
</svg>
