<svg width="150" height="150" viewBox="0 0 150 150" fill="none" xmlns="http://www.w3.org/2000/svg">
<g clip-path="url(#clip0_585_5030)">
<path d="M94.3931 114.943C93.0262 115.07 92.0102 116.288 92.1471 117.664L94.9989 147.614C95.1257 148.91 96.2099 149.875 97.4898 149.875C97.5681 149.875 97.6456 149.875 97.7239 149.865C99.1016 149.739 100.107 148.52 99.9807 147.146L97.1187 117.195C96.9912 115.82 95.7903 114.768 94.3931 114.943Z" fill="#E74237" fill-opacity="0.8"/>
<path d="M83.9727 75.0001C84.8518 72.2896 85.1351 69.3744 84.7539 66.4599C83.8459 59.4887 80.2708 53.4738 74.4397 49.0474C68.4325 44.5038 60.6381 42.1449 52.4821 42.2129V35.2034C53.3126 35.1542 54.1424 35.0666 54.9831 35.0666C77.0472 35.0666 94.9906 52.9761 94.9906 75.0001H83.9727ZM67.8078 82.5363C65.9025 82.6144 64.1153 82.2245 62.484 81.5033V70.0088C62.484 68.6336 61.3606 67.5124 59.9837 67.5124C58.6067 67.5124 57.4834 68.6336 57.4834 70.0088V77.827C53.8989 74.6492 50.1383 72.8553 46.2705 72.4849C45.8596 72.4458 45.4494 72.3974 45.0392 72.3091C39.2574 71.2074 34.9598 65.8746 34.9598 60.0254H39.9799C41.3569 60.0254 42.4802 58.9042 42.4802 57.529C42.4802 56.1546 41.3569 55.0334 39.9799 55.0334H36.1019C38.2217 50.8312 42.8708 48.3161 47.4815 47.5847V55.0334C47.4815 56.4078 48.6048 57.529 49.9818 57.529C51.3588 57.529 52.4821 56.4078 52.4821 55.0334V47.2049C59.5249 47.1558 66.3619 49.1935 71.4118 53.0253C76.1587 56.6226 79.0598 61.4975 79.8019 67.1131C80.1534 69.7939 79.7432 72.4849 78.6887 74.8735C75.1724 74.2593 72.4858 71.198 72.4858 67.5124C72.4858 66.138 71.3625 65.0167 69.9856 65.0167C68.6086 65.0167 67.4853 66.138 67.4853 67.5124C67.4853 72.8647 70.8936 77.3981 75.6507 79.1725C73.4823 81.24 70.7668 82.4581 67.8078 82.5363ZM147.5 35.0666C146.123 35.0666 145 36.1879 145 37.5623V65.0167H99.9912V52.5377C99.9912 51.1626 98.8679 50.042 97.4909 50.042C96.1132 50.042 94.9906 51.1626 94.9906 52.5377V54.5169C87.518 40.0196 72.4076 30.0753 54.9831 30.0753C54.1424 30.0753 53.3126 30.1628 52.4821 30.2113V25.0833C52.4821 20.9499 55.8426 17.5956 59.9837 17.5956H67.4853C68.8622 17.5956 69.9856 16.4743 69.9856 15.0999C69.9856 13.7255 68.8622 12.6042 67.4853 12.6042H59.9837C53.0879 12.6042 47.4815 18.2003 47.4815 25.0833V30.7669C37.1281 32.5218 27.6335 37.7967 20.6987 45.9275C19.8102 46.9807 19.937 48.5598 20.9922 49.4467C22.0372 50.3343 23.6193 50.2171 24.5085 49.1646C30.486 42.1449 38.6124 37.5138 47.4815 35.8175V42.5348C47.3547 42.5637 47.2177 42.5637 47.0807 42.5833C38.9247 43.7436 32.8008 48.5598 30.7107 55.0334H7.47396V37.5623C7.47396 36.1879 6.35064 35.0666 4.97367 35.0666C3.59597 35.0666 2.47266 36.1879 2.47266 37.5623V57.529C2.47266 58.9042 3.59597 60.0254 4.97367 60.0254H29.9295C29.9193 68.3414 35.8483 75.6439 44.092 77.2129C44.6587 77.3207 45.2247 77.4082 45.7914 77.4567C48.9266 77.7496 52.082 79.446 55.1882 82.4972C55.9006 83.209 56.6724 83.8333 57.4834 84.3982V97.4625C57.4834 104.345 63.0898 109.942 69.9856 109.942H102.492C103.869 109.942 104.993 108.821 104.993 107.446C104.993 106.071 103.869 104.95 102.492 104.95H69.9856C65.8445 104.95 62.484 101.597 62.484 97.4625V86.8165C64.0762 87.2845 65.7467 87.5283 67.4556 87.5283C67.6121 87.5283 67.7781 87.5283 67.9346 87.5283C72.7496 87.401 77.1646 85.2757 80.3686 81.5416C80.7883 81.0446 81.1789 80.5282 81.5499 79.9921H94.6681C94.0623 84.8077 92.578 89.4973 90.2821 93.787C89.6277 94.9957 90.0966 96.5069 91.3177 97.1601C91.6888 97.3554 92.0896 97.4531 92.4896 97.4531C93.3788 97.4531 94.2478 96.9749 94.6971 96.1365C97.3735 91.1257 99.0636 85.6273 99.6984 79.9921H134.998C136.375 79.9921 137.498 78.8709 137.498 77.4957C137.498 76.1213 136.375 75.0001 134.998 75.0001H99.9912C99.9912 73.3132 99.8839 71.6465 99.6984 70.0088H147.5C148.877 70.0088 150.001 68.8875 150.001 67.5124V37.5623C150.001 36.1879 148.877 35.0666 147.5 35.0666Z" fill="#E74237" fill-opacity="0.8"/>
<path d="M147.5 0.125H97.4904C93.495 0.125 89.5496 1.20718 86.0724 3.25434C84.8802 3.95602 84.4896 5.48669 85.1933 6.66652C85.8963 7.85576 87.4298 8.24566 88.6212 7.55339C91.3172 5.95472 94.3842 5.11632 97.4904 5.11632C107.141 5.11632 114.994 12.9549 114.994 22.5874C114.994 32.2199 107.141 40.0584 97.4904 40.0584C87.84 40.0584 79.9869 32.2199 79.9869 22.5874C79.9869 19.487 80.8269 16.4256 82.4285 13.7347C83.1322 12.5454 82.7314 11.0148 81.54 10.3131C80.358 9.6208 78.815 10.0107 78.1215 11.1905C76.0705 14.6613 74.9863 18.5994 74.9863 22.5874C74.9863 34.9789 85.0759 45.0498 97.4904 45.0498C109.905 45.0498 119.994 34.9789 119.994 22.5874C119.994 15.5286 116.713 9.24031 111.604 5.11632H145V27.5787C145 28.9538 146.122 30.0751 147.5 30.0751C148.877 30.0751 150 28.9538 150 27.5787V2.62066C150 1.24551 148.877 0.125 147.5 0.125Z" fill="#E74237" fill-opacity="0.8"/>
<path d="M94.9896 19.1363L101.905 22.5875L94.9896 26.0388V19.1363ZM92.4886 32.5709C92.8698 32.5709 93.251 32.4826 93.6119 32.3076L108.615 24.8199C109.455 24.3909 109.992 23.533 109.992 22.5875C109.992 21.6413 109.455 20.7834 108.615 20.3544L93.6119 12.8675C92.8306 12.487 91.9124 12.5159 91.1703 12.9745C90.4376 13.4324 89.9883 14.2325 89.9883 15.0998V30.0752C89.9883 30.9425 90.4376 31.7419 91.1703 32.2005C91.5805 32.4443 92.0298 32.5709 92.4886 32.5709Z" fill="#E74237" fill-opacity="0.8"/>
<path d="M127.496 20.0919H137.498C138.875 20.0919 139.999 18.9707 139.999 17.5955C139.999 16.2211 138.875 15.0999 137.498 15.0999H127.496C126.119 15.0999 124.996 16.2211 124.996 17.5955C124.996 18.9707 126.119 20.0919 127.496 20.0919Z" fill="#E74237" fill-opacity="0.8"/>
<path d="M127.496 30.0753H137.498C138.875 30.0753 139.999 28.9541 139.999 27.5789C139.999 26.2045 138.875 25.0833 137.498 25.0833H127.496C126.119 25.0833 124.996 26.2045 124.996 27.5789C124.996 28.9541 126.119 30.0753 127.496 30.0753Z" fill="#E74237" fill-opacity="0.8"/>
<path d="M127.496 40.0584H137.498C138.875 40.0584 139.999 38.9372 139.999 37.5621C139.999 36.1876 138.875 35.0664 137.498 35.0664H127.496C126.119 35.0664 124.996 36.1876 124.996 37.5621C124.996 38.9372 126.119 40.0584 127.496 40.0584Z" fill="#E74237" fill-opacity="0.8"/>
<path d="M109.992 47.5455C109.992 48.9206 111.116 50.0418 112.492 50.0418H137.498C138.875 50.0418 139.998 48.9206 139.998 47.5455C139.998 46.171 138.875 45.0498 137.498 45.0498H112.492C111.116 45.0498 109.992 46.171 109.992 47.5455Z" fill="#E74237" fill-opacity="0.8"/>
<path d="M112.492 60.0252H137.498C138.875 60.0252 139.998 58.904 139.998 57.5289C139.998 56.1544 138.875 55.0332 137.498 55.0332H112.492C111.116 55.0332 109.992 56.1544 109.992 57.5289C109.992 58.904 111.116 60.0252 112.492 60.0252Z" fill="#E74237" fill-opacity="0.8"/>
<path d="M127.495 132.404C127.495 133.779 126.372 134.9 124.995 134.9C123.617 134.9 122.494 133.779 122.494 132.404V129.908H127.495V132.404ZM121.254 121.378C118.9 120.003 117.493 117.605 117.493 114.933C117.493 110.8 120.853 107.446 124.995 107.446C129.136 107.446 132.496 110.8 132.496 114.933C132.496 117.605 131.089 120.003 128.735 121.378C127.974 121.826 127.495 122.645 127.495 123.532V124.917H122.494V123.532C122.494 122.645 122.016 121.826 121.254 121.378ZM132.496 124.917V124.868C135.612 122.519 137.497 118.833 137.497 114.933C137.497 108.05 131.891 102.454 124.995 102.454C118.099 102.454 112.492 108.05 112.492 114.933C112.492 118.833 114.377 122.519 117.493 124.868V124.917C116.116 124.917 114.993 126.038 114.993 127.412C114.993 128.788 116.116 129.908 117.493 129.908V132.404C117.493 136.538 120.853 139.891 124.995 139.891C129.136 139.891 132.496 136.538 132.496 132.404V129.908C133.874 129.908 134.997 128.788 134.997 127.412C134.997 126.038 133.874 124.917 132.496 124.917Z" fill="#E74237" fill-opacity="0.8"/>
<path d="M144.999 112.438C143.621 112.438 142.498 113.559 142.498 114.933C142.498 116.308 143.621 117.429 144.999 117.429C146.376 117.429 147.499 116.308 147.499 114.933C147.499 113.559 146.376 112.438 144.999 112.438Z" fill="#E74237" fill-opacity="0.8"/>
<path d="M104.991 112.438C103.614 112.438 102.49 113.559 102.49 114.933C102.49 116.308 103.614 117.429 104.991 117.429C106.368 117.429 107.492 116.308 107.492 114.933C107.492 113.559 106.368 112.438 104.991 112.438Z" fill="#E74237" fill-opacity="0.8"/>
<path d="M127.495 94.9666C127.495 93.5922 126.372 92.4709 124.995 92.4709C123.617 92.4709 122.494 93.5922 122.494 94.9666C122.494 96.341 123.617 97.4623 124.995 97.4623C126.372 97.4623 127.495 96.341 127.495 94.9666Z" fill="#E74237" fill-opacity="0.8"/>
<path d="M137.371 127.286C136.394 128.261 136.394 129.84 137.371 130.815C138.348 131.79 139.93 131.79 140.907 130.815C141.883 129.84 141.883 128.261 140.907 127.286C139.93 126.311 138.348 126.311 137.371 127.286Z" fill="#E74237" fill-opacity="0.8"/>
<path d="M112.619 102.581C113.596 101.606 113.596 100.027 112.619 99.0516C111.643 98.0765 110.06 98.0765 109.084 99.0516C108.107 100.027 108.107 101.606 109.084 102.581C110.06 103.556 111.643 103.556 112.619 102.581Z" fill="#E74237" fill-opacity="0.8"/>
<path d="M137.371 99.0516C136.394 100.027 136.394 101.606 137.371 102.581C138.348 103.556 139.93 103.556 140.907 102.581C141.883 101.606 141.883 100.027 140.907 99.0516C139.93 98.0765 138.348 98.0765 137.371 99.0516Z" fill="#E74237" fill-opacity="0.8"/>
<path d="M109.084 127.286C108.107 128.261 108.107 129.84 109.084 130.815C110.06 131.79 111.643 131.79 112.619 130.815C113.596 129.84 113.596 128.261 112.619 127.286C111.643 126.311 110.06 126.311 109.084 127.286Z" fill="#E74237" fill-opacity="0.8"/>
<path d="M59.2598 124.907C55.255 129.372 49.7754 132.015 43.8174 132.365C43.7587 132.365 43.7196 132.394 43.6609 132.405H42.4789C27.3104 132.405 14.9742 120.091 14.9742 104.95C14.9742 104.16 14.6024 103.43 13.9777 102.951L5.73403 96.7897L14.6416 81.2298C14.8568 80.85 14.9742 80.4211 14.9742 79.9921V75C14.9742 72.7482 15.1887 70.4471 15.6381 67.9514C15.8823 66.5958 14.9742 65.2995 13.6161 65.0557C12.229 64.812 10.9498 65.7184 10.715 67.074C10.2172 69.8619 9.97292 72.4552 9.97292 75V79.3287L0.302962 96.2247C-0.321748 97.3163 -0.038382 98.7009 0.967532 99.4611L10.0019 106.217C10.6469 123.084 24.263 136.684 41.1505 137.367L39.9981 147.087C39.8322 148.452 40.8185 149.69 42.1861 149.856C42.2839 149.875 42.381 149.875 42.4789 149.875C43.729 149.875 44.8132 148.94 44.9603 147.672L46.2105 137.123C52.6858 136.255 58.5757 133.155 62.9907 128.242C63.9089 127.208 63.8212 125.629 62.7856 124.712C61.7601 123.796 60.178 123.883 59.2598 124.907Z" fill="#E74237" fill-opacity="0.8"/>
<path d="M26.2277 79.9921C28.2983 79.9921 29.9782 78.3146 29.9782 76.2479C29.9782 74.1812 28.2983 72.5044 26.2277 72.5044C24.1565 72.5044 22.4766 74.1812 22.4766 76.2479C22.4766 78.3146 24.1565 79.9921 26.2277 79.9921Z" fill="#E74237" fill-opacity="0.8"/>
<path d="M14.9758 5.3695V17.5953C14.9758 18.9705 16.0984 20.0917 17.4761 20.0917H29.7247C28.5622 25.7847 23.5123 30.0751 17.4761 30.0751C10.5804 30.0751 4.97396 24.4783 4.97396 17.5953C4.97396 11.5703 9.27156 6.5298 14.9758 5.3695ZM29.7247 15.0997H19.9764V5.3695C24.8697 6.36415 28.7282 10.2154 29.7247 15.0997ZM17.4761 35.0664C27.1265 35.0664 34.9796 27.2279 34.9796 17.5953C34.9796 7.96282 27.1265 0.125 17.4761 0.125C7.82574 0.125 -0.0273438 7.96282 -0.0273438 17.5953C-0.0273438 27.2279 7.82574 35.0664 17.4761 35.0664Z" fill="#E74237" fill-opacity="0.8"/>
</g>
<defs>
<clipPath id="clip0_585_5030">
<rect width="150" height="150" fill="white"/>
</clipPath>
</defs>
</svg>
