<svg width="150" height="150" viewBox="0 0 150 150" fill="none" xmlns="http://www.w3.org/2000/svg">
<g clip-path="url(#clip0_332_4323)">
<path d="M59.7861 7.35197L59.689 12.4764L57.6099 13.2483C54.6377 14.3733 52.6233 15.7413 50.2562 18.3727C43.0303 26.3415 42.9672 38.906 50.1283 46.7684C52.0473 48.8746 52.9744 49.5773 55.7557 51.0163C57.5468 51.9638 61.0319 53.4028 63.4605 54.1747C71.518 56.8079 73.6279 58.632 73.6602 62.9846C73.6602 65.4758 73.1166 66.9504 71.5504 68.5296C68.0005 72.1458 61.9283 70.8114 59.5935 65.9673C59.3055 65.3711 59.0191 63.7919 58.9221 62.4576L58.7311 60.0018L54.0956 59.9646C51.5376 59.9646 48.6285 60.0355 47.6367 60.1047L45.7825 60.2449V82.9891H51.5376C57.1666 82.9891 57.2944 82.9891 57.2944 82.251C57.2944 81.6903 57.4222 81.5838 57.8688 81.7595C58.1568 81.8996 58.7959 82.1818 59.3071 82.3574L60.1695 82.707V94.221H71.9986V84.2188L74.3333 83.4451C79.2244 81.8304 83.7321 77.5133 86.0976 72.2842C88.9113 66.0365 88.942 59.3684 86.2254 53.2254C83.4749 47.1534 78.4575 43.3278 69.7285 40.6946C62.2794 38.45 60.6484 37.5717 59.6582 35.3235C58.8913 33.6041 58.9544 30.7261 59.7537 29.2161C60.9364 27.0052 63.8456 25.5306 66.4683 25.882C69.6007 26.2688 71.9031 28.7246 72.2542 32.1314L72.4791 34.0265L78.6484 34.1311L84.787 34.2021V12.7905H73.9175V13.6688C73.9175 14.6873 73.8544 14.7228 72.6393 14.0201L71.7122 13.4932L71.6167 7.94817L71.5212 2.4369L65.703 2.33043L59.8831 2.26123L59.7861 7.35197ZM68.7367 10.9309C68.7998 16.231 68.8322 16.302 69.536 16.302C71.23 16.3375 72.8933 17.6364 74.7782 20.3725L76.6324 23.1121L76.7295 19.5314L76.825 15.9507H81.9087V31.0792L78.519 30.9727L75.131 30.8663L74.4919 29.0422C73.788 26.9005 71.9031 24.7251 69.824 23.6001C67.651 22.4432 63.5576 22.4769 61.3199 23.6711C57.9626 25.4614 56.2362 28.4797 56.2686 32.5164C56.2686 35.4282 57.0679 37.4635 58.9544 39.2893C60.6501 41.0087 61.9283 41.5712 67.6834 43.3261C74.0453 45.2211 77.7861 47.2226 80.5026 50.0652C85.6511 55.47 86.8338 63.5772 83.5396 70.8789C81.077 76.3192 76.6648 79.9336 70.976 81.2325L69.1218 81.6175V91.0608H63.0479V79.8307H62.0884C60.2019 79.8307 58.3153 78.4963 56.398 75.7602L54.5746 73.1625L54.4791 76.4948L54.382 79.8289H48.6592V63.3324L49.3938 63.1567C49.7772 63.052 51.3758 62.981 52.9436 63.052L55.822 63.1567L56.1731 64.7359C57.0695 68.5615 59.723 71.8601 62.823 73.0206C64.9652 73.8279 68.1623 73.8279 70.3045 73.0206C72.5422 72.1777 74.9093 69.8266 75.8364 67.4738C76.4431 65.9301 76.5402 65.1919 76.4108 62.667C76.2506 59.2619 75.804 58.0322 73.9175 55.9633C72.3189 54.2084 69.6007 52.8386 64.1643 51.0837C54.8933 48.0655 50.7691 44.7669 48.69 38.5902C47.7952 35.9925 47.5072 31.8865 47.9878 29.1841C49.2676 22.5142 54.5098 16.8982 60.7439 15.6011L62.7259 15.1433V5.38771L65.6981 5.49418L68.6396 5.59709L68.7367 10.9309Z" fill="#E74237" fill-opacity="0.8"/>
<path d="M77.3118 16.4507L77.2293 19.5447L77.2293 19.545L77.1323 23.1257L77.0901 24.6804L76.2184 23.3924L74.3665 20.6561C74.3661 20.6556 74.3657 20.655 74.3653 20.6544C72.4925 17.9363 70.9583 16.8346 69.5308 16.802C69.5247 16.802 69.5183 16.8021 69.5116 16.8021C69.361 16.803 69.0474 16.8047 68.7952 16.5856C68.5431 16.3667 68.4543 16.0231 68.4018 15.6795C68.2911 14.955 68.268 13.564 68.2368 10.9387C68.2368 10.9381 68.2368 10.9375 68.2367 10.9369L68.1483 6.08021L65.6807 5.99387L65.6803 5.99386L63.2259 5.90595V15.1433V15.541L62.8384 15.6305L60.8564 16.0883L60.8458 16.0908L60.8458 16.0906C54.8292 17.3425 49.7261 22.7852 48.4794 29.275C48.0141 31.897 48.2971 35.9142 49.1627 38.4274L49.1639 38.4307C50.1768 41.4399 51.677 43.7248 54.0439 45.632C56.4246 47.5504 59.7068 49.1067 64.3191 50.6083C69.7527 52.3623 72.59 53.7637 74.2869 55.6264C75.25 56.6826 75.881 57.5626 76.2804 58.6403C76.6758 59.7074 76.8296 60.9301 76.9102 62.6423C76.9749 63.9059 76.9856 64.7591 76.896 65.4985C76.8049 66.2508 76.6127 66.8655 76.3017 67.6567L76.3016 67.6571C75.8079 68.9099 74.9408 70.1419 73.9155 71.167C72.8909 72.1914 71.6815 73.0362 70.4808 73.4885M77.3118 16.4507L70.3045 73.0206M77.3118 16.4507H81.4087V30.5632L78.5347 30.473L75.4894 30.3773L74.9653 28.8814C74.2173 26.6104 72.2428 24.3404 70.0619 23.1603L70.059 23.1588C68.8724 22.527 67.2137 22.2405 65.5921 22.254C63.9691 22.2674 62.2986 22.5821 61.0846 23.2299C57.5519 25.1138 55.7354 28.3103 55.7686 32.5184C55.7689 35.5445 56.6099 37.7141 58.6025 39.6445C60.397 41.4629 61.7983 42.0543 67.5376 43.8043L67.5407 43.8052C73.8656 45.6893 77.5107 47.6584 80.1408 50.4102C85.1356 55.654 86.3022 63.539 83.0841 70.6727C80.6856 75.9714 76.4011 79.4795 70.8694 80.7439C70.8678 80.7443 70.8663 80.7446 70.8647 80.745L77.3118 16.4507ZM70.4808 73.4885L70.3045 73.0206M70.4808 73.4885C70.4808 73.4885 70.4808 73.4884 70.4809 73.4884L70.3045 73.0206M70.4808 73.4885C68.2253 74.3385 64.9035 74.3386 62.6477 73.4888M70.3045 73.0206C68.1623 73.8279 64.9652 73.8279 62.823 73.0206M62.6477 73.4888L62.823 73.0206M62.6477 73.4888C59.3608 72.2584 56.6128 68.804 55.6863 64.85L55.685 64.8444L55.685 64.8444L55.4178 63.6423M62.6477 73.4888C62.6474 73.4887 62.647 73.4886 62.6467 73.4884L62.823 73.0206M62.823 73.0206L55.4178 63.6423M55.4178 63.6423L55.8038 63.6564L55.822 63.1567M55.4178 63.6423L56.1731 64.7359L55.822 63.1567M55.4178 63.6423L52.9255 63.5517L52.921 63.5515C52.151 63.5166 51.3727 63.5167 50.7416 63.5382C50.426 63.549 50.1507 63.565 49.934 63.5842C49.7056 63.6045 49.5738 63.6258 49.5255 63.639L49.5178 63.6411L49.5101 63.643L49.1592 63.7269M55.4178 63.6423L55.3339 63.2652L55.822 63.1567M55.822 63.1567L52.9436 63.052L49.1592 63.7269M54.5746 73.1625L55.0743 73.1768L55.0551 73.8472L54.5746 73.1625ZM54.5746 73.1625L54.1653 73.4498L54.5506 73.9987L54.5746 73.1625ZM49.1592 63.7269V63.3324H48.6592L48.7755 63.8186L49.1592 63.7269ZM59.2861 7.34244L59.2861 7.3425L59.1955 12.1263L57.4359 12.7795L57.4359 12.7795L57.4329 12.7807C54.3825 13.9352 52.3025 15.3504 49.8852 18.0375C42.4903 26.1934 42.4207 39.0486 49.7587 47.1051L49.7587 47.1051C50.7256 48.1663 51.4614 48.8951 52.3173 49.5415C53.1708 50.1862 54.1278 50.7369 55.5237 51.4592C57.3454 52.4226 60.8558 53.8714 63.3071 54.6506C67.3381 55.968 69.7891 57.0573 71.2429 58.3132C71.9578 58.9308 72.4258 59.5847 72.7214 60.3271C73.0191 61.0746 73.1523 61.9375 73.1602 62.9865C73.1601 64.1966 73.0276 65.1217 72.7249 65.9223C72.4238 66.7188 71.9419 67.4247 71.1954 68.1775L71.1936 68.1793C67.9257 71.5083 62.2536 70.3348 60.0439 65.7502L60.0437 65.7499C59.9311 65.5167 59.7969 65.0307 59.6776 64.3968C59.5613 63.779 59.4679 63.0694 59.4207 62.4213L59.4206 62.4188L59.2296 59.9631L59.1941 59.5055L58.7352 59.5018L54.0996 59.4646H54.0956C51.5356 59.4646 48.612 59.5355 47.6019 59.6059L47.599 59.6062L45.7448 59.7463L45.2825 59.7813V60.2449V82.9891V83.4891H45.7825H51.5376H51.6351C54.3631 83.4891 55.8224 83.4891 56.5891 83.393C56.9549 83.3471 57.3131 83.2671 57.5466 83.0245C57.7919 82.7698 57.7948 82.4436 57.7944 82.2776C58.1278 82.4326 58.673 82.6674 59.1317 82.8258L59.6695 83.0438V94.221V94.721H60.1695H71.9986H72.4986V94.221V84.5798L74.49 83.9199C79.5327 82.2552 84.1387 77.8277 86.5532 72.4903L86.5535 72.4895C89.4247 66.1142 89.4576 59.2979 86.6827 53.0232L86.6809 53.0191C83.8515 46.7731 78.6879 42.8751 69.8729 40.2159L69.8728 40.2159C66.1402 39.0912 63.9184 38.3233 62.5068 37.5694C61.8092 37.1968 61.3276 36.8366 60.9658 36.4527C60.6058 36.0706 60.3467 35.6462 60.1158 35.122L60.1149 35.1199C59.7703 34.3473 59.5996 33.2762 59.6186 32.2001C59.6376 31.1211 59.8459 30.1111 60.1952 29.4508C61.2762 27.4314 63.9784 26.0529 66.4019 26.3776L66.4019 26.3776L66.407 26.3782C69.286 26.7337 71.4273 28.9847 71.7568 32.1827L71.7568 32.1827L71.7577 32.1903L71.9826 34.0854L72.034 34.519L72.4706 34.5264L78.64 34.6311L78.6427 34.6311L84.7813 34.7021L85.287 34.7079V34.2021V12.7905V12.2905H84.787H73.9175H73.4175V12.7905V13.6688C73.4175 13.7501 73.417 13.8201 73.4158 13.8804C73.2816 13.8114 73.1108 13.7152 72.8896 13.5873L72.8864 13.5855L72.2072 13.1994L72.1166 7.93956V7.93951L72.0212 2.42824L72.0128 1.94581L71.5304 1.93698L65.7122 1.83052V1.83051L65.7089 1.83047L59.8891 1.76127L59.3927 1.75536L59.3832 2.2517L59.2861 7.34244ZM73.392 14.1834C73.392 14.1834 73.3921 14.1831 73.3923 14.1824L73.392 14.1834ZM63.0479 91.0608V90.5608H63.5479V91.0608H63.0479ZM53.9793 76.4803L53.9793 76.4805L54.4791 76.4948L53.9793 76.4803ZM54.382 79.8289V79.3289H53.8964L53.8822 79.8144L54.382 79.8289ZM49.1592 79.3289H48.6592V79.8289H49.1592V79.3289ZM68.6218 90.5608V91.0608H69.1218V90.5608H68.6218Z" stroke="#E74237" stroke-opacity="0.8"/>
<path d="M91.6453 18.057L91.55 20.2867L89.5694 20.3922L87.5566 20.4995V23.6822L89.5694 23.6106L91.55 23.5034L91.6453 25.6973L91.7391 27.8894H94.583V23.2906H98.4163V20.1079H94.583L94.5507 18.588C94.4876 16.0061 94.5183 16.0419 93.081 15.9364L91.7391 15.8291L91.6453 18.057Z" fill="#E74237" fill-opacity="0.8"/>
<path d="M89.5965 24.1099L91.0724 24.03L91.1458 25.7186L91.1458 25.719L91.2396 27.9108L91.2601 28.3894H91.7391H94.583H95.083V27.8894V23.7906H98.4163H98.9163V23.2906V20.1079V19.6079H98.4163H95.0725L95.0505 18.5774L95.0505 18.5758C95.0492 18.5215 95.0479 18.4681 95.0466 18.4158C95.0331 17.8541 95.0223 17.4064 94.995 17.0601C94.9663 16.695 94.9154 16.3582 94.7693 16.0926C94.596 15.7775 94.3284 15.6244 94.0334 15.5481C93.7975 15.487 93.5021 15.4656 93.1936 15.4433C93.1689 15.4415 93.1441 15.4397 93.1192 15.4378L91.779 15.3307L91.2614 15.2893L91.2396 15.8081L91.1458 18.0356L91.1458 18.036L91.0698 19.8115L89.5428 19.8929L89.5428 19.8929L87.53 20.0002L87.0566 20.0254V20.4995V23.6822V24.2002L87.5743 24.1818L89.5872 24.1103L89.5872 24.1104L89.5965 24.1099Z" stroke="#E74237" stroke-opacity="0.8"/>
<path d="M0.761719 30.7414V32.3313L20.3837 32.2599L39.9735 32.1545L40.0683 30.6342L40.1631 29.1515H0.761719V30.7414Z" fill="#E74237" fill-opacity="0.8"/>
<path d="M0.261719 32.3313V32.8332L0.76354 32.8313L20.3855 32.7599L20.3864 32.7599L39.9762 32.6545L40.4435 32.652L40.4726 32.1856L40.5673 30.6661L40.5674 30.6653L40.6621 29.1834L40.6961 28.6515H40.1631H0.761719H0.261719V29.1515V30.7414V32.3313Z" stroke="#E74237" stroke-opacity="0.8"/>
<path d="M6.39258 23.6505V25.2404L23.0595 25.1689L39.6992 25.0635L39.7797 23.5433L39.8602 22.0605H6.39258V23.6505Z" fill="#E74237" fill-opacity="0.8"/>
<path d="M5.89258 25.2404V25.7425L6.39472 25.7404L23.0617 25.6689L23.0627 25.6689L39.7023 25.5635L40.1735 25.5605L40.1985 25.09L40.279 23.5704L40.279 23.5697L40.3595 22.0877L40.3881 21.5605H39.8602H6.39258H5.89258V22.0605V23.6505V25.2404Z" stroke="#E74237" stroke-opacity="0.8"/>
<path d="M85.9471 38.232L82.041 38.375V41.3422L108.489 41.2386C132.746 41.0957 134.968 41.1314 135.38 41.6977C135.984 42.5106 136.427 128.238 135.825 129.369L135.412 130.148L98.6454 130.358C78.4209 130.464 53.8147 130.641 43.9395 130.748C32.9234 130.853 25.8102 130.782 25.5258 130.571C24.9538 130.181 24.7642 117.85 24.6356 71.8402C24.573 48.5523 24.6356 42.2283 24.9538 42.0157C25.1755 41.8389 28.6686 41.6638 32.7306 41.5923L40.1282 41.4155V38.341L34.8258 38.3767C31.8742 38.3767 28.2219 38.5179 26.6987 38.6251C23.9672 38.8734 23.8403 38.9073 22.7926 40.181L21.7129 41.5227L21.745 69.5107C21.7788 84.9187 21.872 105.13 21.9989 114.388L22.1901 131.207L22.9839 132.197C23.4273 132.69 24.2211 133.327 24.7304 133.574C25.492 133.926 36.9227 133.963 80.6093 133.679C131.061 133.36 135.633 133.29 136.617 132.761C137.221 132.443 137.981 131.736 138.331 131.205C138.934 130.289 138.966 129.438 138.902 98.8725C138.871 60.8858 138.585 41.4851 138.108 40.3901C137.918 39.9667 137.251 39.2253 136.679 38.8001L135.6 37.9873L112.708 38.0588C100.108 38.0909 88.0728 38.1963 85.9471 38.232Z" fill="#E74237" fill-opacity="0.8"/>
<path d="M85.9387 37.732L85.9387 37.7321C88.0682 37.6963 100.106 37.5909 112.706 37.5588C112.706 37.5588 112.707 37.5588 112.707 37.5588L135.598 37.4873L135.766 37.4868L135.9 37.5878L136.978 38.3988C136.978 38.3992 136.979 38.3996 136.979 38.4C137.297 38.6364 137.63 38.9516 137.909 39.2615C138.18 39.5628 138.437 39.9009 138.564 40.1857L138.566 40.1903C138.628 40.3328 138.664 40.5417 138.691 40.7436C138.721 40.9689 138.749 41.2627 138.776 41.6217C138.831 42.3407 138.881 43.3442 138.929 44.6297C139.023 47.2018 139.105 50.9211 139.172 55.79C139.307 65.5285 139.386 79.8777 139.402 98.8714C139.434 114.151 139.442 122.012 139.366 126.166C139.329 128.238 139.27 129.411 139.18 130.128C139.134 130.488 139.078 130.753 139.004 130.968C138.928 131.193 138.838 131.345 138.749 131.48L138.749 131.481C138.354 132.078 137.532 132.844 136.851 133.203C136.659 133.306 136.419 133.376 136.08 133.432C135.737 133.49 135.26 133.538 134.577 133.582C133.209 133.668 130.957 133.737 127.172 133.799C119.596 133.922 105.837 134.019 80.6126 134.179C58.7695 134.321 44.9881 134.383 36.5719 134.365C32.3645 134.356 29.494 134.327 27.6263 134.279C26.6933 134.254 26.0045 134.225 25.5221 134.19C25.2815 134.172 25.0853 134.153 24.9325 134.131C24.7987 134.112 24.6423 134.084 24.5207 134.028L24.5126 134.024L24.5126 134.024C23.93 133.742 23.0863 133.058 22.6121 132.531L22.6026 132.52L22.5938 132.509L21.8001 131.52L21.6921 131.385L21.6901 131.213L21.4989 114.395C21.4989 114.394 21.4989 114.394 21.4989 114.394C21.372 105.133 21.2788 84.9192 21.245 69.5118L21.245 69.5113L21.2129 41.5232L21.2127 41.3467L21.3234 41.2092L22.4031 39.8676L22.4065 39.8634L22.4065 39.8634C22.9223 39.2362 23.2902 38.8059 23.9308 38.5534C24.5186 38.3217 25.3232 38.248 26.6535 38.1271L26.6636 38.1262L26.6636 38.1263C28.1996 38.0182 31.8625 37.8768 34.8241 37.8767C34.8247 37.8767 34.8252 37.8767 34.8258 37.8767L40.1248 37.841L40.6282 37.8376V38.341V41.4155V41.9037L40.1401 41.9153L32.7425 42.0922L32.7394 42.0923C30.7122 42.1279 28.8296 42.1894 27.4286 42.2638C26.7272 42.301 26.1518 42.3412 25.7412 42.3825C25.5792 42.3988 25.448 42.4147 25.3473 42.4299C25.3455 42.4424 25.3436 42.4556 25.3417 42.4696C25.3125 42.6872 25.285 43.0259 25.2604 43.5157C25.2113 44.4917 25.1757 46.0214 25.1519 48.28C25.1043 52.7946 25.1043 60.1942 25.1356 71.8388C25.1999 94.8441 25.2794 109.426 25.4143 118.306C25.4818 122.746 25.5631 125.754 25.6628 127.674C25.7127 128.636 25.7668 129.314 25.8244 129.758C25.8455 129.921 25.8661 130.044 25.8851 130.135C25.9167 130.138 25.9522 130.142 25.9917 130.145C26.2224 130.166 26.5567 130.185 26.9935 130.203C27.865 130.237 29.1193 130.262 30.7131 130.278C33.8994 130.309 38.4282 130.3 43.9347 130.248M85.9387 37.732L43.9395 130.748M85.9387 37.732L85.9288 37.7324L82.0227 37.8753L81.541 37.8929V38.375V41.3422V41.8442L82.0429 41.8422L108.491 41.7386L108.491 41.7386C120.623 41.6671 127.236 41.6404 130.868 41.7021C132.689 41.7331 133.738 41.7861 134.353 41.8631C134.687 41.9049 134.852 41.9506 134.929 41.9789M85.9387 37.732L134.929 41.9789M43.9347 130.248L43.9395 130.748M43.9347 130.248C43.9345 130.248 43.9342 130.248 43.934 130.248L43.9395 130.748M43.9347 130.248C53.8118 130.141 78.4183 129.964 98.6426 129.858L98.6454 130.358M43.9395 130.748C53.8147 130.641 78.4209 130.464 98.6454 130.358M98.6454 130.358L98.6428 129.858M98.6454 130.358L98.6428 129.858M98.6428 129.858L135.11 129.649M98.6428 129.858L135.383 129.134L135.383 129.134M135.11 129.649L134.97 129.913L135.412 130.148L135.409 129.648L135.11 129.649ZM135.11 129.649L135.357 129.183M135.357 129.183C135.356 129.191 135.355 129.198 135.354 129.202C135.353 129.205 135.353 129.207 135.353 129.208M135.357 129.183C135.357 129.182 135.358 129.18 135.358 129.179C135.364 129.136 135.372 129.07 135.38 128.977C135.396 128.792 135.411 128.528 135.426 128.185C135.455 127.501 135.481 126.527 135.503 125.301C135.548 122.851 135.577 119.409 135.594 115.305C135.628 107.099 135.61 96.253 135.555 85.4165C135.499 74.58 135.406 63.7542 135.289 55.5874C135.23 51.5036 135.166 48.0866 135.097 45.666C135.063 44.4551 135.027 43.4971 134.991 42.8308C134.973 42.4967 134.956 42.2418 134.938 42.0671C134.935 42.0337 134.932 42.0044 134.929 41.9789M135.357 129.183L135.383 129.134M135.353 129.208C135.353 129.21 135.352 129.21 135.352 129.21C135.352 129.21 135.352 129.21 135.353 129.209L135.353 129.208ZM135.353 129.208L135.354 129.206L135.357 129.194C135.36 129.186 135.368 129.163 135.383 129.134M135.383 129.134L134.929 41.9789M25.1683 42.4639C25.1621 42.4663 25.1585 42.4674 25.1583 42.4673C25.158 42.4672 25.1611 42.466 25.1683 42.4639Z" stroke="#E74237" stroke-opacity="0.8"/>
<path d="M105.583 45.4749L89.7737 45.5823V48.8744L109.074 48.6972L128.406 48.5199L128.597 69.9784C128.724 81.7701 128.819 95.6151 128.819 100.679V109.956L97.0125 110.169C79.4891 110.276 57.6492 110.416 48.4762 110.488L31.7786 110.559L31.589 91.4727C31.4621 80.9574 31.3657 67.1464 31.3657 60.7377V49.1232H44.6978V45.9368H28.5078V58.0829C28.5078 64.7745 28.6026 80.0372 28.7295 92.0419L28.9207 113.819L44.8231 113.678C53.5848 113.608 76.6938 113.466 96.2173 113.359L131.675 113.146V103.338C131.675 97.9566 131.58 82.6938 131.452 69.3805L131.262 45.2261L126.31 45.2977C123.58 45.3693 114.247 45.4391 105.583 45.4749Z" fill="#E74237" fill-opacity="0.8"/>
<path d="M105.581 44.9749L105.58 44.9749L89.7703 45.0823L89.2737 45.0857V45.5823V48.8744V49.379L89.7783 49.3744L109.078 49.1971L127.911 49.0245L128.097 69.9829L128.097 69.9838C128.224 81.775 128.319 95.6178 128.319 100.679V109.459L97.0094 109.669C97.0093 109.669 97.0092 109.669 97.0091 109.669C79.4859 109.776 57.6457 109.916 48.4723 109.988L32.2736 110.057L32.089 91.4677L32.089 91.4666C31.9621 80.9525 31.8657 67.1437 31.8657 60.7377V49.6232H44.6978H45.1978V49.1232V45.9368V45.4368H44.6978H28.5078H28.0078V45.9368V58.0829C28.0078 64.7769 28.1026 80.0416 28.2295 92.0472L28.4207 113.823L28.4251 114.323L28.9251 114.319L44.8271 114.178C53.5881 114.108 76.6965 113.966 96.22 113.859H96.2203L131.678 113.646L132.175 113.643V113.146V103.338C132.175 97.9541 132.08 82.6893 131.952 69.3757L131.762 45.2222L131.758 44.7189L131.255 44.7261L126.302 44.7977L126.297 44.7979C123.574 44.8693 114.247 44.9391 105.581 44.9749Z" stroke="#E74237" stroke-opacity="0.8"/>
<path d="M90.2715 73.1237C90.2715 73.3398 91.7388 79.9124 93.5805 87.7454C95.3891 95.5766 97.0128 102.618 97.1692 103.373L97.5135 104.774L99.698 100.068C100.914 97.4454 102.069 95.3242 102.257 95.3242C102.445 95.3242 104.005 96.9405 105.722 98.9528L108.842 102.547L112.524 98.1265L116.175 93.7078L112.868 90.0083C111.026 87.996 109.59 86.2707 109.652 86.1999C109.715 86.1654 111.587 84.9431 113.835 83.5429C116.52 81.8539 117.706 80.9204 117.363 80.7751C115.49 79.9487 90.2715 72.8367 90.2715 73.1237ZM102.069 79.5546C106.157 80.7388 109.684 81.7812 109.933 81.8902C110.216 81.9973 109.341 82.7165 107.687 83.7572L104.97 85.4444L108.622 89.6832L112.274 93.8876L110.464 95.9362L108.685 98.0193L105.034 93.8149L101.35 89.6124L99.9775 92.6653C99.1973 94.318 98.4786 95.5748 98.387 95.4313C98.2622 95.2515 97.7299 93.2047 97.1692 90.8328C96.6385 88.461 95.7334 84.4745 95.1411 81.9229C94.5472 79.4093 94.2029 77.3607 94.3924 77.3607C94.5472 77.3625 98.0126 78.3324 102.069 79.5546Z" fill="#E74237" fill-opacity="0.8"/>
<path d="M110.929 87.0543C110.69 86.77 110.494 86.5305 110.35 86.3465L117.363 80.7751L117.565 80.3176C117.565 80.3174 117.564 80.3172 117.564 80.317C117.298 80.1999 116.669 79.9897 115.811 79.7203C114.938 79.4461 113.797 79.1007 112.482 78.7112C109.851 77.9319 106.521 76.9738 103.251 76.0507C99.98 75.1276 96.7667 74.239 94.3702 73.5989C93.1724 73.279 92.1757 73.0203 91.4769 72.8503C91.1287 72.7657 90.8482 72.7014 90.6519 72.6627C90.5563 72.6438 90.4675 72.6283 90.3966 72.6208C90.3663 72.6176 90.3111 72.6125 90.2518 72.617C90.2283 72.6188 90.156 72.6248 90.0746 72.6607C89.9938 72.6963 89.7715 72.8304 89.7715 73.1237C89.7715 73.1712 89.7785 73.2181 89.7809 73.2342C89.781 73.2349 89.7811 73.2355 89.7812 73.2361C89.7851 73.2624 89.7904 73.2932 89.7964 73.3264C89.8085 73.3935 89.826 73.483 89.8481 73.5921C89.8925 73.8109 89.9575 74.1185 90.0408 74.5037C90.2076 75.2747 90.4489 76.3628 90.7476 77.6881C91.345 80.3388 92.1725 83.9414 93.0936 87.8589C94.9035 95.6959 96.5247 102.727 96.6796 103.475L96.6814 103.484L96.6836 103.493L97.028 104.893L97.3678 106.275L97.967 104.984L100.151 100.278L100.152 100.278C100.756 98.974 101.345 97.7976 101.803 96.9505C102.017 96.555 102.199 96.2377 102.339 96.0145C102.523 96.1857 102.766 96.4282 103.055 96.7298C103.675 97.3772 104.488 98.277 105.342 99.2773L105.342 99.2773L105.345 99.2805L108.464 102.875L108.85 103.319L109.226 102.867L112.908 98.4465L112.909 98.445L116.561 94.0263L116.835 93.695L116.548 93.3745L113.241 89.6751L113.241 89.675L113.237 89.6707C112.32 88.6688 111.505 87.7397 110.929 87.0543ZM90.769 73.0788C90.769 73.0789 90.7692 73.0805 90.7695 73.0832C90.7691 73.0801 90.7689 73.0787 90.769 73.0788ZM101.925 80.0334L101.925 80.0334L101.93 80.0349C103.973 80.6268 105.876 81.1831 107.298 81.605C108.01 81.8159 108.6 81.993 109.028 82.1239C109.064 82.1351 109.1 82.146 109.134 82.1565C108.763 82.4532 108.183 82.8544 107.422 83.3333C107.422 83.3335 107.421 83.3338 107.421 83.334L104.707 85.0196L104.21 85.3279L104.592 85.7707L108.243 90.0096L108.245 90.0111L111.609 93.8848L110.089 95.6051L110.089 95.6051L110.084 95.6115L108.682 97.2531L105.411 93.4871L105.41 93.4854L101.726 89.2828L101.213 88.6976L100.894 89.4074L99.5234 92.456C99.1705 93.2034 98.8327 93.8637 98.5639 94.3434C98.521 94.1875 98.4745 94.0146 98.4251 93.8268C98.2079 93.0022 97.936 91.903 97.6565 90.7207C97.1254 88.3475 96.2206 84.362 95.6281 81.8098L95.6277 81.8079C95.3324 80.5579 95.1004 79.4292 94.9663 78.6177C94.9263 78.3757 94.8957 78.1665 94.8747 77.9932C94.9012 78.0003 94.9287 78.0077 94.9569 78.0153C95.3638 78.1247 95.9358 78.2836 96.631 78.481C98.0211 78.8757 99.8989 79.423 101.925 80.0334ZM109.522 81.7977C109.528 81.7871 109.53 81.7864 109.522 81.7969C109.522 81.7971 109.522 81.7974 109.522 81.7977ZM94.842 77.5153C94.8424 77.512 94.8425 77.5129 94.8418 77.5172L94.842 77.5153Z" stroke="#E74237" stroke-opacity="0.8"/>
<path d="M78.6798 117.486C77.067 118.382 76.2758 119.591 76.0548 121.486C75.8642 123.349 76.4023 124.798 77.7621 126.11C79.1859 127.454 80.7074 127.73 82.5109 126.971C86.3707 125.384 86.5613 119.315 82.8264 117.451C81.1479 116.623 80.2318 116.623 78.6798 117.486ZM81.9391 120.451C83.3949 121.556 82.4772 124.383 80.6738 124.383C79.8506 124.383 78.8384 123.141 78.8384 122.14C78.8384 121.141 79.8506 119.898 80.6738 119.898C80.9909 119.899 81.5595 120.142 81.9391 120.451Z" fill="#E74237" fill-opacity="0.8"/>
<path d="M75.5581 121.429L75.5581 121.429C75.6752 120.424 75.9475 119.569 76.4272 118.837C76.9076 118.105 77.5756 117.528 78.4368 117.049L75.5581 121.429ZM75.5581 121.429L75.5574 121.436M75.5581 121.429L75.5574 121.436M75.5574 121.436C75.3509 123.453 75.9465 125.053 77.415 126.469L77.415 126.469M75.5574 121.436L77.415 126.469M77.415 126.469L77.4188 126.473M77.415 126.469L77.4188 126.473M77.4188 126.473C78.1837 127.195 79.0047 127.658 79.9049 127.821C80.8046 127.984 81.7346 127.84 82.703 127.433C84.8541 126.547 85.9483 124.428 86.0164 122.331C86.0845 120.234 85.1301 118.042 83.0497 117.004L83.0497 117.004M77.4188 126.473L83.0497 117.004M83.0497 117.004L83.0477 117.003M83.0497 117.004L83.0477 117.003M83.0477 117.003C82.1827 116.576 81.4505 116.329 80.7022 116.334M83.0477 117.003L80.7022 116.334M80.7022 116.334C79.9491 116.339 79.2459 116.599 78.4369 117.049L80.7022 116.334ZM81.6236 120.838L81.6301 120.844L81.6367 120.849C82.1393 121.23 82.2852 121.958 82.0529 122.678C81.8201 123.399 81.283 123.883 80.6738 123.883C80.4878 123.883 80.1568 123.715 79.8345 123.321C79.5254 122.943 79.3384 122.49 79.3384 122.14C79.3384 121.792 79.5254 121.339 79.8346 120.961C80.1562 120.567 80.4863 120.399 80.6723 120.398C80.7322 120.398 80.8799 120.429 81.0841 120.518C81.2785 120.602 81.4748 120.717 81.6236 120.838Z" stroke="#E74237" stroke-opacity="0.8"/>
<path d="M64.2062 137.514V140.856H61.3621C58.2957 140.856 56.8737 141.313 55.8307 142.615C55.3253 143.246 55.1669 143.986 55.1029 146.694L54.9766 150H65.3755C71.0653 150 82.6655 149.897 91.1674 149.755L106.56 149.543V146.939C106.56 144.231 106.087 142.437 105.138 141.558C104.727 141.171 103.527 140.996 100.903 140.856L97.2362 140.678L97.1419 137.408L97.0491 134.171H94.2354V140.854H67.0535V134.171H64.2094V137.514H64.2062ZM103.654 145.287L103.75 146.379L91.169 146.589C84.2459 146.73 73.9429 146.836 68.2532 146.836H57.8846V145.853C57.8846 145.325 58.043 144.692 58.2637 144.444C58.5485 144.128 63.8895 144.023 81.1171 144.092L103.558 144.199L103.654 145.287Z" fill="#E74237" fill-opacity="0.8"/>
<path d="M63.7094 137.014H63.7062V137.514V140.356H61.3621C59.8129 140.356 58.6292 140.47 57.6858 140.771C56.7219 141.078 56.023 141.575 55.4405 142.302L55.4404 142.302C54.8117 143.087 54.6663 144.01 54.6032 146.679L54.4769 149.981L54.4571 150.5H54.9766H65.3755C71.0685 150.5 82.6711 150.397 91.1749 150.255C91.1752 150.255 91.1755 150.255 91.1757 150.255L106.567 150.043L107.06 150.036V149.543V146.939C107.06 145.56 106.94 144.388 106.688 143.435C106.437 142.485 106.047 141.719 105.48 141.193C105.306 141.029 105.081 140.917 104.835 140.832C104.586 140.746 104.285 140.678 103.93 140.621C103.222 140.506 102.243 140.427 100.929 140.356L100.927 140.356L97.7227 140.201L97.6417 137.393L97.6417 137.393L97.5489 134.157L97.535 133.671H97.0491H94.2354H93.7354V134.171V140.354H67.5535V134.171V133.671H67.0535H64.2094H63.7094V134.171V137.014ZM103.156 145.331L103.205 145.888L91.1606 146.089L91.1588 146.089C84.2388 146.23 73.9392 146.336 68.2532 146.336H58.3846V145.853C58.3846 145.634 58.4181 145.387 58.4749 145.171C58.5145 145.02 58.5578 144.914 58.5916 144.849C58.6197 144.843 58.6553 144.836 58.6997 144.829C58.8836 144.8 59.1648 144.771 59.5649 144.745C60.3619 144.693 61.5843 144.652 63.3449 144.624C66.8636 144.567 72.5011 144.558 81.1151 144.592L103.1 144.697L103.156 145.331L103.156 145.331ZM58.5195 144.867C58.5121 144.871 58.5077 144.872 58.5073 144.872C58.507 144.872 58.5107 144.87 58.5195 144.867Z" stroke="#E74237" stroke-opacity="0.8"/>
</g>
<defs>
<clipPath id="clip0_332_4323">
<rect width="150" height="150" fill="white"/>
</clipPath>
</defs>
</svg>
