<svg width="150" height="164" viewBox="0 0 150 164" fill="none" xmlns="http://www.w3.org/2000/svg">
<path d="M62.5085 68.8794C60.8171 63.7768 56.9582 59.4306 52.178 57.2507C42.942 53.0279 33.3133 53.5959 25.0074 54.4552C23.9453 54.5659 23.0161 55.198 22.555 56.1253C22.0898 57.0546 22.1613 58.1489 22.7382 59.0179C23.7681 60.5735 25.2763 62.9495 26.0041 64.2322C27.8526 67.4792 28.7204 71.2292 29.3899 74.4869C31.0128 82.3733 39.0337 89.8956 49.7256 89.8956C50.8441 89.8956 51.9918 89.813 53.1647 89.6402C54.852 89.3907 56.0098 87.872 55.752 86.2495C55.4943 84.6231 53.8996 83.4996 52.2314 83.756C43.7252 85.0027 36.691 79.3739 35.4466 73.3275C34.6895 69.6328 33.6888 65.3576 31.4195 61.3658C31.19 60.9619 30.9011 60.4803 30.5829 59.9559C37.6846 59.5258 43.8118 60.0132 49.5323 62.6291C52.7912 64.1176 55.443 67.1296 56.6229 70.6873C57.1666 72.3283 57.5381 74.5558 57.0619 77.1008C54.2812 74.1237 50.9357 70.9359 46.811 67.518C45.5173 66.4441 43.5662 66.5888 42.4577 67.8355C41.3432 69.0804 41.4932 70.9592 42.7869 72.0331C48.2617 76.5696 52.2898 80.6235 55.304 84.2318C55.4953 84.6328 55.7792 84.9872 56.1437 85.2765C61.9044 92.4726 63.5988 97.8121 64.7576 101.515C64.9146 102.022 65.0646 102.494 65.2106 102.939C62.0977 109.253 60.208 115.185 59.3573 119.674C59.0492 121.29 60.1607 122.84 61.8369 123.137C62.0272 123.172 62.2115 123.184 62.3987 123.184C63.8605 123.184 65.1613 122.179 65.4321 120.745C66.2536 116.408 68.1202 110.606 71.2593 104.47C71.3005 104.394 71.3378 104.319 71.374 104.239C73.305 100.498 75.7353 96.6459 78.6831 92.9154C78.9298 92.8804 79.1785 92.8289 79.4221 92.7318C86.3738 89.9781 94.4219 91.7269 94.5014 91.7424C96.1586 92.1143 97.8187 91.121 98.2104 89.5237C98.6 87.9254 97.5701 86.3243 95.9119 85.9446C95.6411 85.8825 91.2254 84.9183 85.6902 85.3338C90.0465 81.346 95.176 77.7688 101.202 75.0248C102.743 74.3228 103.4 72.5487 102.671 71.0612C101.943 69.5746 100.102 68.9415 98.5617 69.6435C95.0703 71.2321 91.8748 73.0896 88.9089 75.118L89.0438 74.6684C89.5129 73.0876 88.5646 71.4389 86.9286 70.9854C85.2855 70.532 83.5801 71.4457 83.1079 73.0245L80.5205 81.7111C80.4943 81.8033 80.4873 81.8946 80.4712 81.9849C76.4582 85.8232 73.0463 89.9645 70.2485 94.1573C68.7685 89.2479 69.438 84.9289 70.4448 81.8858C72.3033 76.2735 76.4965 71.5146 81.6602 69.1561C91.0201 64.8895 100.99 64.3429 112.705 65.2546C111.791 66.7034 110.898 68.1657 110.278 69.2551C107.031 74.9685 105.589 81.1469 104.493 86.4874C103.334 92.1201 100.108 96.9664 95.6431 99.7852C90.8006 102.837 84.6855 103.617 77.4821 102.09C75.8139 101.747 74.1688 102.755 73.8044 104.36C73.4399 105.966 74.494 107.555 76.1592 107.906C78.9409 108.495 81.631 108.788 84.2153 108.788C89.7646 108.788 94.7934 107.434 99.0228 104.768C104.952 101.027 109.049 94.9467 110.549 87.6429C111.558 82.7384 112.866 77.0881 115.697 72.1147C116.759 70.2397 118.997 66.7121 120.558 64.3487C121.132 63.4787 121.202 62.3873 120.737 61.4571C120.276 60.5298 119.346 59.8986 118.284 59.7889C106.254 58.5431 92.3047 57.7217 79.0194 63.7787C72.3365 66.8296 66.9292 72.9255 64.5592 80.0759C64.0347 81.6674 63.6904 83.287 63.476 84.9095C62.9434 84.1512 62.3655 83.3695 61.7473 82.5704C63.7266 78.1941 64.0065 73.4052 62.5085 68.8794Z" fill="#E74237" fill-opacity="0.8"/>
<path d="M44.5511 140.051C44.9478 140.214 45.3545 140.29 45.7592 140.29C46.9593 140.29 48.103 139.611 48.6043 138.478C49.2718 136.967 48.5399 135.219 46.9704 134.575C22.6378 124.581 8.19177 100.82 11.0248 75.4443C14.2696 46.4222 39.475 24.738 68.9863 24.0786L61.3631 29.9959C60.0362 31.0281 59.8257 32.9011 60.8939 34.1819C61.505 34.912 62.398 35.2907 63.3021 35.2907C63.9817 35.2907 64.6673 35.0761 65.2371 34.6334L79.2765 23.7359C80.6024 22.7047 80.8128 20.8316 79.7446 19.5509L68.4386 6.02202C67.3704 4.74128 65.4274 4.53834 64.0964 5.57051C62.7695 6.60268 62.5591 8.47573 63.6283 9.75647L70.5951 18.0925C37.2994 17.9672 8.53004 42.2071 4.88555 74.8063C1.75753 102.805 17.6987 129.025 44.5511 140.051Z" fill="#E74237" fill-opacity="0.8"/>
<path d="M93.262 28.4122C117.583 38.1095 132.601 62.5213 129.781 87.7788C126.538 116.803 101.324 138.496 71.8098 139.143L79.4361 133.225C80.763 132.192 80.9734 130.319 79.9052 129.04C78.833 127.758 76.8889 127.555 75.563 128.589L61.5237 139.485C60.8864 139.981 60.4807 140.699 60.3901 141.484C60.3045 142.269 60.5441 143.056 61.0545 143.671L72.3635 157.2C72.9746 157.93 73.8676 158.309 74.7687 158.309C75.4513 158.309 76.1339 158.092 76.7067 157.652C78.0326 156.618 78.243 154.744 77.1749 153.466L70.201 145.125C70.2835 145.125 70.3651 145.132 70.4476 145.132C103.645 145.128 132.287 120.933 135.922 88.4177C139.034 60.5512 122.462 33.6138 95.6208 22.9125C94.0452 22.2862 92.2391 23.0096 91.5857 24.5263C90.9343 26.042 91.6864 27.782 93.262 28.4122Z" fill="#E74237" fill-opacity="0.8"/>
</svg>
