<svg width="108" height="164" viewBox="0 0 108 164" fill="none" xmlns="http://www.w3.org/2000/svg">
<path d="M57.8416 55.6841C57.5736 55.6574 57.3699 55.4319 57.3723 55.1626V50.3638C57.3808 50.1176 57.5785 49.9212 57.8234 49.9115C70.6191 49.3027 81.381 44.3135 88.3701 35.7417C95.3592 27.1698 97.9848 15.3313 95.3238 2.86689L94.8715 0.624514H94.8727C94.8169 0.41592 94.6362 0.263105 94.4215 0.24128L92.2653 0.0508798C80.5466 -0.470603 70.4637 3.0233 63.0747 10.221C57.8695 15.46 54.2169 22.0369 52.5215 29.2247C52.5045 29.3459 52.4136 29.4442 52.2935 29.4708C52.1747 29.4975 52.0498 29.4478 51.9818 29.3459C50.6684 27.4965 49.0664 25.8703 47.2364 24.5301C39.3718 19.1224 29.5159 17.4792 20.3231 20.0442C20.1315 20.0951 20.0102 20.2843 20.0442 20.4796C20.5317 23.5393 24.5651 47.3929 50.0876 49.6179C50.3313 49.6519 50.5157 49.8581 50.5217 50.1043L50.4344 55.1117H50.4356C50.4817 55.3639 50.3325 55.6101 50.0876 55.6853C36.141 56.698 23.132 63.0818 13.7977 73.4919C4.46334 83.902 -0.471453 97.5272 0.035531 111.502C0.542453 125.476 6.44967 138.708 16.5142 148.416C26.58 158.123 40.0171 163.546 53.9994 163.546C67.9823 163.546 81.4206 158.122 91.4845 148.416C101.55 138.709 107.457 125.477 107.964 111.502C108.471 97.5284 103.538 83.9032 94.2023 73.4919C84.8667 63.0818 71.8575 56.6977 57.9124 55.6853L57.8416 55.6841ZM67.8733 15.175C73.5246 9.85963 81.012 6.93198 88.7701 7.0037C89.0175 6.99278 89.2298 7.17591 89.2577 7.42089C90.6111 15.9015 88.3893 24.563 83.1198 31.3448C77.4865 38.2985 68.6374 42.3503 58.0839 42.9579C57.965 42.9676 57.8462 42.9264 57.7601 42.8427C57.6727 42.7602 57.6267 42.6438 57.6327 42.5238C57.9796 30.788 61.5098 21.3652 67.873 15.1581L67.8733 15.175ZM49.5656 42.5758C40.4387 41.0805 31.5017 36.1433 28.2335 26.0244H28.2323C28.1947 25.9129 28.2104 25.7904 28.2747 25.691C28.339 25.5927 28.4457 25.5297 28.5634 25.52C33.7502 25.1877 38.88 26.7582 42.9936 29.9357C46.7688 32.9287 49.3264 37.1927 50.1914 41.9322C50.229 42.1093 50.1768 42.2924 50.0507 42.4221C49.9246 42.5507 49.7427 42.6089 49.5656 42.5762L49.5656 42.5758ZM53.5641 156.521C41.045 156.526 29.0363 151.555 20.1832 142.703C11.3301 133.85 6.35805 121.843 6.36146 109.323C6.36389 96.8035 11.3422 84.7986 20.2 75.951C29.0565 67.1029 41.0677 62.138 53.587 62.1488C66.1061 62.1598 78.1086 67.1454 86.9493 76.0082C95.7912 84.8709 100.749 96.8843 100.731 109.405C100.712 121.904 95.7344 133.885 86.8925 142.717C78.0493 151.551 66.0623 156.514 53.5613 156.519L53.5641 156.521Z" fill="#E74237"/>
<path d="M53.5656 67.3672C42.4095 67.3623 31.7085 71.79 23.8184 79.6764C15.9271 87.5627 11.4934 98.2616 11.4921 109.418C11.4909 120.574 15.9212 131.273 23.81 139.161C31.6988 147.05 42.3977 151.482 53.5538 151.479C64.7099 151.478 75.4088 147.044 83.2951 139.153C91.1815 131.263 95.6093 120.562 95.6043 109.406C95.6007 98.2584 91.1693 87.568 83.2864 79.6854C75.4035 71.8028 64.7133 67.3725 53.5659 67.3675L53.5656 67.3672ZM64.2582 119.003C63.5949 120.195 62.6513 121.209 61.5113 121.959C60.2076 122.724 58.7851 123.264 57.303 123.558C57.0108 123.586 56.7209 123.632 56.4335 123.696V125.922C56.4335 126.652 56.7816 128.252 54.1038 128.252H52.3647C50.6256 128.252 49.8265 127.661 49.8265 126.218L49.8277 124.028C49.8277 124.028 48.0886 123.854 46.7327 123.593V123.592C45.811 123.46 44.9342 123.108 44.1775 122.567C42.8556 121.716 43.4996 115.178 45.429 116.344V116.342C46.13 116.824 46.8746 117.237 47.6544 117.577C49.1267 118.109 50.679 118.385 52.2433 118.394C53.0389 118.403 53.832 118.322 54.6082 118.151C55.2267 118.032 55.8173 117.795 56.3473 117.456C56.7681 117.217 57.1162 116.869 57.3551 116.447C57.5855 116.057 57.7055 115.612 57.7031 115.16C57.7177 114.538 57.5285 113.927 57.1647 113.422C56.7548 112.893 56.2612 112.435 55.7033 112.066C55.0218 111.633 54.3074 111.255 53.5653 110.936C52.7309 110.554 51.8262 110.171 50.8354 109.754C48.6876 108.969 46.7689 107.66 45.2542 105.945C44.0002 104.415 43.3393 102.483 43.3938 100.504C43.3478 99.0183 43.6837 97.5461 44.3677 96.228C45.0153 95.0456 45.9321 94.0329 47.0454 93.2713C47.8592 92.6262 48.7614 92.0998 49.7231 91.7069C49.9669 91.7069 49.9487 91.4813 49.9487 91.411V88.7163C49.9487 88.2639 50.3829 87.6563 51.3227 87.6563H55.2352C56.0174 87.6563 56.5049 88.0565 56.5049 88.6119V90.8543L56.5037 90.8555C56.5037 91.0023 56.6177 91.1248 56.7644 91.1332C57.4593 91.1332 59.39 91.2727 60.2413 91.411C61.4237 91.548 62.588 91.8039 63.7182 92.1762C64.1414 92.3557 64.4252 92.7607 64.4482 93.2192V97.1145C64.3815 97.4941 64.1475 97.824 63.8103 98.0131C63.4732 98.2023 63.0694 98.229 62.7104 98.0883H62.3793C61.739 97.7936 61.0768 97.5487 60.3977 97.357C59.7392 97.1897 59.0722 97.0623 58.3979 96.975C57.7721 96.8756 57.1378 96.8234 56.5036 96.8186C55.7492 96.8137 54.9961 96.895 54.26 97.0623C53.6439 97.1703 53.0545 97.3946 52.5221 97.7221C52.0928 97.9743 51.7241 98.3187 51.444 98.7311C51.1929 99.1252 51.0656 99.5848 51.0789 100.052C51.0729 100.564 51.2172 101.066 51.4961 101.495C51.8138 101.97 52.2213 102.378 52.6955 102.696C53.291 103.125 53.9252 103.497 54.5911 103.808C55.3211 104.156 56.1737 104.555 57.1123 104.938C58.3142 105.427 59.476 106.007 60.5892 106.676C61.5546 107.22 62.4338 107.907 63.1966 108.711C63.9473 109.447 64.5391 110.327 64.9357 111.301C65.3626 112.408 65.5639 113.591 65.5263 114.778C65.4583 116.27 65.0218 117.72 64.2578 119.003L64.2582 119.003Z" fill="#E74237"/>
</svg>
