<svg width="204" height="101" viewBox="0 0 204 101" fill="none" xmlns="http://www.w3.org/2000/svg">
<path d="M203.32 37.0356C199.962 37.7073 179.359 39.9471 163.462 37.7073L155.4 75.9989C155.4 76.2223 154.952 78.0139 154.505 78.6856C153.834 79.3572 143.757 88.9868 134.353 95.7033C137.936 96.5983 141.294 97.4949 145.549 98.1665C167.27 101.525 180.929 101.525 195.036 97.7183L180.479 66.5929L203.32 37.0356Z" fill="#E74237"/>
<path d="M133.009 76.4465L129.203 92.569C135.024 88.5391 141.967 82.7159 146.669 78.2379C143.757 77.7896 138.831 77.1179 133.009 76.4463L133.009 76.4465Z" fill="#E74237"/>
<path d="M47.0243 75.775L38.5148 38.3799C22.8406 40.3948 3.13492 38.3799 0 37.4849L22.8406 67.0419L8.06123 98.1672C22.1688 101.75 36.0516 101.974 57.5482 98.6155C61.8032 97.9439 65.3864 97.0473 68.7444 96.1523C59.3396 89.4342 49.2635 79.5816 48.5921 79.1345C48.5906 78.6862 47.0239 76.6713 47.0239 75.7748L47.0243 75.775Z" fill="#E74237"/>
<path d="M55.5348 78.0135C60.238 82.4916 67.6258 88.7615 73.8973 93.0164L69.8659 76.2222C63.8196 76.8938 58.6697 77.5655 55.5348 78.0138V78.0135Z" fill="#E74237"/>
<path d="M133.906 72.4158C139.056 73.0875 145.326 73.5358 150.477 74.8791C150.7 74.6557 150.925 74.4308 151.148 74.4308C155.626 53.3816 160.105 32.3332 164.585 11.0605C130.101 -3.04703 72.7761 -4.39058 36.0527 11.2839C40.979 32.333 45.6806 53.6053 50.6069 74.6541H51.0552C76.5809 67.2647 109.499 69.7278 133.907 72.4158H133.906ZM101.661 52.4867L84.4182 60.7714L86.8815 41.7371L73.6704 27.8543L92.4796 24.2712L101.661 7.47695L110.842 24.2712L129.651 27.8543L116.44 41.7371L118.903 60.7714L101.661 52.4867Z" fill="#E74237"/>
</svg>
