<svg width="139" height="150" viewBox="0 0 139 150" fill="none" xmlns="http://www.w3.org/2000/svg">
<path d="M69.5006 0.000930296C50.0083 0.000930296 33.5187 12.8334 28.0176 30.5165C11.9541 34.3378 0 48.7932 0 66.0268C0 83.7922 12.7235 98.5524 29.5373 101.807V128.575H109.463V101.807C126.276 98.5517 139 83.791 139 66.0268C139 48.7936 127.048 34.339 110.982 30.5165C105.482 12.8324 88.992 0 69.4994 0L69.5006 0.000930296ZM69.5006 26.0635C71.4204 26.0635 72.9753 27.6197 72.9753 29.5382V109.464C72.9753 111.383 71.4191 112.938 69.5006 112.938C67.5808 112.938 66.0259 111.382 66.0259 109.464V29.5382C66.0259 27.6185 67.5821 26.0635 69.5006 26.0635ZM48.6508 46.9133C50.5706 46.9133 52.1255 48.4695 52.1255 50.388V109.463C52.1255 111.383 50.5694 112.938 48.6508 112.938C46.731 112.938 45.1761 111.382 45.1761 109.463V50.388C45.1761 48.4682 46.7323 46.9133 48.6508 46.9133ZM90.351 46.9133C92.2708 46.9133 93.8257 48.4695 93.8257 50.388V109.463C93.8257 111.383 92.2695 112.938 90.351 112.938C88.4312 112.938 86.8763 111.382 86.8763 109.463V50.388C86.8763 48.4682 88.4325 46.9133 90.351 46.9133ZM29.5383 135.526V149.427H109.464V135.526H29.5383Z" fill="#E74237"/>
</svg>
