<svg width="74" height="110" viewBox="0 0 74 110" fill="none" xmlns="http://www.w3.org/2000/svg">
<path fill-rule="evenodd" clip-rule="evenodd" d="M73.7404 28.714C73.7404 24.3361 70.1871 20.7811 65.8092 20.7811H54.6304C50.2525 20.7811 46.6992 24.3361 46.6992 28.714V81.2847C46.6992 85.6626 50.2525 89.2176 54.6304 89.2176H65.8092C70.1871 89.2176 73.7404 85.6626 73.7404 81.2847V28.714ZM69.0529 28.714V81.2847C69.0529 83.0768 67.5998 84.5301 65.8092 84.5301H54.6304C52.8399 84.5301 51.3867 83.0769 51.3867 81.2847V28.714C51.3867 26.9219 52.8398 25.4686 54.6304 25.4686H65.8092C67.5997 25.4686 69.0529 26.9217 69.0529 28.714Z" fill="#C2C2C2"/>
<path fill-rule="evenodd" clip-rule="evenodd" d="M56.9838 7.37672C57.147 5.91606 58.5759 4.84386 60.2215 4.84386C61.8529 4.84386 63.2701 5.89604 63.4467 7.3525C62.1007 12.5967 62.2689 18.5296 65.2463 24.3816C65.8314 25.535 67.2435 25.9963 68.3961 25.4095C69.5496 24.8227 70.0108 23.4106 69.424 22.258C67.0049 17.5028 66.8987 12.6788 68.0102 8.42991C68.1149 8.0365 68.1601 7.61211 68.1375 7.18855V7.16428C67.8579 3.29449 64.4603 0.157349 60.2215 0.157349C55.9785 0.157349 52.5775 3.29963 52.2979 7.15271V7.16945C52.2694 7.62313 52.3146 8.06006 52.4293 8.48362C53.5451 12.7083 53.4304 17.517 51.0197 22.2573C50.4346 23.4107 50.8942 24.822 52.0476 25.4088C53.2011 25.9955 54.6124 25.5343 55.1991 24.3809C58.1732 18.5349 58.3457 12.6061 56.9837 7.37621L56.9838 7.37672Z" fill="#C2C2C2"/>
<path fill-rule="evenodd" clip-rule="evenodd" d="M63.447 102.652C63.2729 104.1 61.8532 105.155 60.22 105.155C58.5777 105.155 57.1523 104.088 56.9839 102.616C58.3433 97.3875 58.1692 91.4618 55.1968 85.6176C54.61 84.4642 53.1979 84.0029 52.0453 84.5897C50.8918 85.1765 50.4331 86.5886 51.0174 87.7412C53.429 92.4814 53.5427 97.2902 52.4253 101.522C52.3131 101.938 52.2679 102.375 52.2939 102.812L52.2956 102.829C52.5751 106.699 55.9761 109.842 60.2192 109.842C64.4588 109.842 67.8566 106.705 68.1336 102.859L68.1353 102.835C68.1579 102.387 68.1127 101.963 68.0039 101.554C66.8956 97.3204 67.0028 92.4964 69.421 87.7412C70.0078 86.5877 69.5466 85.1764 68.3931 84.5897C67.2397 84.0029 65.8283 84.4641 65.2433 85.6176C62.2643 91.4736 62.0953 97.4134 63.4453 102.652L63.447 102.652Z" fill="#C2C2C2"/>
<path fill-rule="evenodd" clip-rule="evenodd" d="M15.7343 109.842C15.7343 109.842 16.8626 109.786 18.5393 109.704C22.6064 109.509 26.3388 107.404 28.6116 104.027C30.8841 100.65 31.4275 96.3971 30.0781 92.5576C25.0942 78.3729 17.9266 57.974 17.9266 57.974C17.4972 56.7536 16.1587 56.1099 14.9375 56.5393C13.7171 56.967 13.0759 58.3071 13.5028 59.526C13.5028 59.526 20.673 79.9275 25.6569 94.1096C26.5157 96.5546 26.1692 99.2599 24.7227 101.409C23.2771 103.557 20.8999 104.898 18.3143 105.021C16.6377 105.102 15.5076 105.156 15.5076 105.156C14.216 105.22 13.2181 106.319 13.2801 107.61C13.342 108.902 14.4427 109.901 15.7343 109.839L15.7343 109.842Z" fill="#C2C2C2"/>
<path fill-rule="evenodd" clip-rule="evenodd" d="M17.4966 108.904C17.4966 108.904 18.8351 107.115 20.3469 105.098C23.4197 100.989 24.6559 95.7955 23.7613 90.7448C21.7641 79.4631 18.0242 58.3405 18.0242 58.3405C17.7974 57.0674 16.5803 56.2161 15.3071 56.4413C14.0322 56.6664 13.1826 57.8852 13.4078 59.1584L19.1449 91.5627C19.8145 95.3369 18.8896 99.22 16.5927 102.29C15.0835 104.307 13.7442 106.096 13.7442 106.096C12.9699 107.13 13.18 108.601 14.2163 109.377C15.2509 110.151 16.7215 109.939 17.496 108.905L17.4966 108.904Z" fill="#C2C2C2"/>
<path fill-rule="evenodd" clip-rule="evenodd" d="M15.6524 105.158L12.8474 105.023C10.2601 104.899 7.88195 103.559 6.43638 101.41C4.99079 99.2618 4.64425 96.5564 5.50222 94.1114C10.4861 79.9291 17.6563 59.5279 17.6563 59.5279C18.0857 58.3091 17.4428 56.9682 16.2216 56.5411C15.0012 56.1117 13.6619 56.7546 13.2325 57.9758C13.2325 57.9758 6.06402 78.3756 1.08102 92.5594C-0.269155 96.3998 0.274936 100.652 2.54754 104.029C4.82004 107.405 8.55505 109.511 12.6198 109.706C14.2964 109.787 15.4248 109.844 15.4248 109.844C16.7164 109.906 17.8171 108.906 17.879 107.615C17.941 106.323 16.9432 105.224 15.6515 105.16L15.6524 105.158Z" fill="#C2C2C2"/>
<path fill-rule="evenodd" clip-rule="evenodd" d="M17.4135 106.097C17.4135 106.097 16.0767 104.308 14.565 102.291C12.2681 99.2212 11.3441 95.3381 12.0128 91.5637L17.7499 59.1594C17.9768 57.8862 17.1255 56.6675 15.8506 56.4422C14.5775 56.2171 13.3604 57.0684 13.1352 58.3415C13.1352 58.3415 9.39442 79.4637 7.39557 90.7458C6.50159 95.7974 7.73709 100.991 10.81 105.099C12.3209 107.116 13.6602 108.905 13.6602 108.905C14.4345 109.939 15.9044 110.152 16.9414 109.377C17.9759 108.601 18.1886 107.13 17.4118 106.096L17.4135 106.097Z" fill="#C2C2C2"/>
<path fill-rule="evenodd" clip-rule="evenodd" d="M22.5919 4.85456C22.5919 2.26127 20.4859 0.156128 17.8935 0.156128H13.185C10.5917 0.156128 8.48828 2.26215 8.48828 4.85456V35.7696C8.48828 38.3628 10.5918 40.468 13.185 40.468H17.8935C20.4868 40.468 22.5919 38.362 22.5919 35.7696V4.85456ZM17.9044 4.85456V35.7696C17.9044 35.7771 17.8986 35.7804 17.8935 35.7804H13.185C13.1792 35.7804 13.1758 35.7771 13.1758 35.7696V4.85456C13.1758 4.84702 13.1792 4.84367 13.185 4.84367H17.8935C17.8994 4.84367 17.9044 4.84702 17.9044 4.85456Z" fill="#C2C2C2"/>
<path fill-rule="evenodd" clip-rule="evenodd" d="M17.883 64.375V41.875C17.883 40.5809 16.8308 39.5311 15.5392 39.5311C14.2451 39.5311 13.1953 40.5808 13.1953 41.875V64.375C13.1953 65.6691 14.245 66.7188 15.5392 66.7188C16.8307 66.7188 17.883 65.6692 17.883 64.375Z" fill="#C2C2C2"/>
<path fill-rule="evenodd" clip-rule="evenodd" d="M12.4982 47.9688H18.6614C19.9555 47.9688 21.0053 46.9192 21.0053 45.625C21.0053 44.3308 19.9556 43.2811 18.6614 43.2811H12.4982C11.2041 43.2811 10.1543 44.3308 10.1543 45.625C10.1543 46.9192 11.204 47.9688 12.4982 47.9688Z" fill="#C2C2C2"/>
</svg>
