<svg width="67" height="129" viewBox="0 0 67 129" fill="none" xmlns="http://www.w3.org/2000/svg">
<path d="M48.587 54.3739C50.3812 57.0876 50.8289 59.3632 50.8289 62.8546C50.8289 72.3744 43.0705 80.0894 33.5013 80.0894C23.9314 80.0894 16.1736 72.3743 16.1736 62.8546C16.1736 59.3641 17.2174 56.1146 19.0105 53.4008L48.587 54.3739ZM33.4977 103.021V85.5893V103.021ZM21.5837 88.5988L12.987 85.5537C6.85098 91.1032 3 99.105 3 108.002C3 109.284 3.07872 110.547 3.23411 111.787L33.5821 126L63.7659 111.787C63.9213 110.546 64 109.285 64 108.002C64 99.1018 60.1459 91.097 54.0059 85.5479L45.4451 89.138L21.5837 88.5988ZM46.0676 88.9428C32.6528 81.3954 20.924 88.9458 20.924 88.9458L33.3951 104.781L46.0676 88.9428ZM33.5719 119.01V119.894V119.01ZM33.5719 114.903V109.652V114.903ZM29.7351 52.3827V39.5616V52.3827ZM36.7768 52.3827V43.0622V52.3827ZM44.9901 52.3827V43.0622V52.3827ZM16.694 53.4025V29.3023L13.5811 27.2545C9.84969 24.9384 7.36743 20.8164 7.36743 16.1181C7.36743 8.87272 13.2733 3 20.5563 3C27.8413 3 32.7147 8.87374 32.7147 16.1181H33.2544C33.2544 8.87272 39.1624 3 46.4463 3C53.7334 3 59.6362 8.87374 59.6362 16.1181C59.6362 20.0153 57.9269 23.5159 55.2126 25.9195L51.5292 29.4802V53.401H16.6936L16.694 53.4025Z" stroke="#C2C2C2" stroke-width="4.5" stroke-miterlimit="10" stroke-linecap="round" stroke-linejoin="round"/>
</svg>
