<svg width="74" height="110" viewBox="0 0 74 110" fill="none" xmlns="http://www.w3.org/2000/svg">
<path fill-rule="evenodd" clip-rule="evenodd" d="M73.7401 28.714C73.7401 24.3361 70.1868 20.7811 65.809 20.7811H54.6301C50.2523 20.7811 46.699 24.3361 46.699 28.714V81.2847C46.699 85.6626 50.2523 89.2176 54.6301 89.2176H65.809C70.1868 89.2176 73.7401 85.6626 73.7401 81.2847V28.714ZM69.0526 28.714V81.2847C69.0526 83.0768 67.5995 84.5301 65.809 84.5301H54.6301C52.8397 84.5301 51.3865 83.077 51.3865 81.2847V28.714C51.3865 26.9219 52.8396 25.4686 54.6301 25.4686H65.809C67.5994 25.4686 69.0526 26.9217 69.0526 28.714Z" fill="#E74237"/>
<path fill-rule="evenodd" clip-rule="evenodd" d="M56.9836 7.37672C57.1468 5.91606 58.5756 4.84386 60.2212 4.84386C61.8526 4.84386 63.2699 5.89604 63.4464 7.3525C62.1005 12.5967 62.2687 18.5296 65.2461 24.3816C65.8312 25.535 67.2433 25.9963 68.3959 25.4095C69.5493 24.8227 70.0106 23.4106 69.4238 22.258C67.0047 17.5028 66.8984 12.6788 68.01 8.42991C68.1146 8.0365 68.1598 7.61211 68.1372 7.18855V7.16428C67.8576 3.29449 64.4601 0.157349 60.2213 0.157349C55.9782 0.157349 52.5773 3.29963 52.2976 7.15271V7.16945C52.2692 7.62313 52.3144 8.06006 52.4291 8.48362C53.5448 12.7083 53.4302 17.517 51.0195 22.2573C50.4344 23.4107 50.8939 24.822 52.0474 25.4088C53.2008 25.9955 54.6122 25.5343 55.1989 24.3809C58.173 18.5349 58.3454 12.6061 56.9835 7.37621L56.9836 7.37672Z" fill="#E74237"/>
<path fill-rule="evenodd" clip-rule="evenodd" d="M63.4467 102.652C63.2726 104.1 61.853 105.155 60.2198 105.155C58.5775 105.155 57.1521 104.088 56.9836 102.616C58.343 97.3875 58.1689 91.4618 55.1965 85.6176C54.6098 84.4642 53.1977 84.0029 52.045 84.5897C50.8916 85.1765 50.4329 86.5886 51.0171 87.7412C53.4287 92.4814 53.5425 97.2902 52.4251 101.522C52.3129 101.938 52.2677 102.375 52.2936 102.812L52.2953 102.829C52.5749 106.699 55.9759 109.842 60.219 109.842C64.4586 109.842 67.8563 106.705 68.1334 102.859L68.1351 102.835C68.1577 102.387 68.1125 101.963 68.0036 101.554C66.8954 97.3204 67.0025 92.4964 69.4208 87.7412C70.0076 86.5877 69.5463 85.1764 68.3929 84.5897C67.2394 84.0029 65.8281 84.4641 65.2431 85.6176C62.2641 91.4736 62.095 97.4134 63.4451 102.652L63.4467 102.652Z" fill="#E74237"/>
<path fill-rule="evenodd" clip-rule="evenodd" d="M15.734 109.842C15.734 109.842 16.8624 109.786 18.539 109.704C22.6062 109.509 26.3386 107.404 28.6113 104.027C30.8838 100.65 31.4272 96.3971 30.0778 92.5576C25.094 78.3729 17.9263 57.974 17.9263 57.974C17.4969 56.7536 16.1585 56.1099 14.9373 56.5393C13.7168 56.967 13.0757 58.3071 13.5026 59.526C13.5026 59.526 20.6728 79.9275 25.6566 94.1096C26.5155 96.5546 26.1689 99.2599 24.7225 101.409C23.2769 103.557 20.8996 104.898 18.314 105.021C16.6374 105.102 15.5073 105.156 15.5073 105.156C14.2158 105.22 13.2179 106.319 13.2798 107.61C13.3418 108.902 14.4425 109.901 15.734 109.839L15.734 109.842Z" fill="#E74237"/>
<path fill-rule="evenodd" clip-rule="evenodd" d="M17.4964 108.904C17.4964 108.904 18.8348 107.115 20.3466 105.098C23.4195 100.989 24.6557 95.7955 23.761 90.7448C21.7638 79.4631 18.024 58.3405 18.024 58.3405C17.7971 57.0674 16.58 56.2161 15.3068 56.4413C14.032 56.6664 13.1824 57.8852 13.4075 59.1584L19.1446 91.5627C19.8143 95.3369 18.8893 99.22 16.5925 102.29C15.0833 104.307 13.744 106.096 13.744 106.096C12.9697 107.13 13.1798 108.601 14.2161 109.377C15.2507 110.151 16.7213 109.939 17.4957 108.905L17.4964 108.904Z" fill="#E74237"/>
<path fill-rule="evenodd" clip-rule="evenodd" d="M15.6521 105.158L12.8471 105.023C10.2599 104.899 7.88171 103.559 6.43614 101.41C4.99054 99.2618 4.644 96.5564 5.50198 94.1114C10.4858 79.9291 17.6561 59.5279 17.6561 59.5279C18.0855 58.3091 17.4426 56.9682 16.2213 56.5411C15.0009 56.1117 13.6617 56.7546 13.2323 57.9758C13.2323 57.9758 6.06377 78.3756 1.08077 92.5594C-0.2694 96.3998 0.274692 100.652 2.5473 104.029C4.8198 107.405 8.5548 109.511 12.6196 109.706C14.2962 109.787 15.4246 109.844 15.4246 109.844C16.7162 109.906 17.8169 108.906 17.8788 107.615C17.9407 106.323 16.943 105.224 15.6513 105.16L15.6521 105.158Z" fill="#E74237"/>
<path fill-rule="evenodd" clip-rule="evenodd" d="M17.4132 106.097C17.4132 106.097 16.0765 104.308 14.5647 102.291C12.2678 99.2212 11.3438 95.3381 12.0126 91.5637L17.7497 59.1594C17.9765 57.8862 17.1252 56.6675 15.8504 56.4422C14.5772 56.2171 13.3602 57.0684 13.135 58.3415C13.135 58.3415 9.39418 79.4637 7.39532 90.7458C6.50134 95.7974 7.73685 100.991 10.8097 105.099C12.3206 107.116 13.66 108.905 13.66 108.905C14.4342 109.939 15.9042 110.152 16.9411 109.377C17.9757 108.601 18.1883 107.13 17.4115 106.096L17.4132 106.097Z" fill="#E74237"/>
<path fill-rule="evenodd" clip-rule="evenodd" d="M22.5917 4.85456C22.5917 2.26127 20.4857 0.156128 17.8933 0.156128H13.1848C10.5915 0.156128 8.48804 2.26215 8.48804 4.85456V35.7696C8.48804 38.3628 10.5916 40.468 13.1848 40.468H17.8933C20.4865 40.468 22.5917 38.362 22.5917 35.7696V4.85456ZM17.9042 4.85456V35.7696C17.9042 35.7771 17.8983 35.7804 17.8933 35.7804H13.1848C13.1789 35.7804 13.1756 35.7771 13.1756 35.7696V4.85456C13.1756 4.84702 13.1789 4.84367 13.1848 4.84367H17.8933C17.8992 4.84367 17.9042 4.84702 17.9042 4.85456Z" fill="#E74237"/>
<path fill-rule="evenodd" clip-rule="evenodd" d="M17.8828 64.375V41.875C17.8828 40.5809 16.8306 39.5311 15.5389 39.5311C14.2448 39.5311 13.1951 40.5808 13.1951 41.875V64.375C13.1951 65.6691 14.2447 66.7188 15.5389 66.7188C16.8305 66.7188 17.8828 65.6692 17.8828 64.375Z" fill="#E74237"/>
<path fill-rule="evenodd" clip-rule="evenodd" d="M12.4979 47.9688H18.6612C19.9553 47.9688 21.0051 46.9192 21.0051 45.625C21.0051 44.3308 19.9554 43.2811 18.6612 43.2811H12.4979C11.2038 43.2811 10.1541 44.3308 10.1541 45.625C10.1541 46.9192 11.2037 47.9688 12.4979 47.9688Z" fill="#E74237"/>
</svg>
