<svg width="86" height="116" viewBox="0 0 86 116" fill="none" xmlns="http://www.w3.org/2000/svg">
<path d="M43.0005 82.9297C38.6745 82.9297 34.5212 83.2695 30.6137 83.8982C29.8646 83.9392 29.133 84.0605 28.4274 84.2824C11.8721 87.4808 0.306641 96.0295 0.306641 106.332C0.306641 109.769 1.6158 112.283 4.19721 113.802C6.19275 114.976 8.94578 115.523 12.8599 115.523C16.2216 115.523 20.1079 115.144 24.6079 114.704C30.1341 114.165 36.3979 113.555 43.0005 113.555C49.6031 113.555 55.8669 114.166 61.3914 114.704C65.8914 115.142 69.777 115.523 73.1394 115.523C76.5714 115.523 85.6926 115.523 85.6926 106.333C85.6918 93.2106 66.9392 82.9309 43.0005 82.9309V82.9297ZM73.1398 110.723C70.0117 110.723 66.2325 110.353 61.8587 109.927C56.2245 109.377 49.8369 108.755 43.0007 108.755C36.1646 108.755 29.7778 109.377 24.1427 109.927C19.7674 110.353 15.9898 110.723 12.8616 110.723C9.88093 110.723 7.84178 110.377 6.63407 109.665C5.88073 109.222 5.10896 108.479 5.10896 106.333C5.10896 100.213 11.505 94.6754 21.1193 91.2619C19.58 94.354 18.6651 98.2052 18.6651 102.442C18.6651 103.767 19.7407 104.842 21.0649 104.842C22.3899 104.842 23.4647 103.767 23.4647 102.442C23.4647 95.9997 26.0655 90.4292 29.4321 89.017C33.4182 88.2394 37.7097 87.7907 42.1637 87.7405C40.508 90.6158 39.5119 94.6379 39.5119 99.2258C39.5119 100.551 40.5875 101.626 41.9117 101.626C43.2367 101.626 44.3115 100.55 44.3115 99.2258C44.3115 92.4983 46.9465 88.0227 48.7193 87.9516C53.3967 88.3165 57.8181 89.1243 61.804 90.2744C59.2185 92.9764 57.5569 97.3727 57.5569 102.443C57.5569 103.768 58.6325 104.842 59.9567 104.842C61.2817 104.842 62.3565 103.767 62.3565 102.443C62.3565 96.7491 64.9864 92.6952 67.5042 92.2782C75.6405 95.7209 80.8913 100.788 80.8913 106.332C80.893 108.733 80.3096 110.723 73.1393 110.723L73.1398 110.723Z" fill="#E74237"/>
<path d="M17.8113 42.2093V66.775C17.8113 71.7905 21.4616 79.0745 27.1828 79.0745H58.82C64.5412 79.0745 68.1933 71.7905 68.1933 66.775L68.1941 42.0421C73.4407 39.0455 76.7537 33.4298 76.7537 27.3267C76.7537 17.9802 69.1492 10.3763 59.8033 10.3763C59.5647 10.3763 59.3212 10.3821 59.0717 10.3955C56.04 4.39466 49.7996 0.475586 43.002 0.475586C36.2436 0.475586 30.1742 4.19451 27.0804 10.0874C26.8845 10.0798 26.692 10.0757 26.5019 10.0757C16.9904 10.0757 9.25195 17.8141 9.25195 27.3257C9.25195 33.4547 12.565 39.139 17.8116 42.2084L17.8113 42.2093ZM58.8213 74.275H27.1841C25.4623 74.275 23.7221 71.7588 22.983 69.1748H63.0245C62.2845 71.7595 60.5443 74.275 58.8225 74.275H58.8213ZM26.5027 14.875C27.0083 14.875 27.5523 14.9185 28.2178 15.0097C29.3085 15.1612 30.3573 14.5502 30.7691 13.5323C32.7981 8.51678 37.6003 5.27656 43.0018 5.27656C48.4459 5.27656 53.403 8.70771 55.3365 13.8137C55.7375 14.8734 56.8173 15.5079 57.9457 15.3363C58.6521 15.2275 59.2431 15.1764 59.8022 15.1764C66.5021 15.1764 71.952 20.6266 71.952 27.3262C71.952 32.0782 69.1453 36.4224 64.8028 38.3887C63.944 38.7771 63.3932 39.6334 63.3932 40.5751V64.3758H22.6125V40.7615C22.6125 39.8307 22.0751 38.9844 21.2314 38.5884C16.8702 36.5427 14.0528 32.1213 14.0528 27.3243C14.0528 20.4597 19.6375 14.8739 26.5032 14.8739L26.5027 14.875Z" fill="#E74237"/>
<path d="M33.7006 56.8754C35.0256 56.8754 36.1004 55.7998 36.1004 54.4756V40.3754C36.1004 39.0503 35.0247 37.9756 33.7006 37.9756C32.3755 37.9756 31.3008 39.0512 31.3008 40.3754V54.4756C31.2999 55.8015 32.3756 56.8754 33.7006 56.8754Z" fill="#E74237"/>
<path d="M43.0013 61.5248C44.3264 61.5248 45.4011 60.4492 45.4011 59.125V35.725C45.4011 34.3999 44.3255 33.3252 43.0013 33.3252C41.6763 33.3252 40.6016 34.4008 40.6016 35.725V59.125C40.6016 60.4509 41.6763 61.5248 43.0013 61.5248Z" fill="#E74237"/>
<path d="M52.3002 56.8754C53.6252 56.8754 54.7 55.7998 54.7 54.4756V40.3754C54.7 39.0503 53.6244 37.9756 52.3002 37.9756C50.9751 37.9756 49.9004 39.0512 49.9004 40.3754V54.4756C49.9004 55.8015 50.976 56.8754 52.3002 56.8754Z" fill="#E74237"/>
</svg>
