<svg width="35" height="35" viewBox="0 0 35 35" fill="none" xmlns="http://www.w3.org/2000/svg">
<circle cx="17.5" cy="17.5" r="17.5" fill="black"/>
<path fill-rule="evenodd" clip-rule="evenodd" d="M13.7667 10.4347C13.7107 10.4259 13.6537 10.4245 13.5973 10.4307C12.476 10.552 10.7693 11.1574 9.76134 11.704C9.69477 11.7403 9.63517 11.7882 9.58534 11.8454C9.16668 12.324 8.78668 13.104 8.48934 13.8427C8.18268 14.6 7.92934 15.4 7.78668 15.9787C7.31468 17.8587 7.05734 20.116 7.02268 22.2574C7.02158 22.3642 7.04724 22.4696 7.09734 22.564C7.49734 23.328 8.36001 24.036 9.22401 24.5534C10.0973 25.0774 11.1173 25.4907 11.9387 25.5707C12.0371 25.5801 12.1363 25.5665 12.2286 25.5312C12.3209 25.4958 12.4038 25.4395 12.4707 25.3667C12.676 25.144 13.0253 24.624 13.2893 24.22C13.4093 24.036 13.5227 23.86 13.6107 23.72C14.4933 23.88 15.6 23.9734 17 23.9734C18.3973 23.9734 19.504 23.88 20.3867 23.72C20.4747 23.8614 20.5867 24.036 20.7067 24.2187C20.9707 24.624 21.32 25.144 21.5267 25.3667C21.5936 25.4395 21.6764 25.4958 21.7687 25.5312C21.861 25.5665 21.9603 25.5801 22.0587 25.5707C22.88 25.4907 23.8987 25.0774 24.772 24.5534C25.636 24.036 26.4987 23.328 26.9 22.564C26.9496 22.4695 26.9749 22.3641 26.9733 22.2574C26.94 20.116 26.6813 17.8574 26.212 15.9774C26.0234 15.2513 25.7878 14.5382 25.5067 13.8427C25.2093 13.104 24.8293 12.3227 24.412 11.8454C24.3618 11.7881 24.3017 11.7402 24.2347 11.704C23.228 11.1574 21.5213 10.552 20.3987 10.4307C20.3427 10.4246 20.2863 10.426 20.2307 10.4347C19.9794 10.483 19.7437 10.592 19.544 10.752C19.0968 11.1121 18.7351 11.567 18.4853 12.084C17.9912 12.0453 17.4957 12.0261 17 12.0267C16.464 12.0267 15.968 12.0467 15.5107 12.0827C15.2607 11.5662 14.8991 11.1117 14.452 10.752C14.2527 10.5922 14.0175 10.4833 13.7667 10.4347ZM21.6907 23.384C21.8783 23.673 22.0708 23.9588 22.268 24.2414C22.796 24.1214 23.4693 23.8414 24.1147 23.4547C24.8387 23.0214 25.4133 22.5214 25.6907 22.0987C25.6467 20.0907 25.3987 18.0054 24.9707 16.288C24.7963 15.6191 24.579 14.9622 24.32 14.3214C24.0533 13.6574 23.7667 13.0947 23.5173 12.772C22.6507 12.3227 21.284 11.848 20.3933 11.7187C20.3666 11.7349 20.3407 11.7527 20.316 11.772C20.2055 11.8589 20.1045 11.9573 20.0147 12.0654C19.9621 12.1279 19.9119 12.1924 19.864 12.2587C20.2707 12.3334 20.6333 12.4227 20.9547 12.5214C21.8667 12.8014 22.524 13.188 22.8453 13.616C22.9472 13.7518 22.9909 13.9225 22.9669 14.0905C22.9429 14.2586 22.8531 14.4102 22.7173 14.512C22.6501 14.5624 22.5736 14.5991 22.4922 14.62C22.4108 14.6409 22.326 14.6455 22.2428 14.6336C22.0748 14.6096 21.9232 14.5198 21.8213 14.384C21.7427 14.28 21.4 13.9974 20.5787 13.744C19.7853 13.5014 18.6187 13.3067 17 13.3067C15.3813 13.3067 14.2133 13.5014 13.4213 13.7454C12.6 13.9987 12.2573 14.2787 12.1787 14.384C12.1283 14.4513 12.0651 14.5079 11.9928 14.5507C11.9204 14.5935 11.8404 14.6217 11.7572 14.6336C11.5892 14.6576 11.4185 14.6139 11.2827 14.512C11.2154 14.4616 11.1588 14.3984 11.116 14.3261C11.0732 14.2538 11.045 14.1737 11.0331 14.0905C11.0091 13.9225 11.0528 13.7518 11.1547 13.616C11.476 13.1867 12.1333 12.8027 13.0453 12.5227C13.3653 12.4227 13.728 12.3347 14.1333 12.26C14.0854 12.193 14.0347 12.1281 13.9813 12.0654C13.8919 11.9573 13.7914 11.859 13.6813 11.772C13.6562 11.7527 13.6299 11.7349 13.6027 11.7187C12.7133 11.848 11.3467 12.3227 10.48 12.772C10.2293 13.096 9.94401 13.6574 9.67601 14.3214C9.39201 15.028 9.15601 15.7707 9.02668 16.288C8.59734 18.0054 8.34934 20.0907 8.30668 22.0987C8.58401 22.5227 9.15734 23.0214 9.88134 23.456C10.528 23.8427 11.2 24.1227 11.7293 24.2414C11.9286 23.9602 12.121 23.6743 12.3067 23.384C11.26 23.012 10.6987 22.5014 10.3333 21.9547C10.2868 21.8846 10.2544 21.8061 10.2382 21.7236C10.222 21.6411 10.2222 21.5561 10.2388 21.4737C10.2554 21.3912 10.288 21.3128 10.3349 21.243C10.3818 21.1732 10.442 21.1133 10.512 21.0667C10.5821 21.0201 10.6606 20.9878 10.7431 20.9716C10.8256 20.9553 10.9106 20.9555 10.993 20.9721C11.0755 20.9887 11.1539 21.0214 11.2237 21.0683C11.2935 21.1151 11.3534 21.1753 11.4 21.2454C11.7467 21.768 12.6587 22.6934 17 22.6934C21.3427 22.6934 22.2533 21.768 22.6 21.2454C22.6941 21.1039 22.8405 21.0056 23.007 20.9721C23.1735 20.9386 23.3466 20.9726 23.488 21.0667C23.6295 21.1607 23.7278 21.3071 23.7613 21.4737C23.7948 21.6402 23.7607 21.8132 23.6667 21.9547C23.3013 22.5014 22.7387 23.0134 21.6907 23.384ZM12.44 17.3494C12.7653 17 13.2067 16.8027 13.6667 16.8C14.1267 16.8027 14.568 17 14.8933 17.3494C15.2173 17.7 15.4 18.1734 15.4 18.6667C15.4 19.16 15.2173 19.6334 14.8933 19.984C14.568 20.3334 14.1267 20.5307 13.6667 20.5334C13.4355 20.5309 13.2072 20.4809 12.9962 20.3864C12.7851 20.2919 12.5958 20.1549 12.44 19.984C12.1115 19.6242 11.9306 19.1539 11.9333 18.6667C11.9333 18.1734 12.116 17.7 12.44 17.3494ZM20.3333 16.8C19.8733 16.8027 19.432 17 19.1067 17.3494C18.7827 17.7 18.6 18.1734 18.6 18.6667C18.6 19.16 18.7827 19.6334 19.1067 19.984C19.432 20.3334 19.8733 20.5307 20.3333 20.5334C20.7933 20.5307 21.2347 20.3334 21.56 19.984C21.884 19.6334 22.0667 19.16 22.0667 18.6667C22.0667 18.1734 21.884 17.7 21.56 17.3494C21.4042 17.1785 21.2149 17.0415 21.0039 16.947C20.7928 16.8525 20.5646 16.8025 20.3333 16.8Z" fill="white"/>
</svg>
