<svg width="820" height="437" viewBox="0 0 820 437" fill="none" xmlns="http://www.w3.org/2000/svg">
<path d="M61.8856 -204.185C62.4323 -204.106 62.8119 -203.6 62.7336 -203.053L61.4564 -194.144C61.378 -193.597 60.8713 -193.218 60.3246 -193.296C59.7779 -193.375 59.3983 -193.881 59.4766 -194.428L60.6119 -202.347L52.6928 -203.482C52.1461 -203.561 51.7665 -204.067 51.8449 -204.614C51.9232 -205.161 52.43 -205.54 52.9766 -205.462L61.8856 -204.185ZM282.11 338.894L281.826 339.853L282.11 338.894ZM473.921 109.723L473.715 110.702L473.921 109.723ZM430.233 392.476L429.523 393.18L430.233 392.476ZM317.075 41.3679L316.275 41.9675L317.075 41.3679ZM62.3433 -202.395C60.6577 -201.132 59.0116 -199.878 57.4045 -198.634L56.1803 -200.216C57.7959 -201.467 59.4504 -202.726 61.1441 -203.995L62.3433 -202.395ZM48.2252 -191.282C45.0746 -188.666 42.1027 -186.093 39.3043 -183.562L37.9628 -185.046C40.7835 -187.596 43.7767 -190.188 46.9474 -192.821L48.2252 -191.282ZM30.9194 -175.591C27.9584 -172.62 25.2467 -169.711 22.7748 -166.861L21.264 -168.172C23.7686 -171.059 26.5121 -174.002 29.5029 -177.003L30.9194 -175.591ZM15.5332 -157.752C13.1307 -154.416 11.0743 -151.169 9.3456 -148.006L7.59067 -148.966C9.36294 -152.208 11.4646 -155.525 13.9103 -158.921L15.5332 -157.752ZM4.65266 -137.424C3.33853 -133.515 2.55496 -129.746 2.25892 -126.108L0.265513 -126.271C0.575748 -130.083 1.39532 -134.011 2.75692 -138.061L4.65266 -137.424ZM2.97314 -114.662C3.76219 -110.952 5.09016 -107.369 6.91341 -103.902L5.14325 -102.971C3.24125 -106.588 1.8469 -110.343 1.01687 -114.246L2.97314 -114.662ZM13.404 -94.3357C15.7869 -91.4864 18.5168 -88.7184 21.5635 -86.0255L20.239 -84.5269C17.1275 -87.277 14.3255 -90.1163 11.8698 -93.0527L13.404 -94.3357ZM30.7446 -78.7849C33.8199 -76.6001 37.1027 -74.4677 40.5733 -72.3835L39.5436 -70.6689C36.0345 -72.7763 32.7081 -74.9365 29.5863 -77.1545L30.7446 -78.7849ZM50.8445 -66.6284C54.2468 -64.8428 57.7827 -63.0933 61.4375 -61.3766L60.5873 -59.5663C56.9086 -61.2942 53.3461 -63.0568 49.9151 -64.8575L50.8445 -66.6284ZM72.1926 -56.5578C75.7279 -55.0435 79.3502 -53.5545 83.0482 -52.0883L82.311 -50.2291C78.5978 -51.7013 74.9586 -53.1973 71.4051 -54.7194L72.1926 -56.5578ZM94.0744 -47.8608C97.7355 -46.5014 101.455 -45.1606 105.224 -43.8365L104.561 -41.9496C100.782 -43.2772 97.0514 -44.622 93.3782 -45.9859L94.0744 -47.8608ZM116.341 -40.0208C120.048 -38.7764 123.791 -37.5456 127.561 -36.3263L126.945 -34.4233C123.169 -35.6446 119.419 -36.8778 115.705 -38.1248L116.341 -40.0208ZM138.836 -32.7352C142.575 -31.561 146.332 -30.3962 150.098 -29.2389L149.51 -27.3271C145.741 -28.4854 141.98 -29.6515 138.236 -30.8271L138.836 -32.7352ZM161.406 -25.7912C165.175 -24.6495 168.945 -23.5136 172.709 -22.3816L172.132 -20.4664C168.369 -21.5985 164.597 -22.7348 160.826 -23.8771L161.406 -25.7912ZM184.041 -18.9739C187.833 -17.8328 191.608 -16.6938 195.359 -15.5553L194.778 -13.6415C191.03 -14.7794 187.256 -15.9179 183.465 -17.0588L184.041 -18.9739ZM206.633 -12.1071C210.449 -10.9296 214.228 -9.75052 217.963 -8.56777L217.359 -6.6611C213.63 -7.84212 209.855 -9.01972 206.044 -10.196L206.633 -12.1071ZM229.224 -4.94029C233.004 -3.69993 236.724 -2.45325 240.375 -1.19795L239.725 0.693375C236.084 -0.558484 232.372 -1.80218 228.601 -3.04003L229.224 -4.94029ZM251.587 2.77074C255.39 4.15988 259.099 5.5623 262.697 6.981L261.964 8.84162C258.383 7.42987 254.69 6.03344 250.901 4.64935L251.587 2.77074ZM273.648 11.5039C277.39 13.1286 280.978 14.7779 284.394 16.4562L283.512 18.2512C280.128 16.5886 276.568 14.9524 272.851 13.3385L273.648 11.5039ZM294.864 22.0193C298.495 24.1198 301.849 26.2711 304.89 28.4811L303.715 30.099C300.739 27.9365 297.444 25.8225 293.863 23.7505L294.864 22.0193ZM314.026 36.2846C315.447 37.7497 316.733 39.2436 317.875 40.7683L316.275 41.9675C315.188 40.5175 313.958 39.0877 312.59 37.6767L314.026 36.2846ZM317.875 40.7683C319.11 42.4164 320.269 44.0712 321.355 45.7325L319.681 46.8268C318.619 45.202 317.484 43.5821 316.275 41.9675L317.875 40.7683ZM327.15 56.0694C328.878 59.7408 330.282 63.4373 331.384 67.1543L329.466 67.7228C328.393 64.1034 327.026 60.5017 325.34 56.9215L327.15 56.0694ZM333.866 78.7639C334.395 82.7002 334.62 86.6514 334.572 90.6121L332.572 90.5879C332.619 86.7195 332.399 82.8656 331.884 79.0303L333.866 78.7639ZM333.649 102.437C333.101 106.309 332.322 110.184 331.339 114.059L329.4 113.567C330.367 109.756 331.132 105.952 331.668 102.157L333.649 102.437ZM327.908 125.386C326.622 129.059 325.177 132.729 323.594 136.391L321.758 135.598C323.324 131.975 324.752 128.349 326.02 124.725L327.908 125.386ZM318.594 147.089C316.847 150.574 314.996 154.049 313.061 157.512L311.315 156.536C313.237 153.097 315.074 149.648 316.806 146.193L318.594 147.089ZM307.119 167.7C305.091 171.046 303.002 174.378 300.869 177.693L299.187 176.61C301.311 173.308 303.391 169.992 305.409 166.663L307.119 167.7ZM294.392 187.532C292.202 190.795 289.986 194.038 287.764 197.258L286.118 196.122C288.337 192.907 290.547 189.671 292.732 186.417L294.392 187.532ZM281.051 206.912C278.788 210.149 276.539 213.357 274.319 216.538L272.679 215.393C274.899 212.212 277.151 209 279.412 205.766L281.051 206.912ZM267.637 226.185C265.389 229.464 263.197 232.708 261.084 235.911L259.414 234.809C261.536 231.594 263.734 228.341 265.987 225.054L267.637 226.185ZM254.761 245.786C252.644 249.209 250.652 252.579 248.811 255.89L247.063 254.918C248.921 251.575 250.93 248.179 253.059 244.734L254.761 245.786ZM243.462 266.31C241.741 270.004 240.27 273.608 239.091 277.116L237.195 276.479C238.402 272.888 239.903 269.214 241.649 265.466L243.462 266.31ZM236.33 288.292C235.744 292.268 235.659 296.083 236.144 299.729L234.161 299.993C233.648 296.135 233.743 292.131 234.351 288.001L236.33 288.292ZM239.574 310.53C241.234 313.664 243.486 316.662 246.412 319.511L245.016 320.944C241.954 317.961 239.571 314.799 237.806 311.466L239.574 310.53ZM255.504 326.526C258.521 328.408 261.93 330.205 265.761 331.911L264.948 333.738C261.043 332 257.55 330.16 254.445 328.222L255.504 326.526ZM276.581 336.098C278.444 336.727 280.381 337.339 282.394 337.935L281.826 339.853C279.791 339.25 277.83 338.63 275.941 337.993L276.581 336.098ZM282.394 337.935C284.358 338.517 286.311 339.082 288.252 339.631L287.708 341.556C285.758 341.004 283.798 340.437 281.826 339.853L282.394 337.935ZM299.769 342.735C303.599 343.716 307.384 344.632 311.123 345.486L310.678 347.436C306.921 346.578 303.119 345.658 299.273 344.673L299.769 342.735ZM322.897 347.999C326.771 348.767 330.594 349.466 334.365 350.098L334.035 352.07C330.243 351.435 326.401 350.733 322.508 349.961L322.897 347.999ZM346.267 351.893C350.197 352.42 354.069 352.871 357.883 353.249L357.686 355.239C353.849 354.859 349.954 354.405 346.001 353.876L346.267 351.893ZM369.837 354.21C373.793 354.453 377.682 354.614 381.505 354.697L381.461 356.696C377.612 356.613 373.696 356.451 369.715 356.207L369.837 354.21ZM393.505 354.699C397.484 354.612 401.386 354.437 405.212 354.177L405.347 356.172C401.49 356.434 397.558 356.611 393.549 356.698L393.505 354.699ZM417.085 353.075C421.072 352.602 424.97 352.034 428.779 351.375L429.12 353.345C425.276 354.011 421.343 354.584 417.32 355.061L417.085 353.075ZM440.297 349.043C444.238 348.126 448.075 347.106 451.807 345.99L452.38 347.906C448.608 349.035 444.731 350.065 440.75 350.991L440.297 349.043ZM462.988 342.245C466.723 340.855 470.341 339.363 473.843 337.774L474.669 339.596C471.125 341.203 467.464 342.714 463.686 344.12L462.988 342.245ZM484.474 332.472C487.989 330.551 491.369 328.527 494.617 326.409L495.709 328.084C492.418 330.231 488.993 332.281 485.433 334.227L484.474 332.472ZM504.219 319.581C507.366 317.145 510.365 314.613 513.218 311.995L514.57 313.469C511.676 316.125 508.634 318.693 505.444 321.163L504.219 319.581ZM521.565 303.649C524.257 300.713 526.789 297.692 529.161 294.599L530.748 295.816C528.34 298.956 525.771 302.021 523.039 305L521.565 303.649ZM535.919 284.925C538.043 281.575 539.997 278.159 541.782 274.691L543.56 275.606C541.748 279.127 539.764 282.595 537.608 285.996L535.919 284.925ZM546.7 263.973C548.187 260.304 549.495 256.593 550.628 252.855L552.542 253.434C551.392 257.23 550.063 260.998 548.554 264.724L546.7 263.973ZM553.527 241.425C554.323 237.551 554.935 233.664 555.365 229.779L557.353 229.999C556.916 233.945 556.295 237.893 555.486 241.828L553.527 241.425ZM556.112 218.012C556.177 214.061 556.052 210.128 555.741 206.23L557.735 206.071C558.051 210.033 558.177 214.03 558.112 218.045L556.112 218.012ZM554.228 194.541C553.528 190.656 552.635 186.824 551.552 183.064L553.474 182.511C554.576 186.337 555.484 190.235 556.197 194.187L554.228 194.541ZM547.698 171.931C546.214 168.284 544.536 164.729 542.666 161.284L544.424 160.33C546.329 163.841 548.039 167.463 549.551 171.177L547.698 171.931ZM536.472 151.274C534.222 148.069 531.783 144.991 529.158 142.058L530.648 140.724C533.327 143.716 535.815 146.856 538.109 150.126L536.472 151.274ZM520.8 133.782C517.879 131.22 514.781 128.812 511.509 126.576L512.637 124.925C515.977 127.207 519.138 129.663 522.119 132.279L520.8 133.782ZM501.428 120.535C498.012 118.752 494.441 117.137 490.716 115.705L491.434 113.838C495.229 115.298 498.87 116.944 502.353 118.762L501.428 120.535ZM479.533 112.087C477.628 111.581 475.688 111.119 473.715 110.702L474.128 108.745C476.135 109.169 478.108 109.639 480.047 110.154L479.533 112.087ZM473.715 110.702C471.835 110.304 469.877 110.004 467.852 109.8L468.052 107.81C470.144 108.021 472.173 108.332 474.128 108.745L473.715 110.702ZM455.947 109.654C452.106 109.914 448.124 110.453 444.051 111.268L443.659 109.307C447.811 108.476 451.879 107.925 455.812 107.659L455.947 109.654ZM432.447 114.269C428.704 115.451 424.927 116.849 421.153 118.46L420.368 116.62C424.201 114.985 428.038 113.564 431.845 112.361L432.447 114.269ZM410.342 123.671C406.86 125.548 403.411 127.606 400.023 129.842L398.922 128.173C402.359 125.904 405.859 123.815 409.393 121.91L410.342 123.671ZM390.287 136.913C387.178 139.392 384.153 142.031 381.237 144.829L379.852 143.386C382.814 140.545 385.885 137.865 389.04 135.35L390.287 136.913ZM372.973 153.542C370.378 156.553 367.91 159.711 365.59 163.013L363.954 161.863C366.312 158.506 368.821 155.296 371.458 152.236L372.973 153.542ZM359.198 173.179C357.263 176.64 355.489 180.233 353.896 183.956L352.057 183.17C353.678 179.38 355.483 175.724 357.452 172.203L359.198 173.179ZM349.767 195.241C348.614 199.004 347.642 202.882 346.868 206.874L344.905 206.493C345.692 202.432 346.681 198.485 347.854 194.655L349.767 195.241ZM345.2 218.751C344.855 222.654 344.694 226.652 344.734 230.746L342.734 230.766C342.694 226.607 342.857 222.543 343.208 218.575L345.2 218.751ZM345.409 242.747C345.806 246.641 346.38 250.614 347.142 254.664L345.176 255.034C344.404 250.93 343.822 246.901 343.419 242.949L345.409 242.747ZM349.834 266.414C350.846 270.171 352.017 273.989 353.355 277.867L351.465 278.52C350.112 274.599 348.927 270.737 347.903 266.934L349.834 266.414ZM357.629 289.081C359.134 292.695 360.784 296.359 362.582 300.071L360.782 300.943C358.968 297.198 357.303 293.5 355.782 289.85L357.629 289.081ZM368.165 310.87C370.042 314.286 372.043 317.741 374.173 321.234L372.465 322.276C370.32 318.758 368.304 315.277 366.412 311.833L368.165 310.87ZM380.652 331.375C382.865 334.689 385.193 338.035 387.639 341.414L386.019 342.587C383.559 339.188 381.216 335.821 378.989 332.486L380.652 331.375ZM394.786 350.939C397.219 354.072 399.753 357.232 402.39 360.417L400.849 361.693C398.199 358.491 395.653 355.316 393.207 352.166L394.786 350.939ZM410.195 369.576C412.803 372.55 415.5 375.547 418.289 378.566L416.82 379.923C414.019 376.892 411.31 373.882 408.691 370.894L410.195 369.576ZM426.595 387.34C428.023 388.812 429.472 390.289 430.943 391.772L429.523 393.18C428.047 391.693 426.592 390.21 425.16 388.732L426.595 387.34ZM430.943 391.772C432.443 393.284 433.931 394.729 435.407 396.111L434.04 397.571C432.546 396.172 431.04 394.709 429.523 393.18L430.943 391.772ZM444.122 403.64C447.439 406.264 450.695 408.557 453.893 410.54L452.839 412.24C449.571 410.213 446.253 407.875 442.881 405.209L444.122 403.64ZM464.262 415.995C468.017 417.613 471.693 418.802 475.3 419.6L474.867 421.553C471.131 420.726 467.334 419.496 463.471 417.832L464.262 415.995ZM486.806 420.865C490.707 420.858 494.541 420.406 498.32 419.555L498.759 421.507C494.845 422.387 490.865 422.858 486.81 422.865L486.806 420.865ZM509.38 415.91C512.871 414.401 516.325 412.574 519.751 410.468L520.798 412.172C517.301 414.321 513.763 416.194 510.174 417.746L509.38 415.91ZM529.426 403.765C532.469 401.427 535.494 398.895 538.508 396.199L539.842 397.69C536.796 400.414 533.732 402.978 530.644 405.35L529.426 403.765ZM547.127 388.046C549.881 385.308 552.63 382.457 555.379 379.516L556.84 380.882C554.077 383.838 551.311 386.706 548.537 389.464L547.127 388.046ZM563.339 370.778C565.941 367.857 568.548 364.877 571.165 361.855L572.677 363.165C570.056 366.191 567.443 369.179 564.832 372.109L563.339 370.778ZM578.924 352.835C581.491 349.838 584.072 346.82 586.669 343.803L588.185 345.108C585.59 348.123 583.011 351.138 580.442 354.136L578.924 352.835ZM594.463 334.827C597.084 331.841 599.726 328.872 602.394 325.939L603.873 327.284C601.216 330.207 598.581 333.167 595.965 336.147L594.463 334.827ZM610.51 317.224C613.267 314.343 616.054 311.515 618.875 308.762L620.272 310.193C617.469 312.929 614.698 315.739 611.955 318.607L610.51 317.224ZM627.606 300.597C630.604 297.92 633.645 295.342 636.733 292.884L637.979 294.449C634.923 296.881 631.911 299.434 628.937 302.089L627.606 300.597ZM646.32 285.77C649.632 283.493 653.001 281.369 656.431 279.422L657.418 281.162C654.042 283.078 650.722 285.171 647.453 287.418L646.32 285.77ZM667.136 274.036C670.811 272.425 674.558 271.028 678.382 269.872L678.961 271.786C675.218 272.918 671.545 274.287 667.938 275.868L667.136 274.036ZM690.045 267.16C693.939 266.525 697.911 266.145 701.965 266.045L702.014 268.045C698.053 268.142 694.172 268.513 690.367 269.134L690.045 267.16ZM713.975 266.565C717.852 266.992 721.802 267.676 725.828 268.634L725.366 270.58C721.418 269.64 717.549 268.971 713.756 268.553L713.975 266.565ZM737.167 271.999C740.802 273.289 744.497 274.799 748.256 276.543L747.414 278.357C743.71 276.639 740.072 275.152 736.498 273.884L737.167 271.999ZM758.951 282.046C762.248 283.907 765.594 285.945 768.988 288.166L767.893 289.84C764.533 287.641 761.226 285.626 757.968 283.788L758.951 282.046ZM778.998 295.15C782.013 297.381 785.065 299.755 788.157 302.276L786.893 303.826C783.824 301.324 780.796 298.969 777.808 296.757L778.998 295.15ZM797.415 310.166C800.246 312.68 803.108 315.315 806.003 318.074L804.623 319.522C801.744 316.778 798.899 314.159 796.087 311.661L797.415 310.166ZM814.518 326.455C817.266 329.244 820.043 332.143 822.85 335.155L821.387 336.518C818.592 333.519 815.828 330.634 813.093 327.858L814.518 326.455ZM830.668 343.751C833.299 346.714 835.956 349.774 838.64 352.934L837.115 354.229C834.441 351.08 831.794 348.031 829.172 345.08L830.668 343.751ZM846.192 362.007C848.608 364.966 851.044 368.006 853.503 371.126L851.931 372.363C849.48 369.252 847.051 366.222 844.642 363.272L846.192 362.007ZM860.941 380.731C862.191 382.373 863.447 384.036 864.708 385.719L863.108 386.918C861.85 385.239 860.597 383.581 859.35 381.943L860.941 380.731Z" fill="white"/>
</svg>
