<svg width="116" height="58" viewBox="0 0 116 58" fill="none" xmlns="http://www.w3.org/2000/svg">
<path d="M0.845703 28.5789H6.54697V17.0342H16.9395V12.5683H6.54697V4.48359H18.8861V0.0180664H0.845703V28.5789Z" fill="#E74237"/>
<path d="M0.845703 28.5789H6.54697V17.0342H16.9395V12.5683H6.54697V4.48359H18.8861V0.0180664H0.845703V28.5789Z" fill="#E74237"/>
<path fill-rule="evenodd" clip-rule="evenodd" d="M94.9942 24.1129V4.48359H99.6781C105.957 4.48359 110.114 7.90394 110.114 14.2619C110.114 20.6993 106.045 24.1196 99.6781 24.1196L94.9942 24.1129ZM89.293 28.5789H99.9926C109.675 28.5789 115.999 23.2661 115.999 14.2552C115.999 5.24441 109.675 0.0180664 99.9926 0.0180664H89.293V28.5789Z" fill="#E74237"/>
<path fill-rule="evenodd" clip-rule="evenodd" d="M94.9942 24.1129V4.48359H99.6781C105.957 4.48359 110.114 7.90394 110.114 14.2619C110.114 20.6993 106.045 24.1196 99.6781 24.1196L94.9942 24.1129ZM89.293 28.5789H99.9926C109.675 28.5789 115.999 23.2661 115.999 14.2552C115.999 5.24441 109.675 0.0180664 99.9926 0.0180664H89.293V28.5789Z" fill="#E74237"/>
<path d="M12.2218 57.3119H8.1748L0 36.915H4.39105L9.31643 50.2198C9.61663 51.027 9.89464 52.1314 10.0484 52.747C10.114 53.0313 10.1653 53.21 10.1727 53.21H10.2387C10.2456 53.21 10.29 53.0313 10.3629 52.747C10.5167 52.1314 10.7873 51.027 11.0949 50.2198L16.0568 36.915H20.4188L12.2218 57.3119Z" fill="#E74237"/>
<path d="M12.2218 57.3119H8.1748L0 36.915H4.39105L9.31643 50.2198C9.61663 51.027 9.89464 52.1314 10.0484 52.747C10.114 53.0313 10.1653 53.21 10.1727 53.21H10.2387C10.2456 53.21 10.29 53.0313 10.3629 52.747C10.5167 52.1314 10.7873 51.027 11.0949 50.2198L16.0568 36.915H20.4188L12.2218 57.3119Z" fill="#E74237"/>
<path d="M42.1847 57.3119H28.25V36.915H41.68V40.1041H32.3266V45.4494H39.8793V48.6384H32.3266V54.1295H42.1847V57.3119Z" fill="#E74237"/>
<path d="M42.1847 57.3119H28.25V36.915H41.68V40.1041H32.3266V45.4494H39.8793V48.6384H32.3266V54.1295H42.1847V57.3119Z" fill="#E74237"/>
<path fill-rule="evenodd" clip-rule="evenodd" d="M55.5453 40.1041V46.4817H59.2117C61.393 46.4817 62.7466 45.3041 62.7466 43.2663C62.7466 41.3146 61.8317 40.1041 58.6409 40.1041H55.5453ZM55.5453 57.3119H51.4688V36.915H58.6996C61.1293 36.915 62.2344 37.0871 63.2153 37.4904C65.4547 38.4104 66.8818 40.3621 66.8818 43.068C66.8818 45.5091 65.4621 47.7782 63.0906 48.6384V48.6982C63.0906 48.6982 63.4056 48.9825 63.8517 49.7037L68.4626 57.3186H63.9178L59.4607 49.7037H55.5453V57.3119Z" fill="#E74237"/>
<path fill-rule="evenodd" clip-rule="evenodd" d="M55.5453 40.1041V46.4817H59.2117C61.393 46.4817 62.7466 45.3041 62.7466 43.2663C62.7466 41.3146 61.8317 40.1041 58.6409 40.1041H55.5453ZM55.5453 57.3119H51.4688V36.915H58.6996C61.1293 36.915 62.2344 37.0871 63.2153 37.4904C65.4547 38.4104 66.8818 40.3621 66.8818 43.068C66.8818 45.5091 65.4621 47.7782 63.0906 48.6384V48.6982C63.0906 48.6982 63.4056 48.9825 63.8517 49.7037L68.4626 57.3186H63.9178L59.4607 49.7037H55.5453V57.3119Z" fill="#E74237"/>
<path d="M83.3513 57.6558C78.3599 57.6558 75.6152 54.8706 75.6152 54.8706L77.8255 52.0854C77.8255 52.0854 80.2557 54.2421 83.4169 54.2421C85.1224 54.2421 86.6737 53.435 86.6737 51.7676C86.6737 50.1862 84.6906 49.4125 82.4438 48.5322C79.4941 47.3747 76.0914 46.0447 76.0914 42.492C76.0914 39.098 79.3112 36.5708 83.6072 36.5708C88.0278 36.5708 90.3041 38.7543 90.3041 38.7543L88.533 41.7709C88.533 41.7709 86.3883 39.9911 83.5707 39.9911C81.6754 39.9911 80.1897 40.9971 80.1897 42.4327C80.1897 43.9807 82.1146 44.7018 84.3175 45.5286C87.2741 46.6402 90.7429 47.9434 90.7429 51.6816C90.7429 54.9299 88.0278 57.6558 83.3513 57.6558Z" fill="#E74237"/>
<path d="M83.3513 57.6558C78.3599 57.6558 75.6152 54.8706 75.6152 54.8706L77.8255 52.0854C77.8255 52.0854 80.2557 54.2421 83.4169 54.2421C85.1224 54.2421 86.6737 53.435 86.6737 51.7676C86.6737 50.1862 84.6906 49.4125 82.4438 48.5322C79.4941 47.3747 76.0914 46.0447 76.0914 42.492C76.0914 39.098 79.3112 36.5708 83.6072 36.5708C88.0278 36.5708 90.3041 38.7543 90.3041 38.7543L88.533 41.7709C88.533 41.7709 86.3883 39.9911 83.5707 39.9911C81.6754 39.9911 80.1897 40.9971 80.1897 42.4327C80.1897 43.9807 82.1146 44.7018 84.3175 45.5286C87.2741 46.6402 90.7429 47.9434 90.7429 51.6816C90.7429 54.9299 88.0278 57.6558 83.3513 57.6558Z" fill="#E74237"/>
<path d="M113.798 57.3119H99.8633V36.915H113.285V40.1041H103.94V45.4494H111.493V48.6384H103.94V54.1295H113.798V57.3119Z" fill="#E74237"/>
<path d="M113.798 57.3119H99.8633V36.915H113.285V40.1041H103.94V45.4494H111.493V48.6384H103.94V54.1295H113.798V57.3119Z" fill="#E74237"/>
<path d="M55.1898 9.09477C56.9244 6.91839 58.7029 4.90692 60.8181 3.31263C66.7752 -1.17964 75.1624 -1.19925 80.7834 4.04047C86.8208 9.67062 86.8208 18.8798 80.7834 24.51C77.8189 27.2689 73.9474 28.6185 70.098 28.5128C61.9888 28.2944 57.8832 22.9749 53.4335 17.2062C52.6359 16.1739 51.86 15.1287 51.0625 14.0898C47.1979 9.07516 43.6266 4.4572 37.2593 4.28516C31.9608 4.13941 25.8568 8.06965 26.0032 14.4802C26.0619 17.0805 27.2548 19.4886 29.1649 21.2617C33.3952 25.2048 39.7989 25.1518 44.3216 21.8241C46.2978 20.3685 48.025 18.3507 49.7448 16.1543C50.0155 16.5113 50.2866 16.8621 50.5646 17.2062C51.128 17.967 51.6845 18.7011 52.2627 19.449C50.4842 21.6784 48.6619 23.7358 46.4732 25.3501C40.5235 29.7367 32.2166 29.6837 26.6692 24.51C23.9467 21.9694 22.2342 18.4497 22.1465 14.5796C21.9414 5.66774 29.8018 -0.167442 37.3545 0.0375832C45.4637 0.255979 49.5694 5.57548 54.0191 11.3443C54.8166 12.3765 55.5925 13.4284 56.3901 14.4606C60.2547 19.4753 63.826 24.0932 70.1932 24.2653C73.0911 24.3446 76.0551 23.3458 78.2876 21.2617C82.5032 17.3385 82.5032 11.2119 78.2876 7.28877C73.9986 3.29257 67.522 3.41826 63.0062 6.82568C61.0887 8.27467 59.3979 10.246 57.7151 12.3894C56.8879 11.2783 56.046 10.193 55.1972 9.10146" fill="#E74237"/>
<path d="M55.1898 9.09477C56.9244 6.91839 58.7029 4.90692 60.8181 3.31263C66.7752 -1.17964 75.1624 -1.19925 80.7834 4.04047C86.8208 9.67062 86.8208 18.8798 80.7834 24.51C77.8189 27.2689 73.9474 28.6185 70.098 28.5128C61.9888 28.2944 57.8832 22.9749 53.4335 17.2062C52.6359 16.1739 51.86 15.1287 51.0625 14.0898C47.1979 9.07516 43.6266 4.4572 37.2593 4.28516C31.9608 4.13941 25.8568 8.06965 26.0032 14.4802C26.0619 17.0805 27.2548 19.4886 29.1649 21.2617C33.3952 25.2048 39.7989 25.1518 44.3216 21.8241C46.2978 20.3685 48.025 18.3507 49.7448 16.1543C50.0155 16.5113 50.2866 16.8621 50.5646 17.2062C51.128 17.967 51.6845 18.7011 52.2627 19.449C50.4842 21.6784 48.6619 23.7358 46.4732 25.3501C40.5235 29.7367 32.2166 29.6837 26.6692 24.51C23.9467 21.9694 22.2342 18.4497 22.1465 14.5796C21.9414 5.66774 29.8018 -0.167442 37.3545 0.0375832C45.4637 0.255979 49.5694 5.57548 54.0191 11.3443C54.8166 12.3765 55.5925 13.4284 56.3901 14.4606C60.2547 19.4753 63.826 24.0932 70.1932 24.2653C73.0911 24.3446 76.0551 23.3458 78.2876 21.2617C82.5032 17.3385 82.5032 11.2119 78.2876 7.28877C73.9986 3.29257 67.522 3.41826 63.0062 6.82568C61.0887 8.27467 59.3979 10.246 57.7151 12.3894C56.8879 11.2783 56.046 10.193 55.1972 9.10146" fill="#E74237"/>
</svg>
