<svg width="69" height="138" viewBox="0 0 69 138" fill="none" xmlns="http://www.w3.org/2000/svg">
<path d="M-7.38747 34.7448C-7.96714 34.745 -8.53729 34.5973 -9.04395 34.3157C-9.5506 34.034 -9.977 33.6278 -10.2828 33.1353C-12.4688 29.6174 -13.6263 25.5578 -13.6243 21.4161C-13.5874 17.3087 -12.4618 13.2846 -10.3623 9.7541C-8.26287 6.22361 -5.26469 3.31305 -1.67348 1.31923C-1.16282 1.03121 -0.586449 0.879883 -0.000160217 0.879883C0.586128 0.879883 1.16249 1.03121 1.67316 1.31923C5.26502 3.31242 8.26385 6.22279 10.3637 9.75339C12.4635 13.284 13.5891 17.3084 13.6257 21.4161C13.6273 25.5565 12.4704 29.6147 10.2859 33.1319C9.80955 33.8998 9.04771 34.447 8.16792 34.6532C7.28814 34.8593 6.36249 34.7076 5.5946 34.2313C4.82672 33.755 4.2795 32.9931 4.07333 32.1133C3.86716 31.2335 4.01892 30.3079 4.49523 29.54C6.02095 27.1059 6.82472 24.2888 6.81319 21.4161C6.78818 18.8517 6.15815 16.3295 4.97437 14.0545C3.79058 11.7796 2.08647 9.81622 0.000686646 8.32418C-2.0854 9.81593 -3.78972 11.7792 -4.97354 14.0542C-6.15736 16.3292 -6.78721 18.8516 -6.81181 21.4161C-6.82512 24.2886 -6.02247 27.1058 -4.49726 29.54C-4.17647 30.056 -3.99952 30.6484 -3.98476 31.2558C-3.97 31.8632 -4.11797 32.4634 -4.41332 32.9944C-4.70868 33.5253 -5.14067 33.9676 -5.66452 34.2754C-6.18837 34.5832 -6.78501 34.7452 -7.39258 34.7448H-7.38747Z" fill="white" fill-opacity="0.2"/>
<path d="M0.000686646 137.125C-0.585892 137.125 -1.16257 136.973 -1.67348 136.685C-4.38902 135.239 -6.77989 133.252 -8.69901 130.847C-10.6181 128.443 -12.0249 125.671 -12.8328 122.702C-13.6406 119.733 -13.8325 116.63 -13.3966 113.585C-12.9607 110.539 -11.9063 107.615 -10.2981 104.992C-9.82744 104.221 -9.06966 103.668 -8.19147 103.455C-7.31329 103.243 -6.38664 103.388 -5.61537 103.858C-4.8441 104.329 -4.29138 105.087 -4.07883 105.965C-3.86626 106.843 -4.01126 107.77 -4.48193 108.541C-6.5927 111.967 -7.30458 116.074 -6.47006 120.01C-5.63554 123.946 -3.3186 127.411 0.000686646 129.685C3.32025 127.411 5.63754 123.947 6.47239 120.01C7.30723 116.074 6.59563 111.967 4.48502 108.541C4.02491 107.77 3.88759 106.849 4.10293 105.978C4.31826 105.107 4.86883 104.355 5.63496 103.888C6.40109 103.42 7.32086 103.274 8.19431 103.48C9.06776 103.687 9.8243 104.23 10.2995 104.992C11.9078 107.615 12.9624 110.539 13.3983 113.585C13.8342 116.631 13.6422 119.734 12.8342 122.702C12.0261 125.671 10.6191 128.443 8.69967 130.848C6.78024 133.253 4.38902 135.239 1.67316 136.685C1.16293 136.974 0.586754 137.125 0.000686646 137.125Z" fill="white" fill-opacity="0.2"/>
<path d="M-47.5829 82.6247C-51.6906 82.5881 -55.715 81.4625 -59.2456 79.3627C-62.7762 77.2629 -65.6866 74.264 -67.6798 70.6722C-67.9678 70.1615 -68.1191 69.5851 -68.1191 68.9989C-68.1191 68.4126 -67.9678 67.8362 -67.6798 67.3255C-65.686 63.7343 -62.7754 60.7361 -59.2449 58.6367C-55.7144 56.5373 -51.6903 55.4117 -47.5829 55.3747C-43.4417 55.3725 -39.3826 56.53 -35.8654 58.7162C-35.0975 59.193 -34.5505 59.9553 -34.3447 60.8354C-34.1388 61.7155 -34.291 62.6413 -34.7678 63.4092C-35.2445 64.1771 -36.0068 64.7241 -36.8869 64.93C-37.767 65.1358 -38.6928 64.9836 -39.4607 64.5069C-41.8942 62.9809 -44.7106 62.1765 -47.5829 62.1872C-50.1474 62.2117 -52.6699 62.8415 -54.9449 64.0253C-57.2199 65.2091 -59.1832 66.9135 -60.6748 68.9997C-59.1828 71.0855 -57.2194 72.7896 -54.9445 73.9734C-52.6696 75.1572 -50.1473 75.7872 -47.5829 75.8122C-44.7112 75.8255 -41.8947 75.0235 -39.4607 73.4994C-39.0805 73.2633 -38.6575 73.1044 -38.2159 73.0318C-37.7743 72.9592 -37.3227 72.9743 -36.8869 73.0763C-36.4511 73.1782 -36.0397 73.365 -35.6761 73.6259C-35.3125 73.8868 -35.0038 74.2168 -34.7678 74.597C-34.5317 74.9772 -34.3728 75.4002 -34.3002 75.8419C-34.2276 76.2835 -34.2427 76.7351 -34.3447 77.1708C-34.4466 77.6066 -34.6333 78.0181 -34.8943 78.3817C-35.1552 78.7453 -35.4852 79.0539 -35.8654 79.29C-39.3833 81.4737 -43.4424 82.6289 -47.5829 82.6247Z" fill="white" fill-opacity="0.2"/>
<path d="M47.7921 82.6247C43.628 82.6216 39.5454 81.4707 35.9928 79.2985C35.6063 79.0678 35.2694 78.7627 35.0015 78.401C34.7336 78.0392 34.5401 77.628 34.4321 77.191C34.3241 76.754 34.3038 76.2999 34.3724 75.855C34.4409 75.4102 34.597 74.9833 34.8315 74.5991C35.066 74.2149 35.3744 73.881 35.7388 73.6166C36.1031 73.3523 36.5163 73.1628 36.9543 73.0592C37.3923 72.9555 37.8465 72.9396 38.2907 73.0126C38.7349 73.0855 39.1603 73.2457 39.5421 73.484C42.9682 75.5947 47.0749 76.3063 51.0113 75.4714C54.9477 74.6366 58.4121 72.3193 60.6864 68.9997C58.4121 65.6801 54.9477 63.3629 51.0113 62.528C47.0749 61.6932 42.9682 62.4048 39.5421 64.5154C38.7715 64.9755 37.8503 65.1128 36.9789 64.8975C36.1075 64.6821 35.3564 64.1316 34.8887 63.3654C34.421 62.5993 34.2747 61.6795 34.4814 60.8061C34.6882 59.9326 35.2313 59.1761 35.9928 58.7009C38.6158 57.0928 41.5401 56.0383 44.5857 55.6024C47.6314 55.1665 50.7341 55.3584 53.7028 56.1663C56.6715 56.9741 59.4436 58.3809 61.8484 60.3C64.2532 62.2191 66.2399 64.61 67.6863 67.3255C67.9743 67.8362 68.1256 68.4126 68.1256 68.9989C68.1256 69.5852 67.9743 70.1615 67.6863 70.6722C65.7479 74.2663 62.878 77.2726 59.3777 79.3756C55.8773 81.4786 51.8755 82.6009 47.7921 82.6247Z" fill="white" fill-opacity="0.2"/>
<path d="M-40.268 118.922C-42.4342 118.922 -44.5903 118.626 -46.6769 118.045C-47.2419 117.887 -47.7567 117.587 -48.1714 117.172C-48.5862 116.757 -48.8868 116.242 -49.0442 115.677C-50.1746 111.728 -50.2368 107.549 -49.2242 103.567C-48.2117 99.5853 -46.1608 95.9437 -43.2808 93.0138C-40.3538 90.0849 -36.6663 88.0327 -32.6346 87.0886C-31.7538 86.8826 -30.8272 87.035 -30.0588 87.5122C-29.2903 87.9893 -28.7428 88.7523 -28.5369 89.6331C-28.3309 90.5139 -28.4833 91.4404 -28.9604 92.2089C-29.4376 92.9774 -30.2005 93.5248 -31.0813 93.7308C-33.8818 94.3741 -36.4421 95.7992 -38.4644 97.8404C-40.2603 99.6705 -41.5985 101.899 -42.3701 104.344C-43.1416 106.789 -43.3247 109.382 -42.9044 111.912C-40.3747 112.331 -37.7817 112.147 -35.3362 111.376C-32.8907 110.605 -30.6615 109.268 -28.8298 107.473C-26.7895 105.451 -25.3649 102.892 -24.7219 100.092C-24.5109 99.218 -23.9629 98.463 -23.1975 97.9914C-22.4321 97.5198 -21.5113 97.37 -20.6358 97.5745C-19.7604 97.779 -19.0013 98.3214 -18.524 99.0833C-18.0468 99.8452 -17.8901 100.765 -18.0882 101.642C-19.0322 105.672 -21.0846 109.357 -24.0134 112.281C-28.3369 116.562 -34.1837 118.951 -40.268 118.922Z" fill="white" fill-opacity="0.2"/>
<path d="M31.9275 50.9278C31.094 50.9274 30.2896 50.6215 29.6666 50.0679C29.0436 49.5143 28.6451 48.7514 28.5467 47.9238C28.4483 47.0962 28.6567 46.2612 29.1325 45.5769C29.6084 44.8926 30.3186 44.4066 31.1287 44.2107C35.0454 43.2828 38.4548 40.8832 40.65 37.5094C42.8453 34.1355 43.6579 30.0463 42.9194 26.0895C38.9645 25.3511 34.8772 26.1623 31.504 28.3551C28.1308 30.5479 25.7304 33.9541 24.7999 37.8683C24.6948 38.3032 24.505 38.7131 24.2415 39.0747C23.9779 39.4363 23.6457 39.7424 23.2639 39.9756C22.882 40.2088 22.458 40.3645 22.016 40.4338C21.574 40.5031 21.1226 40.4847 20.6877 40.3795C20.2528 40.2744 19.8429 40.0847 19.4813 39.8211C19.1197 39.5576 18.8136 39.2254 18.5804 38.8435C18.3472 38.4617 18.1915 38.0377 18.1222 37.5956C18.0529 37.1536 18.0713 36.7023 18.1764 36.2673C18.8939 33.2761 20.2157 30.4632 22.0604 28.0016C23.9052 25.54 26.2339 23.4818 28.9035 21.9534C31.573 20.4251 34.527 19.4589 37.5837 19.1143C40.6405 18.7697 43.7354 19.054 46.6782 19.9497C47.2433 20.1071 47.7581 20.4077 48.1728 20.8225C48.5876 21.2372 48.8882 21.752 49.0456 22.3171C49.9427 25.2601 50.2282 28.3555 49.8846 31.413C49.541 34.4704 48.5755 37.4253 47.0476 40.0957C45.5196 42.7662 43.4615 45.0959 40.9998 46.9414C38.5381 48.787 35.7248 50.1094 32.7331 50.8274C32.4694 50.8925 32.199 50.9262 31.9275 50.9278Z" fill="white" fill-opacity="0.2"/>
<path d="M40.2949 118.922C34.2103 118.951 28.3633 116.561 24.0403 112.28C21.1115 109.353 19.0597 105.665 18.1168 101.633C18.0059 101.195 17.9834 100.738 18.0507 100.291C18.118 99.8437 18.2738 99.4143 18.5089 99.0277C18.744 98.6412 19.0537 98.3054 19.42 98.0399C19.7863 97.7745 20.2018 97.5846 20.6423 97.4814C21.0828 97.3783 21.5394 97.3639 21.9855 97.4391C22.4316 97.5143 22.8582 97.6777 23.2405 97.9196C23.6228 98.1615 23.953 98.4771 24.212 98.8481C24.471 99.219 24.6535 99.6378 24.7488 100.08C25.392 102.88 26.8165 105.44 28.8567 107.463C30.6869 109.26 32.9159 110.599 35.3619 111.37C37.8079 112.141 40.4016 112.323 42.9314 111.901C43.3508 109.372 43.1673 106.779 42.3958 104.334C41.6243 101.889 40.2865 99.6608 38.4913 97.8302C36.4698 95.7891 33.91 94.3645 31.11 93.7223C30.6738 93.6205 30.262 93.4338 29.898 93.1729C29.534 92.912 29.225 92.5819 28.9886 92.2016C28.7521 91.8212 28.5929 91.398 28.5201 90.9562C28.4472 90.5143 28.462 90.0624 28.5638 89.6263C28.6656 89.1901 28.8522 88.7783 29.1132 88.4143C29.3741 88.0503 29.7041 87.7413 30.0845 87.5049C30.4648 87.2684 30.888 87.1092 31.3299 87.0363C31.7718 86.9635 32.2237 86.9783 32.6598 87.0801C36.6941 88.0247 40.3833 90.0802 43.3095 93.0138C46.1888 95.944 48.2392 99.5858 49.2514 103.567C50.2636 107.549 50.2014 111.728 49.0711 115.677C48.9139 116.242 48.6135 116.757 48.1991 117.172C47.7847 117.586 47.2702 117.887 46.7055 118.045C44.6183 118.626 42.4617 118.922 40.2949 118.922Z" fill="white" fill-opacity="0.2"/>
<path d="M-31.9022 50.9296C-32.1737 50.9289 -32.444 50.8963 -32.7078 50.8325C-35.6994 50.1144 -38.5124 48.7918 -40.9739 46.9461C-43.4354 45.1005 -45.4932 42.7707 -47.0209 40.1002C-48.5485 37.4297 -49.5137 34.4749 -49.8569 31.4176C-50.2002 28.3602 -49.9143 25.2649 -49.0169 22.3222C-48.8596 21.7571 -48.5589 21.2423 -48.1442 20.8276C-47.7295 20.4128 -47.2146 20.1122 -46.6496 19.9548C-43.7067 19.057 -40.6112 18.7709 -37.5536 19.1142C-34.496 19.4574 -31.541 20.4228 -28.8705 21.9509C-26.1999 23.479 -23.8704 25.5374 -22.0251 27.9995C-20.1799 30.4616 -18.8581 33.2753 -18.141 36.2674C-18.0358 36.7021 -18.0172 37.1534 -18.0864 37.5954C-18.1555 38.0373 -18.3111 38.4613 -18.5441 38.8432C-18.7771 39.2251 -19.0831 39.5573 -19.4445 39.8209C-19.806 40.0845 -20.2158 40.2743 -20.6506 40.3796C-21.0853 40.4848 -21.5366 40.5033 -21.9786 40.4342C-22.4205 40.365 -22.8445 40.2095 -23.2264 39.9764C-23.6082 39.7434 -23.9405 39.4374 -24.2041 39.076C-24.4677 38.7146 -24.6575 38.3048 -24.7628 37.87C-25.6929 33.9552 -28.0934 30.5482 -31.467 28.3551C-34.8406 26.1619 -38.9286 25.3507 -42.884 26.0895C-43.6227 30.0451 -42.8113 34.1333 -40.6178 37.507C-38.4243 40.8806 -35.0169 43.281 -31.1018 44.2107C-30.2899 44.4052 -29.5777 44.891 -29.1004 45.5759C-28.6231 46.2609 -28.414 47.0973 -28.5127 47.9263C-28.6115 48.7553 -29.0113 49.5191 -29.6361 50.0728C-30.261 50.6264 -31.0674 50.9313 -31.9022 50.9296Z" fill="white" fill-opacity="0.2"/>
<path d="M29.1548 27.2953C29.0199 27.2955 28.8852 27.2881 28.7511 27.2731C28.3068 27.2208 27.8772 27.0814 27.4867 26.8629C27.0963 26.6444 26.7527 26.3512 26.4756 25.9999C26.1985 25.6487 25.9934 25.2463 25.8718 24.8157C25.7503 24.3851 25.7148 23.9348 25.7673 23.4905C25.9335 22.0708 25.9071 20.6351 25.6889 19.2225C25.3492 17.0281 24.5794 14.9225 23.4238 13.0265C21.2613 13.5334 19.2204 14.463 17.4185 15.7617C16.259 16.5986 15.2175 17.5879 14.3223 18.703C13.7498 19.3833 12.934 19.8128 12.0491 19.8997C11.1643 19.9867 10.2805 19.7242 9.58652 19.1683C8.89257 18.6125 8.44349 17.8073 8.33517 16.9248C8.22686 16.0423 8.4679 15.1524 9.00682 14.4452C10.2851 12.8531 11.771 11.4394 13.4247 10.2419C16.7166 7.873 20.5586 6.38345 24.587 5.91426C25.1692 5.84499 25.7595 5.92764 26.3003 6.15417C26.8411 6.3807 27.314 6.74339 27.6731 7.20693C30.1668 10.4046 31.8019 14.1866 32.4231 18.1938C32.7338 20.2108 32.771 22.2606 32.5338 24.2876C32.4362 25.1156 32.0384 25.879 31.4157 26.4333C30.7929 26.9877 29.9885 27.2943 29.1548 27.2953Z" fill="white" fill-opacity="0.2"/>
<path d="M-24.9824 132.109C-25.5014 132.109 -26.0134 131.99 -26.4795 131.762C-26.9455 131.534 -27.3533 131.202 -27.6717 130.792C-30.1516 127.628 -31.7971 123.891 -32.4575 119.925C-32.7803 117.927 -32.829 115.895 -32.6022 113.884C-32.4997 112.986 -32.0447 112.166 -31.3374 111.604C-30.6301 111.041 -29.7284 110.783 -28.8307 110.886C-27.9329 110.988 -27.1127 111.443 -26.5504 112.15C-25.9881 112.858 -25.7298 113.759 -25.8323 114.657C-25.9903 116.051 -25.9565 117.459 -25.7318 118.843C-25.3708 121.018 -24.5868 123.101 -23.4241 124.975C-21.2728 124.487 -19.2378 123.583 -17.4342 122.313C-16.2909 121.499 -15.2636 120.533 -14.3805 119.443C-14.0996 119.095 -13.7529 118.805 -13.3601 118.591C-12.9674 118.377 -12.5363 118.242 -12.0915 118.195C-11.6467 118.147 -11.1969 118.188 -10.7678 118.314C-10.3386 118.441 -9.93858 118.65 -9.59046 118.931C-9.24234 119.212 -8.95296 119.559 -8.73883 119.951C-8.52471 120.344 -8.39004 120.775 -8.34251 121.22C-8.29499 121.665 -8.33554 122.115 -8.46185 122.544C-8.58816 122.973 -8.79776 123.373 -9.07867 123.721C-10.3507 125.295 -11.8326 126.688 -13.483 127.86C-16.7705 130.175 -20.5872 131.626 -24.5822 132.08C-24.715 132.097 -24.8486 132.107 -24.9824 132.109Z" fill="white" fill-opacity="0.2"/>
<path d="M-52.43 60.7413C-53.2045 60.7426 -53.956 60.478 -54.5589 59.9919C-56.1496 58.7149 -57.5616 57.2302 -58.7571 55.5774C-61.1267 52.2857 -62.6168 48.4437 -63.0865 44.4151C-63.155 43.8327 -63.0721 43.2424 -62.8456 42.7015C-62.6191 42.1605 -62.2568 41.6872 -61.7938 41.3273C-58.5955 38.8344 -54.8139 37.1989 -50.8069 36.5756C-48.7902 36.2672 -46.7413 36.2305 -44.7149 36.4666C-43.8176 36.5719 -42.9988 37.0292 -42.4388 37.7382C-41.8787 38.4471 -41.6232 39.3494 -41.7284 40.2467C-41.8337 41.144 -42.2911 41.9627 -43 42.5228C-43.7089 43.0829 -44.6112 43.3384 -45.5085 43.2331C-46.9289 43.0686 -48.3649 43.0949 -49.7783 43.3115C-51.9729 43.651 -54.0786 44.4214 -55.9742 45.5783C-55.4659 47.7404 -54.5365 49.781 -53.239 51.5836C-52.4007 52.7414 -51.4116 53.7822 -50.2977 54.6781C-49.7473 55.1197 -49.3476 55.7213 -49.1539 56.3998C-48.9602 57.0783 -48.982 57.8003 -49.2162 58.4659C-49.4505 59.1315 -49.8857 59.7079 -50.4617 60.1155C-51.0377 60.5231 -51.7244 60.7418 -52.43 60.7413Z" fill="white" fill-opacity="0.2"/>
<path d="M47.3765 101.744C46.544 101.743 45.7122 101.696 44.8848 101.603C43.9871 101.5 43.1669 101.045 42.6046 100.338C42.0423 99.6305 41.784 98.7288 41.8865 97.8311C41.989 96.9333 42.444 96.1131 43.1513 95.5508C43.8586 94.9885 44.7603 94.7302 45.6581 94.8327C47.0521 94.9898 48.4611 94.956 49.846 94.7322C52.0208 94.3705 54.1037 93.5865 55.9773 92.4245C55.4891 90.2731 54.5842 88.2381 53.3136 86.4346C52.5005 85.2903 51.535 84.2623 50.4438 83.3792C50.0911 83.0997 49.7972 82.7531 49.5792 82.3593C49.3612 81.9655 49.2234 81.5325 49.1737 81.0852C49.124 80.6378 49.1635 80.1851 49.2899 79.7531C49.4162 79.3212 49.6269 78.9185 49.9098 78.5684C50.1927 78.2184 50.5422 77.9279 50.938 77.7136C51.3338 77.4994 51.7682 77.3658 52.216 77.3205C52.6637 77.2751 53.1161 77.319 53.5468 77.4495C53.9776 77.58 54.3782 77.7945 54.7255 78.0808C56.2989 79.3527 57.6907 80.834 58.8624 82.4834C61.1759 85.7722 62.627 89.5891 63.0827 93.5843C63.1513 94.1667 63.0683 94.757 62.8419 95.298C62.6154 95.8389 62.2531 96.3122 61.7901 96.6721C58.6257 99.1519 54.8896 100.798 50.9241 101.46C49.751 101.648 48.5647 101.743 47.3765 101.744Z" fill="white" fill-opacity="0.2"/>
<path d="M-47.4109 101.345C-48.6242 101.346 -49.8356 101.249 -51.0335 101.056C-55.0387 100.405 -58.8112 98.7422 -61.9931 96.2242C-62.4534 95.8607 -62.812 95.3846 -63.0343 94.8418C-63.2566 94.2991 -63.335 93.7081 -63.2619 93.1262C-62.7637 89.1023 -61.2459 85.2725 -58.8525 81.9997C-57.6458 80.3543 -56.2228 78.8792 -54.6219 77.6141C-54.2706 77.3368 -53.868 77.1314 -53.4373 77.0096C-53.0065 76.8878 -52.556 76.8521 -52.1114 76.9045C-51.6669 76.9568 -51.237 77.0962 -50.8463 77.3147C-50.4556 77.5332 -50.1118 77.8265 -49.8345 78.1778C-49.5571 78.5292 -49.3517 78.9318 -49.2299 79.3625C-49.1082 79.7933 -49.0725 80.2438 -49.1248 80.6883C-49.1771 81.1329 -49.3165 81.5628 -49.535 81.9535C-49.7535 82.3442 -50.0468 82.688 -50.3982 82.9653C-51.5187 83.85 -52.5154 84.8811 -53.3616 86.031C-54.6721 87.8238 -55.6161 89.8576 -56.1394 92.0157C-54.2508 93.1858 -52.1499 93.9718 -49.9571 94.3286C-48.549 94.5544 -47.1171 94.591 -45.6993 94.4376C-44.8039 94.344 -43.9079 94.6087 -43.2071 95.1738C-42.5063 95.7389 -42.0577 96.5584 -41.9593 97.4532C-41.861 98.3481 -42.1209 99.2455 -42.6822 99.9493C-43.2435 100.653 -44.0607 101.106 -44.955 101.209C-45.7705 101.3 -46.5904 101.345 -47.4109 101.345Z" fill="white" fill-opacity="0.2"/>
<path d="M52.6732 61.0546C51.9663 61.055 51.2767 60.8353 50.7002 60.4262C50.1237 60.017 49.6887 59.4386 49.4557 58.7712C49.2227 58.1037 49.2031 57.3803 49.3997 56.7012C49.5963 56.0221 49.9993 55.421 50.5528 54.9813C51.652 54.1079 52.6262 53.0879 53.4482 51.9497C54.7325 50.1555 55.6525 48.1268 56.1561 45.9786C54.2893 44.8033 52.2104 44.0049 50.0368 43.6283C48.654 43.3927 47.2453 43.3485 45.8505 43.4971C45.4057 43.5448 44.9558 43.5043 44.5266 43.3781C44.0973 43.2519 43.6972 43.0423 43.3489 42.7615C42.6456 42.1942 42.1964 41.3708 42.1002 40.4724C42.004 39.5739 42.2686 38.6741 42.8359 37.9708C43.4031 37.2675 44.2266 36.8183 45.125 36.7221C47.1383 36.5087 49.1714 36.5717 51.1677 36.9094C55.1285 37.5996 58.8529 39.2726 61.9995 41.7753C62.4602 42.1385 62.8192 42.6146 63.0417 43.1574C63.2643 43.7001 63.343 44.2912 63.2701 44.8732C62.7856 48.8654 61.3063 52.6719 58.968 55.9436C57.7822 57.5848 56.3764 59.0553 54.7902 60.3138C54.1888 60.7934 53.4424 61.0546 52.6732 61.0546Z" fill="white" fill-opacity="0.2"/>
<path d="M24.5768 132.298C24.4356 132.298 24.2944 132.289 24.1544 132.271C20.1287 131.774 16.297 130.256 13.0228 127.861C11.3782 126.654 9.90321 125.232 8.63724 123.633C8.09855 122.922 7.86006 122.028 7.973 121.144C8.08593 120.259 8.54128 119.454 9.24124 118.901C9.94121 118.349 10.83 118.093 11.7166 118.188C12.6033 118.284 13.4171 118.723 13.9834 119.412C14.8702 120.533 15.9042 121.529 17.0575 122.374C18.8499 123.686 20.8838 124.631 23.0423 125.155C24.2122 123.267 24.9982 121.167 25.3551 118.975C25.583 117.563 25.6191 116.126 25.4624 114.705C25.3635 113.807 25.6254 112.906 26.1906 112.201C26.7558 111.496 27.5779 111.044 28.4761 110.945C29.3743 110.846 30.275 111.108 30.9801 111.673C31.6851 112.238 32.1368 113.061 32.2357 113.959C32.4566 115.988 32.4045 118.037 32.0808 120.053C31.427 124.053 29.7647 127.822 27.2507 131.002C26.9319 131.406 26.5256 131.732 26.0625 131.957C25.5994 132.181 25.0914 132.298 24.5768 132.298Z" fill="white" fill-opacity="0.2"/>
<path d="M-28.869 26.9325C-29.7091 26.9318 -30.5193 26.6207 -31.144 26.0589C-31.7686 25.4972 -32.1636 24.7244 -32.2531 23.889C-32.4656 21.8762 -32.4026 19.8438 -32.0658 17.8481C-31.3757 13.8867 -29.7026 10.1617 -27.1999 7.01448C-26.8374 6.55314 -26.3613 6.19372 -25.8183 5.97133C-25.2753 5.74894 -24.684 5.67118 -24.1019 5.74565C-20.1101 6.22913 -16.3036 7.70722 -13.0316 10.0443C-11.3907 11.2291 -9.91927 12.6324 -8.658 14.2153C-8.37955 14.5654 -8.17279 14.967 -8.04953 15.397C-7.92626 15.8271 -7.8889 16.2772 -7.93958 16.7217C-7.99027 17.1661 -8.12801 17.5963 -8.34494 17.9875C-8.56186 18.3788 -8.85372 18.7235 -9.20386 19.0019C-9.55399 19.2804 -9.95555 19.4871 -10.3856 19.6104C-10.8156 19.7337 -11.2657 19.771 -11.7102 19.7203C-12.1547 19.6697 -12.5848 19.5319 -12.9761 19.315C-13.3673 19.0981 -13.712 18.8062 -13.9905 18.4561C-14.8672 17.3595 -15.8901 16.3881 -17.0306 15.5693C-18.8217 14.2864 -20.8468 13.367 -22.9915 12.863C-24.1676 14.7296 -24.9666 16.8085 -25.3435 18.9823C-25.5783 20.3652 -25.6224 21.7738 -25.4747 23.1686C-25.3792 24.0665 -25.6442 24.9656 -26.2114 25.6682C-26.7786 26.3708 -27.6016 26.8194 -28.4994 26.9155C-28.6222 26.928 -28.7456 26.9337 -28.869 26.9325Z" fill="white" fill-opacity="0.2"/>
<path d="M0.000686646 109.875C-8.08362 109.875 -15.9864 107.477 -22.7082 102.986C-29.4301 98.4946 -34.6692 92.1108 -37.7629 84.6419C-40.8566 77.173 -41.6661 68.9544 -40.0889 61.0254C-38.5117 53.0964 -34.6188 45.8132 -28.9023 40.0967C-23.1858 34.3803 -15.9026 30.4873 -7.97363 28.9101C-0.0446548 27.3329 8.17394 28.1424 15.6429 31.2361C23.1118 34.3299 29.4956 39.5689 33.987 46.2908C38.4784 53.0126 40.8757 60.9154 40.8757 68.9997C40.8631 79.8366 36.5526 90.226 28.8897 97.8888C21.2269 105.552 10.8375 109.862 0.000686646 109.875ZM0.000686646 34.9372C-6.73624 34.9372 -13.3219 36.9349 -18.9234 40.6778C-24.525 44.4206 -28.8909 49.7405 -31.469 55.9646C-34.0471 62.1887 -34.7216 69.0375 -33.4073 75.645C-32.093 82.2525 -28.8489 88.3218 -24.0851 93.0855C-19.3214 97.8493 -13.252 101.093 -6.64457 102.408C-0.0370941 103.722 6.81174 103.047 13.0358 100.469C19.26 97.8913 24.5798 93.5254 28.3226 87.9238C32.0655 82.3223 34.0632 75.7366 34.0632 68.9997C34.0528 59.969 30.4608 51.3111 24.0751 44.9253C17.6894 38.5396 9.03144 34.9476 0.000686646 34.9372Z" fill="white" fill-opacity="0.2"/>
<path d="M-6.81181 45.156C-6.81181 45.8297 -7.01158 46.4882 -7.38586 47.0484C-7.76015 47.6085 -8.29214 48.0451 -8.91455 48.3029C-9.53696 48.5607 -10.2218 48.6282 -10.8826 48.4968C-11.5433 48.3653 -12.1503 48.0409 -12.6266 47.5645C-13.103 47.0882 -13.4274 46.4812 -13.5589 45.8205C-13.6903 45.1597 -13.6228 44.4749 -13.365 43.8524C-13.1072 43.23 -12.6706 42.698 -12.1105 42.3238C-11.5503 41.9495 -10.8918 41.7497 -10.2181 41.7497C-9.31467 41.7497 -8.44827 42.1086 -7.80948 42.7474C-7.17068 43.3862 -6.81181 44.2526 -6.81181 45.156Z" fill="white" fill-opacity="0.2"/>
<path d="M-13.6243 86.031C-13.6243 86.7047 -13.8241 87.3632 -14.1984 87.9234C-14.5726 88.4835 -15.1046 88.9201 -15.727 89.1779C-16.3495 89.4357 -17.0343 89.5032 -17.6951 89.3718C-18.3558 89.2403 -18.9628 88.9159 -19.4391 88.4395C-19.9155 87.9632 -20.2399 87.3562 -20.3714 86.6955C-20.5028 86.0347 -20.4353 85.3499 -20.1775 84.7274C-19.9197 84.105 -19.4831 83.5731 -18.923 83.1988C-18.3628 82.8245 -17.7043 82.6247 -17.0306 82.6247C-16.1272 82.6247 -15.2608 82.9836 -14.622 83.6224C-13.9832 84.2612 -13.6243 85.1276 -13.6243 86.031Z" fill="white" fill-opacity="0.2"/>
<path d="M13.6257 45.156C13.6257 45.8297 13.4259 46.4882 13.0516 47.0484C12.6774 47.6085 12.1454 48.0451 11.5229 48.3029C10.9005 48.5607 10.2157 48.6282 9.55491 48.4968C8.89416 48.3653 8.28722 48.0409 7.81085 47.5645C7.33448 47.0882 7.01007 46.4812 6.87864 45.8205C6.74721 45.1597 6.81467 44.4749 7.07248 43.8524C7.33029 43.23 7.76688 42.698 8.32703 42.3238C8.88718 41.9495 9.54575 41.7497 10.2194 41.7497C11.1228 41.7497 11.9892 42.1086 12.628 42.7474C13.2668 43.3862 13.6257 44.2526 13.6257 45.156Z" fill="white" fill-opacity="0.2"/>
<path d="M20.4382 79.2185C20.4382 79.8922 20.2384 80.5507 19.8641 81.1109C19.4899 81.671 18.9579 82.1076 18.3354 82.3654C17.713 82.6232 17.0282 82.6907 16.3674 82.5593C15.7067 82.4278 15.0997 82.1034 14.6234 81.627C14.147 81.1507 13.8226 80.5437 13.6911 79.883C13.5597 79.2222 13.6272 78.5374 13.885 77.9149C14.1428 77.2925 14.5794 76.7606 15.1395 76.3863C15.6997 76.012 16.3582 75.8122 17.0319 75.8122C17.9353 75.8122 18.8017 76.1711 19.4405 76.8099C20.0793 77.4487 20.4382 78.3151 20.4382 79.2185Z" fill="white" fill-opacity="0.2"/>
<path d="M27.2507 58.781C27.2507 59.4547 27.0509 60.1132 26.6766 60.6734C26.3024 61.2335 25.7704 61.6701 25.1479 61.9279C24.5255 62.1857 23.8407 62.2532 23.1799 62.1218C22.5192 61.9903 21.9122 61.6659 21.4359 61.1895C20.9595 60.7132 20.6351 60.1062 20.5036 59.4455C20.3722 58.7847 20.4397 58.0999 20.6975 57.4774C20.9553 56.855 21.3919 56.323 21.952 55.9488C22.5122 55.5745 23.1707 55.3747 23.8444 55.3747C24.7478 55.3747 25.6142 55.7336 26.253 56.3724C26.8918 57.0112 27.2507 57.8776 27.2507 58.781Z" fill="white" fill-opacity="0.2"/>
<path d="M6.81319 92.8435C6.81319 93.5172 6.61342 94.1757 6.23914 94.7359C5.86485 95.296 5.33286 95.7326 4.71045 95.9904C4.08804 96.2482 3.40315 96.3157 2.74241 96.1843C2.08166 96.0528 1.47472 95.7284 0.998352 95.252C0.52198 94.7757 0.197571 94.1687 0.0661392 93.508C-0.0652924 92.8472 0.00216675 92.1624 0.259979 91.5399C0.517792 90.9175 0.954376 90.3856 1.51453 90.0113C2.07468 89.637 2.73325 89.4372 3.40694 89.4372C4.31033 89.4372 5.17673 89.7961 5.81552 90.4349C6.45432 91.0737 6.81319 91.9401 6.81319 92.8435Z" fill="white" fill-opacity="0.2"/>
<path d="M-20.4368 65.5935C-20.4368 66.2672 -20.6366 66.9257 -21.0109 67.4859C-21.3851 68.046 -21.9171 68.4826 -22.5395 68.7404C-23.162 68.9982 -23.8468 69.0657 -24.5076 68.9343C-25.1683 68.8028 -25.7753 68.4784 -26.2516 68.002C-26.728 67.5257 -27.0524 66.9187 -27.1839 66.258C-27.3153 65.5972 -27.2478 64.9124 -26.99 64.2899C-26.7322 63.6675 -26.2956 63.1355 -25.7355 62.7613C-25.1753 62.387 -24.5168 62.1872 -23.8431 62.1872C-22.9397 62.1872 -22.0733 62.5461 -21.4345 63.1849C-20.7957 63.8237 -20.4368 64.6901 -20.4368 65.5935Z" fill="white" fill-opacity="0.2"/>
<path d="M0.000686646 65.5935C0.000686646 66.2672 -0.199081 66.9257 -0.573364 67.4859C-0.947647 68.046 -1.47964 68.4826 -2.10205 68.7404C-2.72446 68.9982 -3.40935 69.0657 -4.07009 68.9343C-4.73084 68.8028 -5.33778 68.4784 -5.81415 68.002C-6.29052 67.5257 -6.61493 66.9187 -6.74636 66.258C-6.87779 65.5972 -6.81034 64.9124 -6.55253 64.2899C-6.29472 63.6675 -5.85813 63.1355 -5.29797 62.7613C-4.73782 62.387 -4.07925 62.1872 -3.40556 62.1872C-2.50217 62.1872 -1.63577 62.5461 -0.996979 63.1849C-0.358185 63.8237 0.000686646 64.6901 0.000686646 65.5935Z" fill="white" fill-opacity="0.2"/>
</svg>
