<svg width="144" height="110" viewBox="0 0 144 110" fill="none" xmlns="http://www.w3.org/2000/svg">
<path fill-rule="evenodd" clip-rule="evenodd" d="M115.875 3.90625C115.875 2.02503 117.4 0.5 119.281 0.5H126.094C135.523 0.5 143.125 8.10178 143.125 17.5312C143.125 25.7937 137.288 32.6528 129.5 34.2241V106.094C129.5 107.975 127.975 109.5 126.094 109.5H78.4062C76.525 109.5 75 107.975 75 106.094C75 104.213 76.525 102.688 78.4062 102.688H122.688V31.1562C122.688 29.275 124.213 27.75 126.094 27.75C131.761 27.75 136.312 23.1983 136.312 17.5312C136.312 11.8642 131.761 7.3125 126.094 7.3125H119.281C117.4 7.3125 115.875 5.78747 115.875 3.90625Z" fill="white" fill-opacity="0.2"/>
<path fill-rule="evenodd" clip-rule="evenodd" d="M0.0625 17.5312C0.0625 8.10178 7.66428 0.5 17.0938 0.5H78.4062C87.8357 0.5 95.4375 8.10178 95.4375 17.5312C95.4375 25.7937 89.601 32.6528 81.8125 34.2241V106.094C81.8125 107.975 80.2875 109.5 78.4062 109.5H17.0938C15.2125 109.5 13.6875 107.975 13.6875 106.094V34.2241C5.89902 32.6528 0.0625 25.7937 0.0625 17.5312ZM17.0938 7.3125C11.4267 7.3125 6.875 11.8642 6.875 17.5312C6.875 23.1983 11.4267 27.75 17.0938 27.75C18.975 27.75 20.5 29.275 20.5 31.1562V102.688H75V31.1562C75 29.275 76.525 27.75 78.4062 27.75C84.0733 27.75 88.625 23.1983 88.625 17.5312C88.625 11.8642 84.0733 7.3125 78.4062 7.3125H17.0938Z" fill="white" fill-opacity="0.2"/>
<path d="M109.062 3.90625C109.062 5.78745 107.537 7.3125 105.656 7.3125C103.775 7.3125 102.25 5.78745 102.25 3.90625C102.25 2.02505 103.775 0.5 105.656 0.5C107.537 0.5 109.062 2.02505 109.062 3.90625Z" fill="white" fill-opacity="0.2"/>
</svg>
