<svg width="103" height="138" viewBox="0 0 103 138" fill="none" xmlns="http://www.w3.org/2000/svg">
<path d="M51.735 116.687C51.1165 116.688 50.5098 116.519 49.9808 116.199C44.8083 113.082 40.6285 108.559 37.9287 103.158C35.2289 97.7561 34.1205 91.6983 34.7327 85.6906C35.4215 80.1077 37.2405 74.7236 40.0788 69.8669C42.7557 65.2925 45.7414 60.9058 49.0151 56.7375C52.1009 52.8133 54.9207 48.687 57.4558 44.3864C59.8429 40.3398 61.383 35.8504 61.9827 31.1906C62.4458 26.4669 61.5743 21.7079 59.4672 17.4549C59.0627 16.6471 58.9957 15.7116 59.2809 14.8543C59.5661 13.9971 60.1802 13.2882 60.988 12.8837C61.7959 12.4792 62.7314 12.4122 63.5886 12.6975C64.4459 12.9827 65.1547 13.5968 65.5592 14.4046C68.2372 19.8135 69.343 25.8655 68.7509 31.8719C68.0638 37.4547 66.2459 42.8389 63.4082 47.6956C60.7275 52.2701 57.7384 56.6567 54.4617 60.825C51.3746 64.7483 48.5546 68.8746 46.021 73.1761C43.6368 77.2246 42.0996 81.715 41.5026 86.3753C41.0212 91.0993 41.8931 95.8628 44.0167 100.11C46.1403 104.357 49.4279 107.913 53.496 110.362C54.1346 110.746 54.6296 111.329 54.9053 112.021C55.181 112.713 55.222 113.477 55.0222 114.195C54.8223 114.913 54.3926 115.545 53.7988 115.995C53.2051 116.446 52.4801 116.689 51.735 116.687Z" fill="white" fill-opacity="0.2"/>
<path d="M57.9991 103.062C55.7926 103.062 53.5954 102.776 51.4625 102.211C50.8806 102.057 50.3497 101.752 49.924 101.327C49.4983 100.901 49.1929 100.371 49.0389 99.7891C47.8923 95.6575 47.8622 91.2956 48.952 87.1486C50.0417 83.0016 52.2121 79.218 55.2417 76.1838C58.3045 73.1446 62.1087 70.9589 66.2769 69.8437C70.4451 68.7284 74.8324 68.7223 79.0037 69.826C79.5853 69.9799 80.1158 70.285 80.5412 70.7104C80.9666 71.1358 81.2717 71.6663 81.4255 72.2479C82.5289 76.4191 82.5226 80.8064 81.4074 84.9745C80.2922 89.1427 78.1067 92.9469 75.0678 96.0099C72.8299 98.255 70.1692 100.034 67.2394 101.245C64.3097 102.455 61.169 103.073 57.9991 103.062ZM55.2093 96.0354C57.9214 96.4742 60.6988 96.2635 63.3137 95.4206C65.9285 94.5777 68.3061 93.1267 70.2513 91.1866C72.205 89.2151 73.6736 86.8163 74.5411 84.1798C75.4086 81.5433 75.6513 78.7412 75.25 75.9947C72.5035 75.5917 69.7009 75.8335 67.0641 76.7011C64.4273 77.5687 62.0287 79.0383 60.0581 80.9934C58.1171 82.9393 56.6654 85.3181 55.8225 87.9342C54.9796 90.5503 54.7694 93.3291 55.2093 96.0422V96.0354Z" fill="white" fill-opacity="0.2"/>
<path d="M45.1882 41.75C42.018 41.7598 38.8773 41.1409 35.9478 39.9292C33.0183 38.7174 30.3581 36.9369 28.1211 34.6905C25.0824 31.6275 22.8971 27.8232 21.7822 23.6551C20.6673 19.4869 20.6614 15.0997 21.7651 10.9285C21.9189 10.347 22.2241 9.81649 22.6495 9.39109C23.0749 8.9657 23.6053 8.66056 24.1869 8.5067C28.3579 7.40266 32.7451 7.40857 36.9131 8.52384C41.0811 9.63911 44.885 11.825 47.9472 14.8645C50.9774 17.8997 53.148 21.6846 54.2374 25.8328C55.3269 29.9811 55.2961 34.3441 54.1483 38.4766C53.9944 39.0582 53.6893 39.5886 53.2639 40.014C52.8385 40.4394 52.308 40.7446 51.7265 40.8984C49.5928 41.4627 47.3952 41.749 45.1882 41.75ZM27.9406 14.689C27.5384 17.4354 27.7805 20.2376 28.6478 22.8742C29.515 25.5108 30.9836 27.9096 32.9376 29.8809C34.8821 31.8215 37.2594 33.2727 39.8741 34.1154C42.4888 34.958 45.2662 35.168 47.9779 34.728C48.4166 32.0164 48.206 29.2393 47.3634 26.6248C46.5209 24.0103 45.0703 21.6329 43.1308 19.6877C41.1596 17.7341 38.7611 16.2655 36.1249 15.3979C33.4886 14.5304 30.6868 14.2877 27.9406 14.689Z" fill="white" fill-opacity="0.2"/>
<path d="M51.396 137.094C42.0303 137.16 32.6838 136.235 23.5125 134.335C9.15684 131.178 1.21347 126.068 0.542437 119.561C0.201812 116.173 1.74995 111.253 11.141 107.039C15.1232 105.328 19.2681 104.022 23.5125 103.143C24.3889 102.963 25.3007 103.136 26.0509 103.623C26.8011 104.111 27.3294 104.874 27.5218 105.747C27.7141 106.621 27.5551 107.535 27.0789 108.293C26.6028 109.05 25.8479 109.59 24.9772 109.795C21.1878 110.575 17.4864 111.733 13.929 113.254C8.85879 115.529 7.19995 117.697 7.31236 118.862C7.52184 120.893 12.3962 124.917 24.9704 127.683C45.9018 132.281 74.7408 130.733 89.2548 124.222C94.325 121.948 95.9821 119.779 95.8629 118.615C95.6534 116.584 90.7791 112.561 78.2066 109.795C77.763 109.706 77.3415 109.529 76.9669 109.275C76.5923 109.021 76.272 108.696 76.0248 108.316C75.7775 107.937 75.6083 107.513 75.5269 107.068C75.4456 106.623 75.4537 106.166 75.5509 105.724C75.6481 105.282 75.8324 104.864 76.093 104.494C76.3536 104.124 76.6854 103.81 77.0688 103.569C77.4522 103.329 77.8797 103.167 78.3263 103.094C78.7728 103.021 79.2295 103.037 79.6696 103.143C94.027 106.298 101.97 111.408 102.641 117.917C102.982 121.303 101.434 126.225 92.0428 130.439C82.3929 134.77 66.9847 137.094 51.396 137.094Z" fill="white" fill-opacity="0.2"/>
<path d="M61.8124 4.28125C61.8124 4.95494 61.6126 5.61351 61.2383 6.17366C60.864 6.73382 60.332 7.1704 59.7096 7.42821C59.0872 7.68603 58.4023 7.75348 57.7416 7.62205C57.0808 7.49062 56.4739 7.1662 55.9975 6.68983C55.5211 6.21346 55.1967 5.60652 55.0653 4.94578C54.9339 4.28503 55.0013 3.60014 55.2591 2.97773C55.517 2.35532 55.9535 1.82334 56.5137 1.44906C57.0739 1.07477 57.7324 0.875 58.4061 0.875C59.3095 0.875 60.1759 1.23387 60.8147 1.87267C61.4535 2.51146 61.8124 3.37786 61.8124 4.28125Z" fill="white" fill-opacity="0.2"/>
</svg>
