<svg width="138" height="138" viewBox="0 0 138 138" fill="none" xmlns="http://www.w3.org/2000/svg">
<path d="M61.6125 34.7448C61.0329 34.745 60.4627 34.5973 59.9561 34.3157C59.4494 34.0341 59.023 33.6278 58.7172 33.1353C56.5312 29.6174 55.3737 25.5578 55.3757 21.4161C55.4126 17.3087 56.5382 13.2846 58.6377 9.7541C60.7371 6.22361 63.7353 3.31305 67.3265 1.31923C67.8372 1.03121 68.4135 0.879883 68.9998 0.879883C69.5861 0.879883 70.1625 1.03121 70.6732 1.31923C74.265 3.31242 77.2638 6.22279 79.3637 9.75339C81.4635 13.284 82.5891 17.3084 82.6257 21.4161C82.6273 25.5565 81.4704 29.6147 79.2859 33.1319C78.8095 33.8998 78.0477 34.447 77.1679 34.6532C76.2881 34.8593 75.3625 34.7076 74.5946 34.2313C73.8267 33.7549 73.2795 32.9931 73.0733 32.1133C72.8672 31.2335 73.0189 30.3079 73.4952 29.54C75.0209 27.1059 75.8247 24.2888 75.8132 21.4161C75.7882 18.8517 75.1582 16.3295 73.9744 14.0545C72.7906 11.7796 71.0865 9.81622 69.0007 8.32418C66.9146 9.81593 65.2103 11.7792 64.0265 14.0542C62.8426 16.3292 62.2128 18.8516 62.1882 21.4161C62.1749 24.2886 62.9775 27.1058 64.5027 29.54C64.8235 30.056 65.0005 30.6484 65.0152 31.2558C65.03 31.8632 64.882 32.4634 64.5867 32.9944C64.2913 33.5253 63.8593 33.9676 63.3355 34.2754C62.8116 34.5832 62.215 34.7452 61.6074 34.7448H61.6125Z" fill="white" fill-opacity="0.2"/>
<path d="M69.0007 137.125C68.4141 137.125 67.8374 136.973 67.3265 136.685C64.611 135.239 62.2201 133.252 60.301 130.847C58.3819 128.443 56.9751 125.671 56.1672 122.702C55.3594 119.733 55.1675 116.63 55.6034 113.585C56.0393 110.539 57.0937 107.615 58.7019 104.992C59.1726 104.221 59.9303 103.668 60.8085 103.455C61.6867 103.243 62.6134 103.388 63.3846 103.858C64.1559 104.329 64.7086 105.087 64.9212 105.965C65.1337 106.843 64.9887 107.77 64.5181 108.541C62.4073 111.967 61.6954 116.074 62.5299 120.01C63.3645 123.946 65.6814 127.411 69.0007 129.685C72.3203 127.411 74.6375 123.947 75.4724 120.01C76.3072 116.074 75.5956 111.967 73.485 108.541C73.0249 107.77 72.8876 106.849 73.1029 105.978C73.3183 105.107 73.8688 104.355 74.635 103.888C75.4011 103.42 76.3209 103.274 77.1943 103.48C78.0678 103.687 78.8243 104.23 79.2995 104.992C80.9078 107.615 81.9624 110.539 82.3983 113.585C82.8342 116.631 82.6422 119.734 81.8342 122.702C81.0261 125.671 79.6191 128.443 77.6997 130.848C75.7802 133.253 73.389 135.239 70.6732 136.685C70.1629 136.974 69.5868 137.125 69.0007 137.125Z" fill="white" fill-opacity="0.2"/>
<path d="M21.4171 82.6247C17.3094 82.5881 13.285 81.4625 9.75437 79.3627C6.22377 77.2629 3.3134 74.264 1.3202 70.6722C1.03219 70.1615 0.880859 69.5851 0.880859 68.9989C0.880859 68.4126 1.03219 67.8362 1.3202 67.3255C3.31403 63.7343 6.22458 60.7361 9.75507 58.6367C13.2856 56.5373 17.3097 55.4117 21.4171 55.3747C25.5583 55.3725 29.6174 56.53 33.1346 58.7162C33.9025 59.193 34.4495 59.9553 34.6554 60.8354C34.8612 61.7155 34.709 62.6413 34.2322 63.4092C33.7555 64.1771 32.9932 64.7241 32.1131 64.93C31.233 65.1358 30.3072 64.9836 29.5393 64.5069C27.1058 62.9809 24.2894 62.1765 21.4171 62.1872C18.8526 62.2117 16.3301 62.8415 14.0551 64.0253C11.7801 65.2091 9.81681 66.9135 8.32516 68.9997C9.8172 71.0855 11.7806 72.7896 14.0555 73.9734C16.3304 75.1572 18.8527 75.7872 21.4171 75.8122C24.2888 75.8255 27.1053 75.0235 29.5393 73.4994C29.9195 73.2633 30.3425 73.1044 30.7841 73.0318C31.2257 72.9592 31.6773 72.9743 32.1131 73.0763C32.5489 73.1782 32.9603 73.365 33.3239 73.6259C33.6875 73.8868 33.9962 74.2168 34.2322 74.597C34.4683 74.9772 34.6272 75.4002 34.6998 75.8419C34.7724 76.2835 34.7573 76.7351 34.6554 77.1708C34.5534 77.6066 34.3667 78.0181 34.1057 78.3817C33.8448 78.7453 33.5148 79.0539 33.1346 79.29C29.6167 81.4737 25.5576 82.6289 21.4171 82.6247Z" fill="white" fill-opacity="0.2"/>
<path d="M116.792 82.6247C112.628 82.6216 108.545 81.4707 104.993 79.2985C104.606 79.0678 104.269 78.7627 104.002 78.401C103.734 78.0392 103.54 77.628 103.432 77.191C103.324 76.754 103.304 76.2999 103.372 75.8551C103.441 75.4102 103.597 74.9833 103.832 74.5991C104.066 74.2149 104.374 73.8809 104.739 73.6166C105.103 73.3523 105.516 73.1628 105.954 73.0592C106.392 72.9555 106.847 72.9396 107.291 73.0126C107.735 73.0855 108.16 73.2457 108.542 73.484C111.968 75.5947 116.075 76.3063 120.011 75.4714C123.948 74.6366 127.412 72.3193 129.686 68.9997C127.412 65.6801 123.948 63.3629 120.011 62.528C116.075 61.6932 111.968 62.4048 108.542 64.5154C107.771 64.9755 106.85 65.1128 105.979 64.8975C105.108 64.6821 104.356 64.1316 103.889 63.3654C103.421 62.5993 103.275 61.6795 103.481 60.8061C103.688 59.9326 104.231 59.1761 104.993 58.7009C107.616 57.0928 110.54 56.0383 113.586 55.6024C116.631 55.1665 119.734 55.3584 122.703 56.1663C125.672 56.9741 128.444 58.3809 130.848 60.3C133.253 62.2191 135.24 64.61 136.686 67.3255C136.974 67.8362 137.126 68.4126 137.126 68.9989C137.126 69.5852 136.974 70.1615 136.686 70.6722C134.748 74.2663 131.878 77.2726 128.378 79.3756C124.877 81.4786 120.876 82.6009 116.792 82.6247Z" fill="white" fill-opacity="0.2"/>
<path d="M28.732 118.922C26.5658 118.922 24.4097 118.626 22.3231 118.045C21.7581 117.887 21.2433 117.587 20.8285 117.172C20.4138 116.757 20.1132 116.242 19.9558 115.677C18.8254 111.728 18.7632 107.549 19.7758 103.567C20.7883 99.5853 22.8392 95.9437 25.7192 93.0138C28.6462 90.0849 32.3337 88.0327 36.3654 87.0886C37.2462 86.8826 38.1728 87.035 38.9412 87.5122C39.7097 87.9894 40.2572 88.7523 40.4631 89.6331C40.6691 90.5139 40.5167 91.4404 40.0396 92.2089C39.5624 92.9774 38.7995 93.5248 37.9187 93.7308C35.1182 94.3741 32.5579 95.7992 30.5356 97.8404C28.7397 99.6705 27.4015 101.899 26.6299 104.344C25.8584 106.789 25.6753 109.382 26.0956 111.912C28.6253 112.331 31.2183 112.147 33.6638 111.376C36.1093 110.605 38.3385 109.268 40.1702 107.473C42.2105 105.451 43.6351 102.892 44.2781 100.092C44.4891 99.218 45.0371 98.463 45.8025 97.9914C46.5679 97.5198 47.4887 97.37 48.3642 97.5745C49.2396 97.779 49.9987 98.3214 50.476 99.0833C50.9532 99.8452 51.1099 100.765 50.9118 101.642C49.9678 105.672 47.9154 109.357 44.9866 112.281C40.6631 116.562 34.8163 118.951 28.732 118.922Z" fill="white" fill-opacity="0.2"/>
<path d="M100.927 50.9278C100.094 50.9274 99.2896 50.6215 98.6666 50.0679C98.0436 49.5143 97.6451 48.7514 97.5467 47.9238C97.4483 47.0962 97.6567 46.2612 98.1325 45.5769C98.6084 44.8926 99.3186 44.4066 100.129 44.2107C104.045 43.2828 107.455 40.8832 109.65 37.5094C111.845 34.1355 112.658 30.0463 111.919 26.0895C107.965 25.3511 103.877 26.1623 100.504 28.3551C97.1308 30.5479 94.7304 33.9541 93.7999 37.8683C93.6948 38.3032 93.505 38.7131 93.2415 39.0747C92.9779 39.4363 92.6457 39.7424 92.2639 39.9756C91.882 40.2088 91.458 40.3645 91.016 40.4338C90.574 40.5031 90.1226 40.4847 89.6877 40.3795C89.2528 40.2744 88.8429 40.0847 88.4813 39.8211C88.1197 39.5576 87.8136 39.2254 87.5804 38.8435C87.3472 38.4617 87.1915 38.0377 87.1222 37.5956C87.0529 37.1536 87.0713 36.7023 87.1764 36.2673C87.8939 33.2761 89.2157 30.4632 91.0604 28.0016C92.9052 25.54 95.2339 23.4818 97.9035 21.9534C100.573 20.4251 103.527 19.4589 106.584 19.1143C109.64 18.7697 112.735 19.054 115.678 19.9497C116.243 20.1071 116.758 20.4077 117.173 20.8225C117.588 21.2372 117.888 21.752 118.046 22.3171C118.943 25.2601 119.228 28.3555 118.885 31.413C118.541 34.4704 117.576 37.4253 116.048 40.0957C114.52 42.7662 112.461 45.0959 110 46.9414C107.538 48.787 104.725 50.1094 101.733 50.8274C101.469 50.8925 101.199 50.9262 100.927 50.9278Z" fill="white" fill-opacity="0.2"/>
<path d="M109.295 118.922C103.21 118.951 97.3633 116.561 93.0403 112.28C90.1115 109.353 88.0597 105.665 87.1168 101.633C87.0059 101.195 86.9834 100.738 87.0507 100.291C87.1181 99.8437 87.2738 99.4143 87.5089 99.0277C87.744 98.6412 88.0537 98.3054 88.42 98.0399C88.7863 97.7745 89.2018 97.5846 89.6423 97.4814C90.0828 97.3783 90.5394 97.3639 90.9855 97.4391C91.4316 97.5143 91.8582 97.6777 92.2405 97.9196C92.6228 98.1615 92.953 98.4771 93.212 98.8481C93.471 99.219 93.6535 99.6378 93.7488 100.08C94.392 102.88 95.8165 105.44 97.8567 107.463C99.6869 109.26 101.916 110.599 104.362 111.37C106.808 112.141 109.402 112.323 111.931 111.901C112.351 109.372 112.167 106.779 111.396 104.334C110.624 101.889 109.287 99.6608 107.491 97.8302C105.47 95.7891 102.91 94.3645 100.11 93.7223C99.6738 93.6205 99.262 93.4338 98.898 93.1729C98.5341 92.912 98.225 92.5819 97.9886 92.2016C97.7521 91.8212 97.5929 91.3981 97.5201 90.9562C97.4472 90.5143 97.462 90.0624 97.5638 89.6263C97.6656 89.1901 97.8522 88.7783 98.1132 88.4143C98.3741 88.0503 98.7041 87.7413 99.0845 87.5049C99.4648 87.2684 99.888 87.1092 100.33 87.0363C100.772 86.9635 101.224 86.9783 101.66 87.0801C105.694 88.0247 109.383 90.0802 112.309 93.0138C115.189 95.944 117.239 99.5858 118.251 103.567C119.264 107.549 119.201 111.728 118.071 115.677C117.914 116.242 117.614 116.757 117.199 117.172C116.785 117.586 116.27 117.887 115.705 118.045C113.618 118.626 111.462 118.922 109.295 118.922Z" fill="white" fill-opacity="0.2"/>
<path d="M37.0978 50.9296C36.8263 50.9289 36.556 50.8963 36.2922 50.8325C33.3006 50.1144 30.4876 48.7918 28.0261 46.9461C25.5646 45.1005 23.5068 42.7707 21.9791 40.1002C20.4515 37.4297 19.4863 34.4749 19.1431 31.4176C18.7998 28.3602 19.0857 25.2649 19.9831 22.3222C20.1404 21.7571 20.4411 21.2423 20.8558 20.8276C21.2705 20.4128 21.7854 20.1122 22.3504 19.9548C25.2933 19.057 28.3888 18.7709 31.4464 19.1142C34.504 19.4574 37.459 20.4228 40.1295 21.9509C42.8001 23.479 45.1296 25.5374 46.9749 27.9995C48.8201 30.4616 50.1419 33.2753 50.859 36.2674C50.9642 36.7021 50.9828 37.1534 50.9136 37.5954C50.8445 38.0373 50.6889 38.4613 50.4559 38.8432C50.2229 39.2251 49.9169 39.5573 49.5555 39.8209C49.194 40.0845 48.7842 40.2743 48.3494 40.3795C47.9147 40.4848 47.4634 40.5033 47.0214 40.4342C46.5795 40.365 46.1555 40.2095 45.7736 39.9764C45.3918 39.7434 45.0595 39.4374 44.7959 39.076C44.5323 38.7146 44.3425 38.3048 44.2372 37.87C43.3071 33.9552 40.9066 30.5482 37.533 28.3551C34.1594 26.1619 30.0714 25.3507 26.116 26.0895C25.3773 30.0451 26.1887 34.1333 28.3822 37.507C30.5757 40.8806 33.9831 43.281 37.8982 44.2107C38.7101 44.4052 39.4223 44.891 39.8996 45.5759C40.3769 46.2609 40.586 47.0973 40.4873 47.9263C40.3885 48.7553 39.9887 49.5191 39.3639 50.0728C38.739 50.6264 37.9326 50.9313 37.0978 50.9296Z" fill="white" fill-opacity="0.2"/>
<path d="M98.1548 27.2953C98.0199 27.2955 97.8852 27.2881 97.7511 27.2731C97.3068 27.2208 96.8772 27.0814 96.4867 26.8629C96.0963 26.6444 95.7527 26.3512 95.4756 25.9999C95.1985 25.6487 94.9934 25.2463 94.8718 24.8157C94.7503 24.3851 94.7148 23.9348 94.7673 23.4905C94.9335 22.0708 94.9071 20.6351 94.6889 19.2225C94.3492 17.0281 93.5794 14.9225 92.4238 13.0265C90.2613 13.5334 88.2204 14.463 86.4185 15.7617C85.259 16.5986 84.2175 17.5879 83.3223 18.703C82.7498 19.3833 81.934 19.8128 81.0491 19.8997C80.1642 19.9867 79.2805 19.7242 78.5865 19.1683C77.8926 18.6125 77.4435 17.8073 77.3352 16.9248C77.2269 16.0423 77.4679 15.1524 78.0068 14.4452C79.2851 12.8531 80.771 11.4394 82.4247 10.2419C85.7166 7.873 89.5586 6.38345 93.587 5.91426C94.1692 5.84499 94.7595 5.92764 95.3003 6.15417C95.8411 6.3807 96.314 6.74339 96.6731 7.20693C99.1668 10.4046 100.802 14.1866 101.423 18.1938C101.734 20.2108 101.771 22.2606 101.534 24.2876C101.436 25.1156 101.038 25.879 100.416 26.4333C99.7929 26.9877 98.9885 27.2943 98.1548 27.2953Z" fill="white" fill-opacity="0.2"/>
<path d="M44.0176 132.109C43.4986 132.109 42.9866 131.99 42.5205 131.762C42.0545 131.534 41.6467 131.202 41.3283 130.792C38.8484 127.628 37.2029 123.891 36.5425 119.925C36.2197 117.927 36.171 115.895 36.3978 113.884C36.5003 112.986 36.9553 112.166 37.6626 111.604C38.3699 111.041 39.2716 110.783 40.1693 110.886C41.0671 110.988 41.8873 111.443 42.4496 112.15C43.0119 112.858 43.2702 113.759 43.1677 114.657C43.0097 116.051 43.0435 117.459 43.2682 118.843C43.6292 121.018 44.4132 123.101 45.5759 124.975C47.7272 124.487 49.7622 123.583 51.5658 122.313C52.7091 121.499 53.7364 120.533 54.6195 119.443C54.9004 119.095 55.2471 118.805 55.6399 118.591C56.0326 118.377 56.4637 118.242 56.9085 118.195C57.3533 118.147 57.8031 118.188 58.2322 118.314C58.6614 118.441 59.0614 118.65 59.4095 118.931C59.7577 119.212 60.047 119.559 60.2612 119.951C60.4753 120.344 60.61 120.775 60.6575 121.22C60.705 121.665 60.6645 122.115 60.5381 122.544C60.4118 122.973 60.2022 123.373 59.9213 123.721C58.6493 125.295 57.1674 126.688 55.517 127.86C52.2295 130.175 48.4128 131.626 44.4178 132.08C44.285 132.097 44.1514 132.107 44.0176 132.109Z" fill="white" fill-opacity="0.2"/>
<path d="M16.57 60.7413C15.7955 60.7426 15.044 60.478 14.4411 59.9919C12.8504 58.7149 11.4384 57.2302 10.2429 55.5774C7.87331 52.2857 6.38316 48.4437 5.91353 44.4151C5.84497 43.8327 5.92793 43.2424 6.1544 42.7015C6.38086 42.1605 6.74316 41.6872 7.2062 41.3273C10.4045 38.8344 14.1861 37.1989 18.1931 36.5756C20.2098 36.2672 22.2587 36.2305 24.2851 36.4666C25.1824 36.5719 26.0012 37.0292 26.5612 37.7382C27.1213 38.4471 27.3768 39.3494 27.2716 40.2467C27.1663 41.144 26.7089 41.9627 26 42.5228C25.2911 43.0829 24.3888 43.3384 23.4915 43.2331C22.0711 43.0686 20.6351 43.0949 19.2217 43.3115C17.0271 43.651 14.9214 44.4214 13.0258 45.5783C13.5341 47.7404 14.4635 49.781 15.761 51.5836C16.5993 52.7414 17.5884 53.7822 18.7023 54.6781C19.2527 55.1197 19.6524 55.7213 19.8461 56.3998C20.0398 57.0783 20.018 57.8003 19.7838 58.4659C19.5495 59.1315 19.1143 59.7079 18.5383 60.1155C17.9623 60.5231 17.2756 60.7418 16.57 60.7413Z" fill="white" fill-opacity="0.2"/>
<path d="M116.377 101.744C115.544 101.743 114.712 101.696 113.885 101.603C112.987 101.5 112.167 101.045 111.605 100.338C111.042 99.6305 110.784 98.7288 110.886 97.8311C110.989 96.9333 111.444 96.1131 112.151 95.5508C112.859 94.9885 113.76 94.7302 114.658 94.8327C116.052 94.9898 117.461 94.956 118.846 94.7322C121.021 94.3705 123.104 93.5865 124.977 92.4245C124.489 90.2731 123.584 88.2381 122.314 86.4346C121.5 85.2903 120.535 84.2623 119.444 83.3792C119.091 83.0997 118.797 82.7531 118.579 82.3593C118.361 81.9655 118.223 81.5325 118.174 81.0852C118.124 80.6378 118.164 80.1851 118.29 79.7531C118.416 79.3212 118.627 78.9185 118.91 78.5684C119.193 78.2184 119.542 77.9279 119.938 77.7136C120.334 77.4994 120.768 77.3658 121.216 77.3205C121.664 77.2751 122.116 77.319 122.547 77.4495C122.978 77.58 123.378 77.7945 123.726 78.0808C125.299 79.3527 126.691 80.834 127.862 82.4834C130.176 85.7722 131.627 89.5891 132.083 93.5843C132.151 94.1667 132.068 94.757 131.842 95.298C131.615 95.8389 131.253 96.3122 130.79 96.6721C127.626 99.1519 123.89 100.798 119.924 101.46C118.751 101.648 117.565 101.743 116.377 101.744Z" fill="white" fill-opacity="0.2"/>
<path d="M21.5891 101.345C20.3758 101.346 19.1644 101.249 17.9665 101.056C13.9613 100.405 10.1888 98.7422 7.00694 96.2242C6.54663 95.8607 6.18796 95.3846 5.96567 94.8418C5.74338 94.2991 5.66499 93.7081 5.73811 93.1262C6.23635 89.1023 7.75412 85.2725 10.1475 81.9997C11.3542 80.3543 12.7772 78.8792 14.3781 77.6141C14.7294 77.3368 15.132 77.1314 15.5627 77.0096C15.9935 76.8878 16.444 76.8521 16.8886 76.9045C17.3331 76.9568 17.763 77.0962 18.1537 77.3147C18.5444 77.5332 18.8882 77.8265 19.1655 78.1779C19.4429 78.5292 19.6483 78.9318 19.7701 79.3625C19.8918 79.7933 19.9275 80.2438 19.8752 80.6883C19.8229 81.1329 19.6835 81.5628 19.465 81.9535C19.2465 82.3442 18.9532 82.688 18.6018 82.9653C17.4813 83.85 16.4846 84.8811 15.6384 86.031C14.3279 87.8238 13.3839 89.8576 12.8606 92.0157C14.7492 93.1858 16.8501 93.9718 19.0429 94.3286C20.451 94.5544 21.8829 94.591 23.3007 94.4376C24.1961 94.344 25.0921 94.6087 25.7929 95.1738C26.4937 95.7389 26.9423 96.5584 27.0407 97.4533C27.139 98.3481 26.8791 99.2455 26.3178 99.9493C25.7565 100.653 24.9393 101.106 24.045 101.209C23.2295 101.3 22.4096 101.345 21.5891 101.345Z" fill="white" fill-opacity="0.2"/>
<path d="M121.673 61.0546C120.966 61.055 120.277 60.8353 119.7 60.4262C119.124 60.017 118.689 59.4386 118.456 58.7712C118.223 58.1037 118.203 57.3803 118.4 56.7012C118.596 56.0221 118.999 55.421 119.553 54.9813C120.652 54.1079 121.626 53.0879 122.448 51.9497C123.732 50.1555 124.652 48.1268 125.156 45.9786C123.289 44.8033 121.21 44.0049 119.037 43.6283C117.654 43.3927 116.245 43.3485 114.851 43.4971C114.406 43.5448 113.956 43.5043 113.527 43.3781C113.097 43.2519 112.697 43.0423 112.349 42.7615C111.646 42.1942 111.196 41.3708 111.1 40.4724C111.004 39.5739 111.269 38.6741 111.836 37.9708C112.403 37.2675 113.227 36.8183 114.125 36.7221C116.138 36.5087 118.171 36.5717 120.168 36.9094C124.129 37.5996 127.853 39.2726 131 41.7753C131.46 42.1385 131.819 42.6146 132.042 43.1574C132.264 43.7001 132.343 44.2912 132.27 44.8732C131.786 48.8654 130.306 52.6719 127.968 55.9436C126.782 57.5848 125.376 59.0553 123.79 60.3138C123.189 60.7934 122.442 61.0546 121.673 61.0546Z" fill="white" fill-opacity="0.2"/>
<path d="M93.5768 132.298C93.4356 132.298 93.2945 132.289 93.1544 132.271C89.1287 131.774 85.297 130.256 82.0228 127.861C80.3782 126.654 78.9032 125.232 77.6372 123.633C77.0986 122.922 76.8601 122.028 76.973 121.144C77.0859 120.259 77.5413 119.454 78.2412 118.901C78.9412 118.349 79.83 118.093 80.7166 118.188C81.6033 118.284 82.4171 118.723 82.9833 119.412C83.8702 120.533 84.9042 121.529 86.0575 122.374C87.8499 123.686 89.8838 124.631 92.0423 125.155C93.2122 123.267 93.9982 121.167 94.3551 118.975C94.583 117.563 94.6191 116.126 94.4624 114.705C94.3635 113.807 94.6254 112.906 95.1906 112.201C95.7558 111.496 96.5779 111.044 97.4761 110.945C98.3743 110.846 99.275 111.108 99.9801 111.673C100.685 112.238 101.137 113.061 101.236 113.959C101.457 115.988 101.404 118.037 101.081 120.053C100.427 124.053 98.7647 127.822 96.2507 131.002C95.9319 131.406 95.5256 131.732 95.0625 131.957C94.5994 132.181 94.0914 132.298 93.5768 132.298Z" fill="white" fill-opacity="0.2"/>
<path d="M40.131 26.9325C39.2909 26.9318 38.4807 26.6207 37.856 26.0589C37.2314 25.4972 36.8364 24.7244 36.7469 23.889C36.5344 21.8762 36.5974 19.8438 36.9342 17.8481C37.6243 13.8867 39.2974 10.1617 41.8001 7.01448C42.1626 6.55314 42.6387 6.19372 43.1817 5.97133C43.7247 5.74894 44.316 5.67118 44.8981 5.74565C48.8899 6.22913 52.6964 7.70722 55.9684 10.0443C57.6093 11.2291 59.0807 12.6324 60.342 14.2153C60.6205 14.5654 60.8272 14.967 60.9505 15.397C61.0737 15.8271 61.1111 16.2772 61.0604 16.7217C61.0097 17.1661 60.872 17.5963 60.6551 17.9875C60.4381 18.3788 60.1463 18.7235 59.7961 19.0019C59.446 19.2804 59.0445 19.4871 58.6144 19.6104C58.1844 19.7337 57.7343 19.771 57.2898 19.7203C56.8453 19.6697 56.4152 19.5319 56.0239 19.315C55.6327 19.0981 55.288 18.8062 55.0095 18.4561C54.1328 17.3595 53.1099 16.3881 51.9694 15.5693C50.1783 14.2864 48.1532 13.367 46.0085 12.863C44.8324 14.7296 44.0334 16.8085 43.6565 18.9823C43.4217 20.3652 43.3776 21.7738 43.5253 23.1686C43.6208 24.0665 43.3558 24.9656 42.7886 25.6682C42.2214 26.3708 41.3984 26.8194 40.5006 26.9155C40.3778 26.928 40.2544 26.9337 40.131 26.9325Z" fill="white" fill-opacity="0.2"/>
<path d="M69.0007 109.875C60.9164 109.875 53.0136 107.477 46.2918 102.986C39.5699 98.4946 34.3308 92.1108 31.2371 84.6419C28.1434 77.173 27.3339 68.9544 28.9111 61.0254C30.4883 53.0964 34.3812 45.8132 40.0977 40.0967C45.8142 34.3803 53.0974 30.4873 61.0264 28.9101C68.9553 27.3329 77.1739 28.1424 84.6429 31.2361C92.1118 34.3299 98.4956 39.5689 102.987 46.2908C107.478 53.0126 109.876 60.9154 109.876 68.9997C109.863 79.8366 105.553 90.2259 97.8897 97.8888C90.2269 105.552 79.8375 109.862 69.0007 109.875ZM69.0007 34.9372C62.2638 34.9372 55.6781 36.9349 50.0766 40.6778C44.475 44.4206 40.1092 49.7405 37.531 55.9646C34.9529 62.1887 34.2784 69.0375 35.5927 75.645C36.907 82.2525 40.1511 88.3218 44.9149 93.0855C49.6786 97.8493 55.748 101.093 62.3554 102.408C68.9629 103.722 75.8117 103.047 82.0358 100.469C88.26 97.8913 93.5798 93.5254 97.3226 87.9238C101.065 82.3223 103.063 75.7366 103.063 68.9997C103.053 59.969 99.4608 51.311 93.0751 44.9253C86.6894 38.5396 78.0314 34.9476 69.0007 34.9372Z" fill="white" fill-opacity="0.2"/>
<path d="M62.1882 45.156C62.1882 45.8297 61.9884 46.4882 61.6141 47.0484C61.2399 47.6085 60.7079 48.0451 60.0855 48.3029C59.463 48.5607 58.7782 48.6282 58.1174 48.4968C57.4567 48.3653 56.8497 48.0409 56.3734 47.5645C55.897 47.0882 55.5726 46.4812 55.4411 45.8205C55.3097 45.1597 55.3772 44.4749 55.635 43.8524C55.8928 43.23 56.3294 42.698 56.8895 42.3238C57.4497 41.9495 58.1082 41.7497 58.7819 41.7497C59.6853 41.7497 60.5517 42.1086 61.1905 42.7474C61.8293 43.3862 62.1882 44.2526 62.1882 45.156Z" fill="white" fill-opacity="0.2"/>
<path d="M55.3757 86.031C55.3757 86.7047 55.1759 87.3632 54.8016 87.9234C54.4274 88.4835 53.8954 88.9201 53.273 89.1779C52.6505 89.4357 51.9657 89.5032 51.3049 89.3718C50.6442 89.2403 50.0372 88.9159 49.5609 88.4395C49.0845 87.9632 48.7601 87.3562 48.6286 86.6955C48.4972 86.0347 48.5647 85.3499 48.8225 84.7274C49.0803 84.105 49.5169 83.573 50.077 83.1988C50.6372 82.8245 51.2957 82.6247 51.9694 82.6247C52.8728 82.6247 53.7392 82.9836 54.378 83.6224C55.0168 84.2612 55.3757 85.1276 55.3757 86.031Z" fill="white" fill-opacity="0.2"/>
<path d="M82.6257 45.156C82.6257 45.8297 82.4259 46.4882 82.0516 47.0484C81.6774 47.6085 81.1454 48.0451 80.523 48.3029C79.9005 48.5607 79.2157 48.6282 78.5549 48.4968C77.8942 48.3653 77.2872 48.0409 76.8109 47.5645C76.3345 47.0882 76.0101 46.4812 75.8786 45.8205C75.7472 45.1597 75.8147 44.4749 76.0725 43.8524C76.3303 43.23 76.7669 42.698 77.327 42.3238C77.8872 41.9495 78.5457 41.7497 79.2194 41.7497C80.1228 41.7497 80.9892 42.1086 81.628 42.7474C82.2668 43.3862 82.6257 44.2526 82.6257 45.156Z" fill="white" fill-opacity="0.2"/>
<path d="M89.4382 79.2185C89.4382 79.8922 89.2384 80.5507 88.8641 81.1109C88.4899 81.671 87.9579 82.1076 87.3355 82.3654C86.713 82.6232 86.0282 82.6907 85.3674 82.5593C84.7067 82.4278 84.0997 82.1034 83.6234 81.627C83.147 81.1507 82.8226 80.5437 82.6911 79.883C82.5597 79.2222 82.6272 78.5374 82.885 77.9149C83.1428 77.2925 83.5794 76.7605 84.1395 76.3863C84.6997 76.012 85.3582 75.8122 86.0319 75.8122C86.9353 75.8122 87.8017 76.1711 88.4405 76.8099C89.0793 77.4487 89.4382 78.3151 89.4382 79.2185Z" fill="white" fill-opacity="0.2"/>
<path d="M96.2507 58.781C96.2507 59.4547 96.0509 60.1132 95.6766 60.6734C95.3024 61.2335 94.7704 61.6701 94.148 61.9279C93.5255 62.1857 92.8407 62.2532 92.1799 62.1218C91.5192 61.9903 90.9122 61.6659 90.4359 61.1895C89.9595 60.7132 89.6351 60.1062 89.5036 59.4455C89.3722 58.7847 89.4397 58.0999 89.6975 57.4774C89.9553 56.855 90.3919 56.323 90.952 55.9488C91.5122 55.5745 92.1707 55.3747 92.8444 55.3747C93.7478 55.3747 94.6142 55.7336 95.253 56.3724C95.8918 57.0112 96.2507 57.8776 96.2507 58.781Z" fill="white" fill-opacity="0.2"/>
<path d="M75.8132 92.8435C75.8132 93.5172 75.6134 94.1757 75.2391 94.7359C74.8649 95.296 74.3329 95.7326 73.7105 95.9904C73.088 96.2482 72.4032 96.3157 71.7424 96.1843C71.0817 96.0528 70.4747 95.7284 69.9984 95.252C69.522 94.7757 69.1976 94.1687 69.0661 93.508C68.9347 92.8472 69.0022 92.1624 69.26 91.5399C69.5178 90.9175 69.9544 90.3855 70.5145 90.0113C71.0747 89.637 71.7332 89.4372 72.4069 89.4372C73.3103 89.4372 74.1767 89.7961 74.8155 90.4349C75.4543 91.0737 75.8132 91.9401 75.8132 92.8435Z" fill="white" fill-opacity="0.2"/>
<path d="M48.5632 65.5935C48.5632 66.2672 48.3634 66.9257 47.9891 67.4859C47.6149 68.046 47.0829 68.4826 46.4605 68.7404C45.838 68.9982 45.1532 69.0657 44.4924 68.9343C43.8317 68.8028 43.2247 68.4784 42.7484 68.002C42.272 67.5257 41.9476 66.9187 41.8161 66.258C41.6847 65.5972 41.7522 64.9124 42.01 64.2899C42.2678 63.6675 42.7044 63.1355 43.2645 62.7613C43.8247 62.387 44.4832 62.1872 45.1569 62.1872C46.0603 62.1872 46.9267 62.5461 47.5655 63.1849C48.2043 63.8237 48.5632 64.6901 48.5632 65.5935Z" fill="white" fill-opacity="0.2"/>
<path d="M69.0007 65.5935C69.0007 66.2672 68.8009 66.9257 68.4266 67.4859C68.0524 68.046 67.5204 68.4826 66.898 68.7404C66.2755 68.9982 65.5907 69.0657 64.9299 68.9343C64.2692 68.8028 63.6622 68.4784 63.1859 68.002C62.7095 67.5257 62.3851 66.9187 62.2536 66.258C62.1222 65.5972 62.1897 64.9124 62.4475 64.2899C62.7053 63.6675 63.1419 63.1355 63.702 62.7613C64.2622 62.387 64.9207 62.1872 65.5944 62.1872C66.4978 62.1872 67.3642 62.5461 68.003 63.1849C68.6418 63.8237 69.0007 64.6901 69.0007 65.5935Z" fill="white" fill-opacity="0.2"/>
</svg>
