<svg width="322" height="169" viewBox="0 0 322 169" fill="none" xmlns="http://www.w3.org/2000/svg">
<g filter="url(#filter0_d_708_6539)">
<path d="M182.484 46.2147C190.173 36.5677 198.056 27.6518 207.432 20.585C233.837 0.672695 271.014 0.585768 295.929 23.8112C322.69 48.7672 322.69 89.5874 295.929 114.543C282.789 126.773 265.628 132.755 248.566 132.287C212.621 131.318 194.422 107.739 174.699 82.169C171.164 77.5934 167.724 72.9606 164.189 68.3554C147.059 46.1278 131.229 25.6584 103.006 24.8958C79.5199 24.2497 52.4636 41.6708 53.1125 70.0861C53.3725 81.6119 58.6601 92.2861 67.1268 100.145C85.8781 117.623 114.263 117.388 134.31 102.638C143.069 96.186 150.725 87.2424 158.349 77.5065C159.548 79.089 160.75 80.6438 161.982 82.169C164.48 85.5414 166.947 88.7952 169.51 92.1103C161.626 101.992 153.548 111.112 143.847 118.268C117.475 137.712 80.6539 137.476 56.0644 114.543C43.9969 103.282 36.4063 87.681 36.0174 70.5267C35.1085 31.0241 69.9498 5.15933 103.428 6.06811C139.372 7.03617 157.571 30.6152 177.295 56.1856C180.83 60.7612 184.269 65.4236 187.804 69.9992C204.934 92.2269 220.764 112.696 248.987 113.459C261.833 113.811 274.971 109.383 284.867 100.145C303.552 82.7557 303.552 55.5989 284.867 38.2095C265.855 20.4961 237.147 21.0532 217.131 36.1568C208.631 42.5795 201.137 51.3177 193.677 60.8185C190.011 55.8932 186.279 51.0826 182.517 46.2443" fill="#E74237"/>
<path d="M182.484 46.2147C190.173 36.5677 198.056 27.6518 207.432 20.585C233.837 0.672695 271.014 0.585768 295.929 23.8112C322.69 48.7672 322.69 89.5874 295.929 114.543C282.789 126.773 265.628 132.755 248.566 132.287C212.621 131.318 194.422 107.739 174.699 82.169C171.164 77.5934 167.724 72.9606 164.189 68.3554C147.059 46.1278 131.229 25.6584 103.006 24.8958C79.5199 24.2497 52.4636 41.6708 53.1125 70.0861C53.3725 81.6119 58.6601 92.2861 67.1268 100.145C85.8781 117.623 114.263 117.388 134.31 102.638C143.069 96.186 150.725 87.2424 158.349 77.5065C159.548 79.089 160.75 80.6438 161.982 82.169C164.48 85.5414 166.947 88.7952 169.51 92.1103C161.626 101.992 153.548 111.112 143.847 118.268C117.475 137.712 80.6539 137.476 56.0644 114.543C43.9969 103.282 36.4063 87.681 36.0174 70.5267C35.1085 31.0241 69.9498 5.15933 103.428 6.06811C139.372 7.03617 157.571 30.6152 177.295 56.1856C180.83 60.7612 184.269 65.4236 187.804 69.9992C204.934 92.2269 220.764 112.696 248.987 113.459C261.833 113.811 274.971 109.383 284.867 100.145C303.552 82.7557 303.552 55.5989 284.867 38.2095C265.855 20.4961 237.147 21.0532 217.131 36.1568C208.631 42.5795 201.137 51.3177 193.677 60.8185C190.011 55.8932 186.279 51.0826 182.517 46.2443" fill="#E74237"/>
</g>
<defs>
<filter id="filter0_d_708_6539" x="0" y="0" width="322" height="168.332" filterUnits="userSpaceOnUse" color-interpolation-filters="sRGB">
<feFlood flood-opacity="0" result="BackgroundImageFix"/>
<feColorMatrix in="SourceAlpha" type="matrix" values="0 0 0 0 0 0 0 0 0 0 0 0 0 0 0 0 0 0 127 0" result="hardAlpha"/>
<feOffset dx="-15" dy="15"/>
<feGaussianBlur stdDeviation="10.5"/>
<feComposite in2="hardAlpha" operator="out"/>
<feColorMatrix type="matrix" values="0 0 0 0 1 0 0 0 0 1 0 0 0 0 1 0 0 0 0.67 0"/>
<feBlend mode="normal" in2="BackgroundImageFix" result="effect1_dropShadow_708_6539"/>
<feBlend mode="normal" in="SourceGraphic" in2="effect1_dropShadow_708_6539" result="shape"/>
</filter>
</defs>
</svg>
