<svg width="40" height="40" viewBox="0 0 40 40" fill="none" xmlns="http://www.w3.org/2000/svg">
<path fill-rule="evenodd" clip-rule="evenodd" d="M20.019 -0.000244141C9.12246 -0.000244141 0.289062 8.83315 0.289062 19.7297C0.289062 30.6262 9.12246 39.4596 20.019 39.4596C30.9155 39.4596 39.7489 30.6262 39.7489 19.7297C39.7489 8.83315 30.9155 -0.000244141 20.019 -0.000244141ZM15.6847 9.26694C16.8072 9.21587 17.1658 9.20337 20.0236 9.20337H20.0203C22.879 9.20337 23.2363 9.21587 24.3588 9.26694C25.479 9.31824 26.2441 9.49559 26.9149 9.75581C27.6077 10.0244 28.193 10.3839 28.7783 10.9692C29.3637 11.5541 29.7232 12.1412 29.9928 12.8333C30.2515 13.5023 30.4291 14.267 30.4817 15.3872C30.5321 16.5097 30.5453 16.8683 30.5453 19.7261C30.5453 22.5839 30.5321 22.9417 30.4817 24.0641C30.4291 25.1839 30.2515 25.9488 29.9928 26.6181C29.7232 27.3099 29.3637 27.897 28.7783 28.4819C28.1937 29.0672 27.6074 29.4276 26.9156 29.6964C26.2461 29.9566 25.4805 30.134 24.3603 30.1853C23.2379 30.2364 22.8803 30.2489 20.0223 30.2489C17.1647 30.2489 16.8063 30.2364 15.6839 30.1853C14.5639 30.134 13.799 29.9566 13.1295 29.6964C12.4378 29.4276 11.8507 29.0672 11.2661 28.4819C10.681 27.897 10.3214 27.3099 10.0524 26.6179C9.79244 25.9488 9.61509 25.1841 9.56357 24.0639C9.51272 22.9415 9.5 22.5839 9.5 19.7261C9.5 16.8683 9.51315 16.5094 9.56336 15.387C9.61378 14.2672 9.79135 13.5023 10.0522 12.8331C10.3219 12.1412 10.6814 11.5541 11.2667 10.9692C11.8516 10.3841 12.4387 10.0246 13.1308 9.75581C13.7999 9.49559 14.5645 9.31824 15.6847 9.26694Z" fill="black"/>
<path fill-rule="evenodd" clip-rule="evenodd" d="M19.079 11.1022C19.2623 11.102 19.4594 11.102 19.6722 11.1021L20.0229 11.1022C22.8325 11.1022 23.1655 11.1123 24.275 11.1627C25.301 11.2097 25.8578 11.3811 26.2287 11.5251C26.7198 11.7158 27.0699 11.9438 27.438 12.3121C27.8063 12.6804 28.0343 13.0312 28.2254 13.5223C28.3694 13.8927 28.5411 14.4496 28.5878 15.4755C28.6382 16.5848 28.6492 16.918 28.6492 19.7263C28.6492 22.5345 28.6382 22.8678 28.5878 23.977C28.5409 25.003 28.3694 25.5598 28.2254 25.9303C28.0347 26.4214 27.8063 26.771 27.438 27.1391C27.0697 27.5074 26.72 27.7354 26.2287 27.9261C25.8582 28.0708 25.301 28.2418 24.275 28.2887C23.1657 28.3392 22.8325 28.3501 20.0229 28.3501C17.2131 28.3501 16.8801 28.3392 15.7709 28.2887C14.7449 28.2414 14.1881 28.0699 13.8169 27.9259C13.3259 27.7352 12.9751 27.5072 12.6068 27.1389C12.2385 26.7706 12.0105 26.4207 11.8194 25.9294C11.6753 25.559 11.5037 25.0021 11.457 23.9762C11.4066 22.8669 11.3965 22.5337 11.3965 19.7237C11.3965 16.9136 11.4066 16.5822 11.457 15.4729C11.5039 14.4469 11.6753 13.8901 11.8194 13.5192C12.0101 13.0281 12.2385 12.6774 12.6068 12.3091C12.9751 11.9408 13.3259 11.7128 13.8169 11.5216C14.1879 11.3769 14.7449 11.2059 15.7709 11.1588C16.7416 11.115 17.1178 11.1018 19.079 11.0996V11.1022ZM25.6356 12.8483C24.9385 12.8483 24.3729 13.4132 24.3729 14.1106C24.3729 14.8077 24.9385 15.3733 25.6356 15.3733C26.3327 15.3733 26.8983 14.8077 26.8983 14.1106C26.8983 13.4134 26.3327 12.8478 25.6356 12.8478V12.8483ZM14.6152 19.7334C14.6152 16.7492 17.0347 14.3296 20.0189 14.3295C23.0032 14.3295 25.4221 16.7491 25.4221 19.7334C25.4221 22.7177 23.0034 25.1362 20.0191 25.1362C17.0348 25.1362 14.6152 22.7177 14.6152 19.7334Z" fill="black"/>
<path fill-rule="evenodd" clip-rule="evenodd" d="M20.0193 16.2253C21.9564 16.2253 23.5269 17.7956 23.5269 19.7329C23.5269 21.67 21.9564 23.2405 20.0193 23.2405C18.082 23.2405 16.5117 21.67 16.5117 19.7329C16.5117 17.7956 18.082 16.2253 20.0193 16.2253V16.2253Z" fill="black"/>
</svg>
