<svg width="51" height="51" viewBox="0 0 51 51" fill="none" xmlns="http://www.w3.org/2000/svg">
<path d="M16.9998 25.5C16.9988 25.0035 17.1717 24.5223 17.4885 24.14L28.1135 11.39C28.4742 10.956 28.9925 10.6831 29.5544 10.6313C30.1163 10.5795 30.6758 10.753 31.1098 11.1137C31.5437 11.4744 31.8166 11.9927 31.8684 12.5546C31.9203 13.1165 31.7467 13.676 31.386 14.11L21.866 25.5L31.046 36.89C31.2225 37.1073 31.3544 37.3574 31.4339 37.6259C31.5134 37.8944 31.5391 38.1759 31.5095 38.4544C31.4799 38.7328 31.3955 39.0026 31.2613 39.2484C31.1271 39.4941 30.9456 39.7109 30.7273 39.8862C30.5088 40.0808 30.2525 40.2282 29.9743 40.3192C29.6962 40.4101 29.4024 40.4426 29.1111 40.4147C28.8198 40.3868 28.5375 40.299 28.2817 40.1569C28.026 40.0147 27.8023 39.8213 27.6248 39.5887L17.361 26.8387C17.0943 26.4454 16.9671 25.9741 16.9998 25.5V25.5Z" fill="#E74237" stroke="#E74237"/>
</svg>
