<svg width="530" height="647" viewBox="0 0 530 647" fill="none" xmlns="http://www.w3.org/2000/svg">
<path d="M-144.067 -30.6871C-143.536 -30.5353 -143.229 -29.9819 -143.381 -29.4508L-145.853 -20.797C-146.004 -20.266 -146.558 -19.9585 -147.089 -20.1102C-147.62 -20.2619 -147.928 -20.8154 -147.776 -21.3464L-145.578 -29.0387L-153.271 -31.2362C-153.802 -31.3879 -154.109 -31.9414 -153.957 -32.4724C-153.806 -33.0034 -153.252 -33.3109 -152.721 -33.1592L-144.067 -30.6871ZM3.30778 511.927L2.868 512.825L3.30778 511.927ZM200.5 327L200.132 327.929L200.5 327ZM133 585L133.804 584.405L133 585ZM64.3081 238.746L63.434 239.232L64.3081 238.746ZM-143.856 -28.8514C-145.677 -27.8397 -147.454 -26.8313 -149.187 -25.8263L-150.19 -27.5563C-148.446 -28.5677 -146.659 -29.5821 -144.828 -30.5997L-143.856 -28.8514ZM-159.061 -19.8365C-162.527 -17.6326 -165.782 -15.4454 -168.833 -13.2744L-169.993 -14.904C-166.911 -17.0966 -163.627 -19.3032 -160.134 -21.5242L-159.061 -19.8365ZM-177.922 -6.37229C-181.104 -3.78017 -183.997 -1.21253 -186.611 1.33099L-188.005 -0.10247C-185.345 -2.69078 -182.409 -5.29736 -179.185 -7.92304L-177.922 -6.37229ZM-194.466 9.90995C-197.042 13.1188 -199.18 16.286 -200.906 19.4123L-202.657 18.4455C-200.869 15.2082 -198.666 11.9462 -196.025 8.65765L-194.466 9.90995ZM-205.243 29.913C-206.281 33.7043 -206.732 37.4419 -206.648 41.1312L-208.648 41.1768C-208.736 37.2905 -208.26 33.3597 -207.172 29.3849L-205.243 29.913ZM-204.76 52.3209C-203.662 55.8253 -202.102 59.2999 -200.118 62.7471L-201.851 63.7447C-203.899 60.1872 -205.522 56.5793 -206.669 52.919L-204.76 52.3209ZM-193.577 72.2191C-191.259 75.103 -188.664 77.9654 -185.818 80.8074L-187.231 82.2225C-190.121 79.3361 -192.766 76.4199 -195.136 73.4722L-193.577 72.2191ZM-177.267 88.6692C-174.401 91.1145 -171.363 93.5436 -168.174 95.9573L-169.381 97.5521C-172.598 95.1176 -175.666 92.6642 -178.565 90.1908L-177.267 88.6692ZM-158.688 102.794C-155.555 104.952 -152.311 107.098 -148.97 109.232L-150.047 110.918C-153.405 108.772 -156.668 106.614 -159.823 104.441L-158.688 102.794ZM-139.089 115.35C-135.8 117.326 -132.438 119.293 -129.015 121.25L-130.007 122.987C-133.442 121.023 -136.817 119.049 -140.119 117.064L-139.089 115.35ZM-118.795 126.971C-115.416 128.825 -111.99 130.671 -108.528 132.51L-109.466 134.276C-112.935 132.434 -116.369 130.584 -119.757 128.724L-118.795 126.971ZM-98.1871 137.926C-94.7382 139.711 -91.2636 141.488 -87.7725 143.258L-88.6771 145.042C-92.1723 143.269 -95.6517 141.49 -99.1061 139.703L-98.1871 137.926ZM-77.3338 148.513C-73.8486 150.256 -70.3563 151.993 -66.8655 153.724L-67.7541 155.516C-71.2462 153.784 -74.7406 152.046 -78.2284 150.302L-77.3338 148.513ZM-56.3827 158.914C-52.881 160.646 -49.3898 162.373 -45.9188 164.095L-46.8077 165.887C-50.2775 164.166 -53.7676 162.439 -57.2695 160.707L-56.3827 158.914ZM-35.4242 169.324C-31.9055 171.085 -28.4176 172.843 -24.9705 174.596L-25.8773 176.379C-29.3198 174.628 -32.8039 172.872 -36.3196 171.112L-35.4242 169.324ZM-14.5992 179.929C-11.083 181.759 -7.62259 183.586 -4.22938 185.409L-5.17607 187.171C-8.56046 185.352 -12.0131 183.53 -15.5226 181.703L-14.5992 179.929ZM6.07292 191.058C9.55478 193.01 12.9458 194.96 16.2317 196.907L15.212 198.628C11.9416 196.689 8.5646 194.748 5.09489 192.803L6.07292 191.058ZM26.2031 203.026C29.6009 205.192 32.8505 207.357 35.932 209.522L34.7822 211.159C31.7284 209.013 28.5041 206.865 25.128 204.713L26.2031 203.026ZM45.3255 216.558C48.5602 219.16 51.5248 221.766 54.1829 224.38L52.7809 225.806C50.1778 223.247 47.2643 220.684 44.072 218.116L45.3255 216.558ZM62.0197 233.336C63.2092 234.971 64.2667 236.612 65.1823 238.26L63.434 239.232C62.5619 237.662 61.5493 236.089 60.4024 234.513L62.0197 233.336ZM65.1823 238.26C66.1778 240.052 67.0991 241.838 67.9485 243.619L66.1434 244.48C65.3122 242.737 64.4099 240.988 63.434 239.232L65.1823 238.26ZM72.3125 254.579C73.5473 258.437 74.4585 262.265 75.072 266.064L73.0976 266.383C72.5002 262.683 71.6124 258.952 70.4078 255.189L72.3125 254.579ZM76.0488 277.841C76.0711 281.808 75.7883 285.738 75.2326 289.632L73.2526 289.349C73.7951 285.548 74.0706 281.716 74.0489 277.852L76.0488 277.841ZM72.7818 301.193C71.7295 304.954 70.4443 308.678 68.9569 312.367L67.1021 311.619C68.5643 307.993 69.825 304.338 70.8557 300.654L72.7818 301.193ZM64.0485 323.072C62.2803 326.525 60.3551 329.946 58.2995 333.334L56.5896 332.297C58.6229 328.945 60.5243 325.566 62.2683 322.161L64.0485 323.072ZM51.9102 343.198C49.7093 346.401 47.411 349.575 45.0388 352.721L43.442 351.516C45.7987 348.391 48.0796 345.241 50.2618 342.066L51.9102 343.198ZM37.8105 361.964C35.3579 365 32.8558 368.008 30.3265 370.99L28.8013 369.696C31.3223 366.724 33.814 363.728 36.2547 360.707L37.8105 361.964ZM22.6721 379.862C20.0876 382.815 17.4971 385.742 14.9241 388.641L13.4282 387.313C16.0003 384.415 18.5871 381.493 21.167 378.544L22.6721 379.862ZM7.15751 397.395C4.53764 400.358 1.96159 403.291 -0.546051 406.195L-2.05984 404.888C0.454966 401.975 3.03676 399.036 5.65925 396.07L7.15751 397.395ZM-8.08657 415.123C-10.623 418.209 -13.0467 421.258 -15.3259 424.274L-16.9214 423.068C-14.6224 420.026 -12.1813 416.955 -9.6315 413.853L-8.08657 415.123ZM-22.0539 433.753C-24.2631 437.109 -26.2375 440.416 -27.9314 443.675L-29.706 442.753C-27.9747 439.422 -25.9638 436.055 -23.7245 432.654L-22.0539 433.753ZM-32.4663 454.332C-33.6884 458.125 -34.4278 461.84 -34.6116 465.482L-36.609 465.381C-36.4151 461.538 -35.6364 457.65 -34.37 453.719L-32.4663 454.332ZM-33.2788 476.685C-32.2429 480.104 -30.5967 483.48 -28.2531 486.814L-29.8894 487.964C-32.3467 484.468 -34.0911 480.901 -35.1929 477.265L-33.2788 476.685ZM-20.6605 495.274C-18.0434 497.647 -15.0182 499.998 -11.5519 502.326L-12.6669 503.987C-16.2028 501.612 -19.3061 499.202 -22.004 496.756L-20.6605 495.274ZM-1.63228 508.268C0.0841664 509.193 1.87674 510.113 3.74756 511.029L2.868 512.825C0.975305 511.898 -0.84029 510.966 -2.58062 510.029L-1.63228 508.268ZM3.74756 511.029C5.64147 511.956 7.52508 512.864 9.39836 513.751L8.54246 515.558C6.66118 514.667 4.7697 513.756 2.868 512.825L3.74756 511.029ZM20.5145 518.834C24.2732 520.491 27.9885 522.066 31.6604 523.56L30.9067 525.412C27.2166 523.911 23.4836 522.329 19.7077 520.664L20.5145 518.834ZM43.0893 528.004C46.9447 529.432 50.7497 530.77 54.5045 532.019L53.8731 533.917C50.0966 532.661 46.2704 531.316 42.3944 529.879L43.0893 528.004ZM66.1805 535.668C70.1508 536.827 74.0615 537.885 77.9125 538.844L77.4293 540.785C73.5517 539.819 69.6153 538.755 65.6199 537.588L66.1805 535.668ZM89.7399 541.52C93.8282 542.35 97.8447 543.066 101.789 543.671L101.486 545.648C97.509 545.038 93.4609 544.317 89.3418 543.48L89.7399 541.52ZM113.728 545.19C117.882 545.608 121.951 545.899 125.934 546.067L125.849 548.066C121.827 547.895 117.72 547.602 113.527 547.18L113.728 545.19ZM138.104 546.205C142.224 546.119 146.243 545.897 150.162 545.546L150.34 547.538C146.375 547.893 142.31 548.118 138.146 548.204L138.104 546.205ZM162.183 544.019C166.282 543.339 170.257 542.511 174.11 541.542L174.598 543.482C170.691 544.464 166.662 545.304 162.511 545.992L162.183 544.019ZM185.736 538.077C189.625 536.727 193.372 535.225 196.976 533.582L197.806 535.402C194.144 537.071 190.34 538.596 186.391 539.967L185.736 538.077ZM207.727 528.035C211.27 525.978 214.65 523.774 217.867 521.437L219.042 523.055C215.77 525.432 212.333 527.673 208.731 529.764L207.727 528.035ZM227.271 513.824C230.302 511.094 233.153 508.234 235.823 505.259L237.312 506.595C234.594 509.622 231.693 512.533 228.61 515.31L227.271 513.824ZM243.421 495.835C245.8 492.54 247.987 489.142 249.983 485.658L251.718 486.652C249.688 490.196 247.463 493.654 245.043 497.005L243.421 495.835ZM255.445 474.849C257.083 471.141 258.522 467.362 259.761 463.532L261.664 464.148C260.403 468.043 258.94 471.886 257.274 475.657L255.445 474.849ZM262.899 451.832C263.748 447.872 264.392 443.879 264.832 439.874L266.82 440.092C266.373 444.164 265.717 448.224 264.854 452.252L262.899 451.832ZM265.539 427.781C265.569 423.733 265.39 419.692 265.002 415.682L266.993 415.489C267.387 419.569 267.569 423.678 267.539 427.796L265.539 427.781ZM263.204 403.707C262.392 399.747 261.369 395.837 260.134 391.999L262.038 391.387C263.295 395.295 264.337 399.275 265.163 403.306L263.204 403.707ZM255.789 380.708C254.131 377.037 252.262 373.458 250.183 369.994L251.897 368.964C254.018 372.497 255.923 376.144 257.612 379.885L255.789 380.708ZM243.355 360.019C240.899 356.858 238.239 353.826 235.376 350.945L236.794 349.535C239.716 352.475 242.429 355.568 244.934 358.792L243.355 360.019ZM226.353 342.91C223.232 340.453 219.923 338.151 216.428 336.021L217.468 334.313C221.032 336.485 224.406 338.832 227.59 341.338L226.353 342.91ZM205.762 330.34C203.928 329.493 202.051 328.689 200.132 327.929L200.868 326.07C202.821 326.843 204.732 327.662 206.6 328.524L205.762 330.34ZM200.132 327.929C198.343 327.221 196.462 326.603 194.501 326.076L195.02 324.144C197.05 324.69 199.004 325.332 200.868 326.07L200.132 327.929ZM182.788 324.09C178.963 323.776 174.965 323.739 170.849 323.986L170.73 321.989C174.933 321.737 179.027 321.774 182.952 322.097L182.788 324.09ZM158.937 325.443C155.096 326.146 151.207 327.081 147.312 328.249L146.738 326.333C150.702 325.144 154.663 324.192 158.577 323.475L158.937 325.443ZM136.011 332.305C132.375 333.832 128.769 335.567 125.23 337.513L124.267 335.761C127.868 333.78 131.537 332.015 135.237 330.461L136.011 332.305ZM115.049 343.843C111.803 346.113 108.651 348.578 105.621 351.242L104.3 349.74C107.387 347.026 110.598 344.515 113.903 342.204L115.049 343.843ZM97.1011 359.643C94.4545 362.572 91.9487 365.686 89.6106 368.985L87.9788 367.828C90.3635 364.463 92.9189 361.288 95.6171 358.302L97.1011 359.643ZM83.2769 379.163C81.4122 382.603 79.7182 386.209 78.2173 389.983L76.3589 389.243C77.8891 385.396 79.6166 381.719 81.5186 378.21L83.2769 379.163ZM74.4449 401.329C73.4273 405.089 72.5904 408.992 71.9517 413.039L69.9761 412.727C70.6259 408.61 71.4778 404.636 72.5143 400.807L74.4449 401.329ZM70.6836 424.956C70.4623 428.835 70.4141 432.832 70.5517 436.947L68.5528 437.014C68.4132 432.84 68.462 428.782 68.6868 424.842L70.6836 424.956ZM71.4484 448.912C71.8932 452.774 72.4949 456.732 73.2625 460.785L71.2974 461.157C70.5211 457.058 69.912 453.053 69.4615 449.14L71.4484 448.912ZM75.892 472.535C76.869 476.332 77.9865 480.206 79.2508 484.158L77.3459 484.767C76.0702 480.78 74.942 476.869 73.9551 473.033L75.892 472.535ZM83.2066 495.497C84.5796 499.136 86.0732 502.836 87.692 506.599L85.8549 507.389C84.2244 503.6 82.7194 499.871 81.3354 496.203L83.2066 495.497ZM92.7023 517.601C94.408 521.153 96.2224 524.758 98.1488 528.415L96.3793 529.347C94.4416 525.669 92.6161 522.042 90.8993 518.466L92.7023 517.601ZM103.897 538.892C105.864 542.343 107.928 545.837 110.092 549.375L108.386 550.419C106.211 546.863 104.136 543.351 102.159 539.883L103.897 538.892ZM116.476 559.493C118.633 562.81 120.876 566.164 123.207 569.556L121.558 570.688C119.218 567.283 116.966 563.914 114.799 560.583L116.476 559.493ZM130.148 579.404C131.346 581.062 132.565 582.729 133.804 584.405L132.196 585.594C130.952 583.912 129.729 582.239 128.527 580.575L130.148 579.404ZM133.804 584.405C135.095 586.15 136.381 587.824 137.661 589.429L136.098 590.677C134.802 589.052 133.501 587.359 132.196 585.594L133.804 584.405ZM145.341 598.295C148.298 601.417 151.227 604.176 154.131 606.595L152.851 608.132C149.881 605.658 146.894 602.844 143.889 599.67L145.341 598.295ZM163.862 613.52C167.471 615.653 171.045 617.287 174.588 618.469L173.955 620.366C170.269 619.136 166.567 617.442 162.844 615.241L163.862 613.52ZM186.118 620.794C190.066 621.083 193.996 620.862 197.918 620.196L198.253 622.168C194.184 622.859 190.092 623.09 185.973 622.789L186.118 620.794ZM209.352 617.04C212.959 615.68 216.566 613.992 220.18 612.025L221.136 613.781C217.454 615.785 213.763 617.514 210.057 618.911L209.352 617.04ZM230.416 605.764C233.657 603.578 236.905 601.209 240.164 598.692L241.387 600.275C238.1 602.813 234.817 605.208 231.534 607.422L230.416 605.764ZM249.551 591.096C252.58 588.545 255.62 585.9 258.675 583.189L260.002 584.685C256.938 587.404 253.884 590.061 250.839 592.626L249.551 591.096ZM267.638 575.114C270.597 572.418 273.569 569.69 276.564 566.952L277.913 568.428C274.923 571.163 271.946 573.895 268.984 576.592L267.638 575.114ZM285.531 558.804C288.535 556.101 291.562 553.415 294.612 550.77L295.922 552.281C292.883 554.915 289.867 557.594 286.869 560.291L285.531 558.804ZM303.878 542.953C307.026 540.38 310.202 537.875 313.409 535.465L314.61 537.064C311.428 539.455 308.274 541.943 305.144 544.501L303.878 542.953ZM323.325 528.415C326.737 526.134 330.187 523.985 333.677 521.999L334.667 523.737C331.222 525.697 327.813 527.82 324.437 530.077L323.325 528.415ZM344.524 516.444C348.262 514.749 352.048 513.264 355.888 512.025L356.503 513.928C352.741 515.142 349.025 516.599 345.35 518.265L344.524 516.444ZM367.719 509.051C371.708 508.337 375.753 507.909 379.859 507.804L379.91 509.803C375.91 509.906 371.965 510.323 368.072 511.019L367.719 509.051ZM392.052 508.447C395.991 508.966 399.983 509.794 404.03 510.96L403.477 512.882C399.524 511.744 395.63 510.936 391.79 510.43L392.052 508.447ZM415.598 515.168C419.129 516.719 422.7 518.533 426.315 520.626L425.313 522.357C421.759 520.299 418.253 518.519 414.793 516.999L415.598 515.168ZM436.485 527.183C439.72 529.48 442.989 532.004 446.293 534.764L445.011 536.299C441.744 533.57 438.517 531.079 435.326 528.813L436.485 527.183ZM455.164 542.669C458.028 545.38 460.918 548.269 463.836 551.344L462.385 552.721C459.49 549.67 456.625 546.806 453.789 544.121L455.164 542.669ZM471.891 560.229C474.49 563.223 477.112 566.365 479.756 569.658L478.196 570.91C475.568 567.636 472.963 564.514 470.381 561.54L471.891 560.229ZM487.052 579.062C489.492 582.31 491.95 585.687 494.428 589.197L492.794 590.35C490.327 586.856 487.88 583.494 485.453 580.263L487.052 579.062ZM501.042 598.814C503.262 602.125 505.498 605.542 507.749 609.067L506.063 610.144C503.82 606.63 501.592 603.226 499.381 599.928L501.042 598.814ZM514.199 619.398C516.216 622.698 518.244 626.084 520.286 629.559L518.561 630.572C516.526 627.107 514.503 623.73 512.493 620.441L514.199 619.398ZM526.448 640.25C527.482 642.077 528.518 643.926 529.558 645.797L527.81 646.769C526.773 644.902 525.738 643.057 524.707 641.235L526.448 640.25Z" fill="#FD5956"/>
</svg>
