<svg width="116" height="64" viewBox="0 0 116 64" fill="none" xmlns="http://www.w3.org/2000/svg">
<path d="M0.845703 31.5871H6.54697V18.8192H16.9395V13.88H6.54697V4.9387H18.8861V0H0.845703V31.5871Z" fill="white"/>
<path d="M0.845703 31.5871H6.54697V18.8192H16.9395V13.88H6.54697V4.9387H18.8861V0H0.845703V31.5871Z" fill="white"/>
<path fill-rule="evenodd" clip-rule="evenodd" d="M94.9942 26.648V4.9387H99.6781C105.957 4.9387 110.114 8.72146 110.114 15.7532C110.114 22.8726 106.045 26.6553 99.6781 26.6553L94.9942 26.648ZM89.293 31.5871H99.9926C109.675 31.5871 115.999 25.7114 115.999 15.7458C115.999 5.78013 109.675 0 99.9926 0H89.293V31.5871Z" fill="white"/>
<path fill-rule="evenodd" clip-rule="evenodd" d="M94.9942 26.648V4.9387H99.6781C105.957 4.9387 110.114 8.72146 110.114 15.7532C110.114 22.8726 106.045 26.6553 99.6781 26.6553L94.9942 26.648ZM89.293 31.5871H99.9926C109.675 31.5871 115.999 25.7114 115.999 15.7458C115.999 5.78013 109.675 0 99.9926 0H89.293V31.5871Z" fill="white"/>
<path d="M12.2218 63.3645H8.1748L0 40.8064H4.39105L9.31643 55.5209C9.61663 56.4136 9.89464 57.6351 10.0484 58.3159C10.114 58.6304 10.1653 58.828 10.1727 58.828H10.2387C10.2456 58.828 10.29 58.6304 10.3629 58.3159C10.5167 57.6351 10.7873 56.4136 11.0949 55.5209L16.0568 40.8064H20.4188L12.2218 63.3645Z" fill="white"/>
<path d="M12.2218 63.3645H8.1748L0 40.8064H4.39105L9.31643 55.5209C9.61663 56.4136 9.89464 57.6351 10.0484 58.3159C10.114 58.6304 10.1653 58.828 10.1727 58.828H10.2387C10.2456 58.828 10.29 58.6304 10.3629 58.3159C10.5167 57.6351 10.7873 56.4136 11.0949 55.5209L16.0568 40.8064H20.4188L12.2218 63.3645Z" fill="white"/>
<path d="M42.1847 63.3645H28.25V40.8064H41.68V44.3333H32.3266V50.2451H39.8793V53.772H32.3266V59.8449H42.1847V63.3645Z" fill="white"/>
<path d="M42.1847 63.3645H28.25V40.8064H41.68V44.3333H32.3266V50.2451H39.8793V53.772H32.3266V59.8449H42.1847V63.3645Z" fill="white"/>
<path fill-rule="evenodd" clip-rule="evenodd" d="M55.5453 44.3336V51.387H59.2117C61.393 51.387 62.7466 50.0846 62.7466 47.8309C62.7466 45.6724 61.8317 44.3336 58.6409 44.3336H55.5453ZM55.5453 63.3647H51.4688V40.8066H58.6996C61.1293 40.8066 62.2344 40.9969 63.2153 41.443C65.4547 42.4604 66.8818 44.619 66.8818 47.6116C66.8818 50.3114 65.4621 52.8209 63.0906 53.7723V53.8383C63.0906 53.8383 63.4056 54.1528 63.8517 54.9504L68.4626 63.3721H63.9178L59.4607 54.9504H55.5453V63.3647Z" fill="white"/>
<path fill-rule="evenodd" clip-rule="evenodd" d="M55.5453 44.3336V51.387H59.2117C61.393 51.387 62.7466 50.0846 62.7466 47.8309C62.7466 45.6724 61.8317 44.3336 58.6409 44.3336H55.5453ZM55.5453 63.3647H51.4688V40.8066H58.6996C61.1293 40.8066 62.2344 40.9969 63.2153 41.443C65.4547 42.4604 66.8818 44.619 66.8818 47.6116C66.8818 50.3114 65.4621 52.8209 63.0906 53.7723V53.8383C63.0906 53.8383 63.4056 54.1528 63.8517 54.9504L68.4626 63.3721H63.9178L59.4607 54.9504H55.5453V63.3647Z" fill="white"/>
<path d="M83.3513 63.7452C78.3599 63.7452 75.6152 60.6649 75.6152 60.6649L77.8255 57.5845C77.8255 57.5845 80.2557 59.9698 83.4169 59.9698C85.1224 59.9698 86.6737 59.0771 86.6737 57.2331C86.6737 55.4841 84.6906 54.6284 82.4438 53.6549C79.4941 52.3747 76.0914 50.9038 76.0914 46.9746C76.0914 43.221 79.3112 40.426 83.6072 40.426C88.0278 40.426 90.3041 42.8409 90.3041 42.8409L88.533 46.1771C88.533 46.1771 86.3883 44.2088 83.5707 44.2088C81.6754 44.2088 80.1897 45.3213 80.1897 46.9091C80.1897 48.621 82.1146 49.4186 84.3175 50.333C87.2741 51.5624 90.7429 53.0037 90.7429 57.1379C90.7429 60.7304 88.0278 63.7452 83.3513 63.7452Z" fill="white"/>
<path d="M83.3513 63.7452C78.3599 63.7452 75.6152 60.6649 75.6152 60.6649L77.8255 57.5845C77.8255 57.5845 80.2557 59.9698 83.4169 59.9698C85.1224 59.9698 86.6737 59.0771 86.6737 57.2331C86.6737 55.4841 84.6906 54.6284 82.4438 53.6549C79.4941 52.3747 76.0914 50.9038 76.0914 46.9746C76.0914 43.221 79.3112 40.426 83.6072 40.426C88.0278 40.426 90.3041 42.8409 90.3041 42.8409L88.533 46.1771C88.533 46.1771 86.3883 44.2088 83.5707 44.2088C81.6754 44.2088 80.1897 45.3213 80.1897 46.9091C80.1897 48.621 82.1146 49.4186 84.3175 50.333C87.2741 51.5624 90.7429 53.0037 90.7429 57.1379C90.7429 60.7304 88.0278 63.7452 83.3513 63.7452Z" fill="white"/>
<path d="M113.798 63.3647H99.8633V40.8066H113.285V44.3336H103.94V50.2453H111.493V53.7723H103.94V59.8452H113.798V63.3647Z" fill="white"/>
<path d="M113.798 63.3647H99.8633V40.8066H113.285V44.3336H103.94V50.2453H111.493V53.7723H103.94V59.8452H113.798V63.3647Z" fill="white"/>
<path d="M55.1898 10.0385C56.9244 7.63153 58.7029 5.40693 60.8181 3.64371C66.7752 -1.32457 75.1624 -1.34626 80.7834 4.44866C86.8208 10.6754 86.8208 20.8604 80.7834 27.0871C77.8189 30.1384 73.9474 31.631 70.098 31.5141C61.9888 31.2726 57.8832 25.3894 53.4335 19.0094C52.6359 17.8678 51.86 16.7119 51.0625 15.5628C47.1979 10.0168 43.6266 4.90956 37.2593 4.71929C31.9608 4.5581 25.8568 8.90478 26.0032 15.9946C26.0619 18.8704 27.2548 21.5337 29.1649 23.4946C33.3952 27.8556 39.7989 27.7969 44.3216 24.1167C46.2978 22.5068 48.025 20.2753 49.7448 17.8461C50.0155 18.2409 50.2866 18.6289 50.5646 19.0094C51.128 19.8509 51.6845 20.6627 52.2627 21.4899C50.4842 23.9555 48.6619 26.2309 46.4732 28.0163C40.5235 32.8677 32.2166 32.8091 26.6692 27.0871C23.9467 24.2774 22.2342 20.3847 22.1465 16.1046C21.9414 6.24836 29.8018 -0.205116 37.3545 0.0216333C45.4637 0.26317 49.5694 6.14633 54.0191 12.5264C54.8166 13.668 55.5925 14.8313 56.3901 15.9729C60.2547 21.5189 63.826 26.6262 70.1932 26.8165C73.0911 26.9042 76.0551 25.7996 78.2876 23.4946C82.5032 19.1558 82.5032 12.38 78.2876 8.04116C73.9986 3.62152 67.522 3.76053 63.0062 7.529C61.0887 9.13153 59.3979 11.3118 57.7151 13.6823C56.8879 12.4534 56.046 11.2531 55.1972 10.0459" fill="white"/>
<path d="M55.1898 10.0385C56.9244 7.63153 58.7029 5.40693 60.8181 3.64371C66.7752 -1.32457 75.1624 -1.34626 80.7834 4.44866C86.8208 10.6754 86.8208 20.8604 80.7834 27.0871C77.8189 30.1384 73.9474 31.631 70.098 31.5141C61.9888 31.2726 57.8832 25.3894 53.4335 19.0094C52.6359 17.8678 51.86 16.7119 51.0625 15.5628C47.1979 10.0168 43.6266 4.90956 37.2593 4.71929C31.9608 4.5581 25.8568 8.90478 26.0032 15.9946C26.0619 18.8704 27.2548 21.5337 29.1649 23.4946C33.3952 27.8556 39.7989 27.7969 44.3216 24.1167C46.2978 22.5068 48.025 20.2753 49.7448 17.8461C50.0155 18.2409 50.2866 18.6289 50.5646 19.0094C51.128 19.8509 51.6845 20.6627 52.2627 21.4899C50.4842 23.9555 48.6619 26.2309 46.4732 28.0163C40.5235 32.8677 32.2166 32.8091 26.6692 27.0871C23.9467 24.2774 22.2342 20.3847 22.1465 16.1046C21.9414 6.24836 29.8018 -0.205116 37.3545 0.0216333C45.4637 0.26317 49.5694 6.14633 54.0191 12.5264C54.8166 13.668 55.5925 14.8313 56.3901 15.9729C60.2547 21.5189 63.826 26.6262 70.1932 26.8165C73.0911 26.9042 76.0551 25.7996 78.2876 23.4946C82.5032 19.1558 82.5032 12.38 78.2876 8.04116C73.9986 3.62152 67.522 3.76053 63.0062 7.529C61.0887 9.13153 59.3979 11.3118 57.7151 13.6823C56.8879 12.4534 56.046 11.2531 55.1972 10.0459" fill="white"/>
</svg>
