<svg width="116" height="64" viewBox="0 0 116 64" fill="none" xmlns="http://www.w3.org/2000/svg">
<path d="M0.845703 31.5871H6.54697V18.8192H16.9395V13.88H6.54697V4.9387H18.8861V0H0.845703V31.5871Z" fill="#E74237"/>
<path d="M0.845703 31.5871H6.54697V18.8192H16.9395V13.88H6.54697V4.9387H18.8861V0H0.845703V31.5871Z" fill="#E74237"/>
<path fill-rule="evenodd" clip-rule="evenodd" d="M94.9942 26.648V4.9387H99.6781C105.957 4.9387 110.114 8.72146 110.114 15.7532C110.114 22.8726 106.045 26.6553 99.6781 26.6553L94.9942 26.648ZM89.293 31.5871H99.9926C109.675 31.5871 115.999 25.7114 115.999 15.7458C115.999 5.78013 109.675 0 99.9926 0H89.293V31.5871Z" fill="#E74237"/>
<path fill-rule="evenodd" clip-rule="evenodd" d="M94.9942 26.648V4.9387H99.6781C105.957 4.9387 110.114 8.72146 110.114 15.7532C110.114 22.8726 106.045 26.6553 99.6781 26.6553L94.9942 26.648ZM89.293 31.5871H99.9926C109.675 31.5871 115.999 25.7114 115.999 15.7458C115.999 5.78013 109.675 0 99.9926 0H89.293V31.5871Z" fill="#E74237"/>
<path d="M12.2218 63.3645H8.1748L0 40.8064H4.39105L9.31643 55.5209C9.61663 56.4136 9.89464 57.6351 10.0484 58.3159C10.114 58.6304 10.1653 58.828 10.1727 58.828H10.2387C10.2456 58.828 10.29 58.6304 10.3629 58.3159C10.5167 57.6351 10.7873 56.4136 11.0949 55.5209L16.0568 40.8064H20.4188L12.2218 63.3645Z" fill="#E74237"/>
<path d="M12.2218 63.3645H8.1748L0 40.8064H4.39105L9.31643 55.5209C9.61663 56.4136 9.89464 57.6351 10.0484 58.3159C10.114 58.6304 10.1653 58.828 10.1727 58.828H10.2387C10.2456 58.828 10.29 58.6304 10.3629 58.3159C10.5167 57.6351 10.7873 56.4136 11.0949 55.5209L16.0568 40.8064H20.4188L12.2218 63.3645Z" fill="#E74237"/>
<path d="M42.1845 63.3645H28.2498V40.8064H41.6797V44.3333H32.3263V50.2451H39.879V53.772H32.3263V59.8449H42.1845V63.3645Z" fill="#E74237"/>
<path d="M42.1845 63.3645H28.2498V40.8064H41.6797V44.3333H32.3263V50.2451H39.879V53.772H32.3263V59.8449H42.1845V63.3645Z" fill="#E74237"/>
<path fill-rule="evenodd" clip-rule="evenodd" d="M55.5453 44.3333V51.3867H59.2117C61.393 51.3867 62.7466 50.0844 62.7466 47.8307C62.7466 45.6721 61.8317 44.3333 58.6409 44.3333H55.5453ZM55.5453 63.3645H51.4688V40.8064H58.6996C61.1293 40.8064 62.2344 40.9967 63.2153 41.4428C65.4547 42.4602 66.8818 44.6187 66.8818 47.6113C66.8818 50.3111 65.4621 52.8207 63.0906 53.772V53.8381C63.0906 53.8381 63.4056 54.1526 63.8517 54.9501L68.4626 63.3719H63.9178L59.4607 54.9501H55.5453V63.3645Z" fill="#E74237"/>
<path fill-rule="evenodd" clip-rule="evenodd" d="M55.5453 44.3333V51.3867H59.2117C61.393 51.3867 62.7466 50.0844 62.7466 47.8307C62.7466 45.6721 61.8317 44.3333 58.6409 44.3333H55.5453ZM55.5453 63.3645H51.4688V40.8064H58.6996C61.1293 40.8064 62.2344 40.9967 63.2153 41.4428C65.4547 42.4602 66.8818 44.6187 66.8818 47.6113C66.8818 50.3111 65.4621 52.8207 63.0906 53.772V53.8381C63.0906 53.8381 63.4056 54.1526 63.8517 54.9501L68.4626 63.3719H63.9178L59.4607 54.9501H55.5453V63.3645Z" fill="#E74237"/>
<path d="M83.3513 63.7452C78.3599 63.7452 75.6152 60.6649 75.6152 60.6649L77.8255 57.5845C77.8255 57.5845 80.2557 59.9698 83.4169 59.9698C85.1224 59.9698 86.6737 59.0771 86.6737 57.2331C86.6737 55.4841 84.6906 54.6284 82.4438 53.6549C79.4941 52.3747 76.0914 50.9038 76.0914 46.9746C76.0914 43.221 79.3112 40.426 83.6072 40.426C88.0278 40.426 90.3041 42.8409 90.3041 42.8409L88.533 46.1771C88.533 46.1771 86.3883 44.2088 83.5707 44.2088C81.6754 44.2088 80.1897 45.3213 80.1897 46.9091C80.1897 48.621 82.1146 49.4186 84.3175 50.333C87.2741 51.5624 90.7429 53.0037 90.7429 57.1379C90.7429 60.7304 88.0278 63.7452 83.3513 63.7452Z" fill="#E74237"/>
<path d="M83.3513 63.7452C78.3599 63.7452 75.6152 60.6649 75.6152 60.6649L77.8255 57.5845C77.8255 57.5845 80.2557 59.9698 83.4169 59.9698C85.1224 59.9698 86.6737 59.0771 86.6737 57.2331C86.6737 55.4841 84.6906 54.6284 82.4438 53.6549C79.4941 52.3747 76.0914 50.9038 76.0914 46.9746C76.0914 43.221 79.3112 40.426 83.6072 40.426C88.0278 40.426 90.3041 42.8409 90.3041 42.8409L88.533 46.1771C88.533 46.1771 86.3883 44.2088 83.5707 44.2088C81.6754 44.2088 80.1897 45.3213 80.1897 46.9091C80.1897 48.621 82.1146 49.4186 84.3175 50.333C87.2741 51.5624 90.7429 53.0037 90.7429 57.1379C90.7429 60.7304 88.0278 63.7452 83.3513 63.7452Z" fill="#E74237"/>
<path d="M113.798 63.3645H99.8633V40.8064H113.285V44.3333H103.94V50.2451H111.493V53.772H103.94V59.8449H113.798V63.3645Z" fill="#E74237"/>
<path d="M113.798 63.3645H99.8633V40.8064H113.285V44.3333H103.94V50.2451H111.493V53.772H103.94V59.8449H113.798V63.3645Z" fill="#E74237"/>
<path d="M55.1899 10.0385C56.9245 7.63153 58.703 5.40693 60.8182 3.64371C66.7753 -1.32457 75.1626 -1.34626 80.7835 4.44866C86.8209 10.6754 86.8209 20.8604 80.7835 27.0871C77.819 30.1384 73.9475 31.631 70.0982 31.5141C61.9889 31.2726 57.8833 25.3894 53.4336 19.0094C52.636 17.8678 51.8601 16.7119 51.0626 15.5628C47.198 10.0168 43.6267 4.90956 37.2595 4.71929C31.9609 4.5581 25.8569 8.90478 26.0033 15.9946C26.062 18.8704 27.2549 21.5337 29.165 23.4946C33.3954 27.8556 39.7991 27.7969 44.3217 24.1167C46.2979 22.5068 48.0251 20.2753 49.745 17.8461C50.0156 18.2409 50.2867 18.6289 50.5647 19.0094C51.1281 19.8509 51.6847 20.6627 52.2629 21.4899C50.4844 23.9555 48.662 26.2309 46.4734 28.0163C40.5237 32.8677 32.2168 32.8091 26.6693 27.0871C23.9468 24.2774 22.2344 20.3847 22.1466 16.1046C21.9416 6.24836 29.8019 -0.205116 37.3546 0.0216333C45.4638 0.26317 49.5695 6.14633 54.0192 12.5264C54.8167 13.668 55.5926 14.8313 56.3902 15.9729C60.2548 21.5189 63.8261 26.6262 70.1933 26.8165C73.0913 26.9042 76.0553 25.7996 78.2878 23.4946C82.5033 19.1558 82.5033 12.38 78.2878 8.04116C73.9987 3.62152 67.5221 3.76053 63.0063 7.529C61.0888 9.13153 59.3981 11.3118 57.7152 13.6823C56.8881 12.4534 56.0461 11.2531 55.1973 10.0459" fill="#E74237"/>
<path d="M55.1899 10.0385C56.9245 7.63153 58.703 5.40693 60.8182 3.64371C66.7753 -1.32457 75.1626 -1.34626 80.7835 4.44866C86.8209 10.6754 86.8209 20.8604 80.7835 27.0871C77.819 30.1384 73.9475 31.631 70.0982 31.5141C61.9889 31.2726 57.8833 25.3894 53.4336 19.0094C52.636 17.8678 51.8601 16.7119 51.0626 15.5628C47.198 10.0168 43.6267 4.90956 37.2595 4.71929C31.9609 4.5581 25.8569 8.90478 26.0033 15.9946C26.062 18.8704 27.2549 21.5337 29.165 23.4946C33.3954 27.8556 39.7991 27.7969 44.3217 24.1167C46.2979 22.5068 48.0251 20.2753 49.745 17.8461C50.0156 18.2409 50.2867 18.6289 50.5647 19.0094C51.1281 19.8509 51.6847 20.6627 52.2629 21.4899C50.4844 23.9555 48.662 26.2309 46.4734 28.0163C40.5237 32.8677 32.2168 32.8091 26.6693 27.0871C23.9468 24.2774 22.2344 20.3847 22.1466 16.1046C21.9416 6.24836 29.8019 -0.205116 37.3546 0.0216333C45.4638 0.26317 49.5695 6.14633 54.0192 12.5264C54.8167 13.668 55.5926 14.8313 56.3902 15.9729C60.2548 21.5189 63.8261 26.6262 70.1933 26.8165C73.0913 26.9042 76.0553 25.7996 78.2878 23.4946C82.5033 19.1558 82.5033 12.38 78.2878 8.04116C73.9987 3.62152 67.5221 3.76053 63.0063 7.529C61.0888 9.13153 59.3981 11.3118 57.7152 13.6823C56.8881 12.4534 56.0461 11.2531 55.1973 10.0459" fill="#E74237"/>
</svg>
