<svg width="116" height="58" viewBox="0 0 116 58" fill="none" xmlns="http://www.w3.org/2000/svg">
<path d="M0.845703 28.5788H6.54697V17.0341H16.9395V12.5681H6.54697V4.48347H18.8861V0.0179443H0.845703V28.5788Z" fill="white"/>
<path d="M0.845703 28.5788H6.54697V17.0341H16.9395V12.5681H6.54697V4.48347H18.8861V0.0179443H0.845703V28.5788Z" fill="white"/>
<path fill-rule="evenodd" clip-rule="evenodd" d="M94.9942 24.1128V4.48347H99.6781C105.957 4.48347 110.114 7.90382 110.114 14.2618C110.114 20.6991 106.045 24.1195 99.6781 24.1195L94.9942 24.1128ZM89.293 28.5788H99.9926C109.675 28.5788 115.999 23.266 115.999 14.2551C115.999 5.24429 109.675 0.0179443 99.9926 0.0179443H89.293V28.5788Z" fill="white"/>
<path fill-rule="evenodd" clip-rule="evenodd" d="M94.9942 24.1128V4.48347H99.6781C105.957 4.48347 110.114 7.90382 110.114 14.2618C110.114 20.6991 106.045 24.1195 99.6781 24.1195L94.9942 24.1128ZM89.293 28.5788H99.9926C109.675 28.5788 115.999 23.266 115.999 14.2551C115.999 5.24429 109.675 0.0179443 99.9926 0.0179443H89.293V28.5788Z" fill="white"/>
<path d="M12.2218 57.3118H8.1748L0 36.9149H4.39105L9.31643 50.2197C9.61663 51.0269 9.89464 52.1313 10.0484 52.7468C10.114 53.0312 10.1653 53.2099 10.1727 53.2099H10.2387C10.2456 53.2099 10.29 53.0312 10.3629 52.7468C10.5167 52.1313 10.7873 51.0269 11.0949 50.2197L16.0568 36.9149H20.4188L12.2218 57.3118Z" fill="white"/>
<path d="M12.2218 57.3118H8.1748L0 36.9149H4.39105L9.31643 50.2197C9.61663 51.0269 9.89464 52.1313 10.0484 52.7468C10.114 53.0312 10.1653 53.2099 10.1727 53.2099H10.2387C10.2456 53.2099 10.29 53.0312 10.3629 52.7468C10.5167 52.1313 10.7873 51.0269 11.0949 50.2197L16.0568 36.9149H20.4188L12.2218 57.3118Z" fill="white"/>
<path d="M42.1847 57.3118H28.25V36.9149H41.68V40.1039H32.3266V45.4493H39.8793V48.6383H32.3266V54.1294H42.1847V57.3118Z" fill="white"/>
<path d="M42.1847 57.3118H28.25V36.9149H41.68V40.1039H32.3266V45.4493H39.8793V48.6383H32.3266V54.1294H42.1847V57.3118Z" fill="white"/>
<path fill-rule="evenodd" clip-rule="evenodd" d="M55.5453 40.1039V46.4816H59.2117C61.393 46.4816 62.7466 45.304 62.7466 43.2662C62.7466 41.3145 61.8317 40.1039 58.6409 40.1039H55.5453ZM55.5453 57.3118H51.4688V36.9149H58.6996C61.1293 36.9149 62.2344 37.087 63.2153 37.4903C65.4547 38.4103 66.8818 40.362 66.8818 43.0679C66.8818 45.509 65.4621 47.7781 63.0906 48.6383V48.698C63.0906 48.698 63.4056 48.9824 63.8517 49.7036L68.4626 57.3184H63.9178L59.4607 49.7036H55.5453V57.3118Z" fill="white"/>
<path fill-rule="evenodd" clip-rule="evenodd" d="M55.5453 40.1039V46.4816H59.2117C61.393 46.4816 62.7466 45.304 62.7466 43.2662C62.7466 41.3145 61.8317 40.1039 58.6409 40.1039H55.5453ZM55.5453 57.3118H51.4688V36.9149H58.6996C61.1293 36.9149 62.2344 37.087 63.2153 37.4903C65.4547 38.4103 66.8818 40.362 66.8818 43.0679C66.8818 45.509 65.4621 47.7781 63.0906 48.6383V48.698C63.0906 48.698 63.4056 48.9824 63.8517 49.7036L68.4626 57.3184H63.9178L59.4607 49.7036H55.5453V57.3118Z" fill="white"/>
<path d="M83.3513 57.6556C78.3599 57.6556 75.6152 54.8703 75.6152 54.8703L77.8255 52.0851C77.8255 52.0851 80.2557 54.2419 83.4169 54.2419C85.1224 54.2419 86.6737 53.4347 86.6737 51.7673C86.6737 50.186 84.6906 49.4122 82.4438 48.532C79.4941 47.3745 76.0914 46.0445 76.0914 42.4918C76.0914 39.0977 79.3112 36.5706 83.6072 36.5706C88.0278 36.5706 90.3041 38.7541 90.3041 38.7541L88.533 41.7706C88.533 41.7706 86.3883 39.9909 83.5707 39.9909C81.6754 39.9909 80.1897 40.9969 80.1897 42.4325C80.1897 43.9804 82.1146 44.7016 84.3175 45.5284C87.2741 46.6399 90.7429 47.9432 90.7429 51.6813C90.7429 54.9296 88.0278 57.6556 83.3513 57.6556Z" fill="white"/>
<path d="M83.3513 57.6556C78.3599 57.6556 75.6152 54.8703 75.6152 54.8703L77.8255 52.0851C77.8255 52.0851 80.2557 54.2419 83.4169 54.2419C85.1224 54.2419 86.6737 53.4347 86.6737 51.7673C86.6737 50.186 84.6906 49.4122 82.4438 48.532C79.4941 47.3745 76.0914 46.0445 76.0914 42.4918C76.0914 39.0977 79.3112 36.5706 83.6072 36.5706C88.0278 36.5706 90.3041 38.7541 90.3041 38.7541L88.533 41.7706C88.533 41.7706 86.3883 39.9909 83.5707 39.9909C81.6754 39.9909 80.1897 40.9969 80.1897 42.4325C80.1897 43.9804 82.1146 44.7016 84.3175 45.5284C87.2741 46.6399 90.7429 47.9432 90.7429 51.6813C90.7429 54.9296 88.0278 57.6556 83.3513 57.6556Z" fill="white"/>
<path d="M113.798 57.3118H99.8633V36.9149H113.285V40.1039H103.94V45.4493H111.493V48.6383H103.94V54.1294H113.798V57.3118Z" fill="white"/>
<path d="M113.798 57.3118H99.8633V36.9149H113.285V40.1039H103.94V45.4493H111.493V48.6383H103.94V54.1294H113.798V57.3118Z" fill="white"/>
<path d="M55.1899 9.09477C56.9245 6.91839 58.703 4.90692 60.8182 3.31263C66.7753 -1.17964 75.1626 -1.19925 80.7835 4.04047C86.8209 9.67062 86.8209 18.8798 80.7835 24.51C77.819 27.2689 73.9475 28.6185 70.0982 28.5128C61.9889 28.2944 57.8833 22.9749 53.4336 17.2062C52.636 16.1739 51.8601 15.1287 51.0626 14.0898C47.198 9.07516 43.6267 4.4572 37.2595 4.28516C31.9609 4.13941 25.8569 8.06965 26.0033 14.4802C26.062 17.0805 27.2549 19.4886 29.165 21.2617C33.3954 25.2048 39.7991 25.1518 44.3217 21.8241C46.2979 20.3685 48.0251 18.3507 49.745 16.1543C50.0156 16.5113 50.2867 16.8621 50.5647 17.2062C51.1281 17.967 51.6847 18.7011 52.2629 19.449C50.4844 21.6784 48.662 23.7358 46.4734 25.3501C40.5237 29.7367 32.2168 29.6837 26.6693 24.51C23.9468 21.9694 22.2344 18.4497 22.1466 14.5796C21.9416 5.66774 29.8019 -0.167442 37.3546 0.0375832C45.4638 0.255979 49.5695 5.57548 54.0192 11.3443C54.8167 12.3765 55.5926 13.4284 56.3902 14.4606C60.2548 19.4753 63.8261 24.0932 70.1933 24.2653C73.0913 24.3446 76.0553 23.3458 78.2878 21.2617C82.5033 17.3385 82.5033 11.2119 78.2878 7.28877C73.9987 3.29257 67.5221 3.41826 63.0063 6.82568C61.0888 8.27467 59.3981 10.246 57.7152 12.3894C56.8881 11.2783 56.0461 10.193 55.1973 9.10146" fill="white"/>
<path d="M55.1899 9.09477C56.9245 6.91839 58.703 4.90692 60.8182 3.31263C66.7753 -1.17964 75.1626 -1.19925 80.7835 4.04047C86.8209 9.67062 86.8209 18.8798 80.7835 24.51C77.819 27.2689 73.9475 28.6185 70.0982 28.5128C61.9889 28.2944 57.8833 22.9749 53.4336 17.2062C52.636 16.1739 51.8601 15.1287 51.0626 14.0898C47.198 9.07516 43.6267 4.4572 37.2595 4.28516C31.9609 4.13941 25.8569 8.06965 26.0033 14.4802C26.062 17.0805 27.2549 19.4886 29.165 21.2617C33.3954 25.2048 39.7991 25.1518 44.3217 21.8241C46.2979 20.3685 48.0251 18.3507 49.745 16.1543C50.0156 16.5113 50.2867 16.8621 50.5647 17.2062C51.1281 17.967 51.6847 18.7011 52.2629 19.449C50.4844 21.6784 48.662 23.7358 46.4734 25.3501C40.5237 29.7367 32.2168 29.6837 26.6693 24.51C23.9468 21.9694 22.2344 18.4497 22.1466 14.5796C21.9416 5.66774 29.8019 -0.167442 37.3546 0.0375832C45.4638 0.255979 49.5695 5.57548 54.0192 11.3443C54.8167 12.3765 55.5926 13.4284 56.3902 14.4606C60.2548 19.4753 63.8261 24.0932 70.1933 24.2653C73.0913 24.3446 76.0553 23.3458 78.2878 21.2617C82.5033 17.3385 82.5033 11.2119 78.2878 7.28877C73.9987 3.29257 67.5221 3.41826 63.0063 6.82568C61.0888 8.27467 59.3981 10.246 57.7152 12.3894C56.8881 11.2783 56.0461 10.193 55.1973 9.10146" fill="white"/>
</svg>
