<svg width="215" height="118" viewBox="0 0 215 118" fill="none" xmlns="http://www.w3.org/2000/svg">
<path d="M1.57776 58.4721H12.1316V34.8369H31.3695V25.6938H12.1316V9.1422H34.9729V0H1.57776V58.4721Z" fill="#E74237"/>
<path d="M1.57776 58.4721H12.1316V34.8369H31.3695V25.6938H12.1316V9.1422H34.9729V0H1.57776V58.4721Z" fill="#E74237"/>
<path fill-rule="evenodd" clip-rule="evenodd" d="M175.844 49.329V9.1422H184.515C196.138 9.1422 203.834 16.1446 203.834 29.1612C203.834 42.3403 196.301 49.3427 184.515 49.3427L175.844 49.329ZM165.29 58.4721H185.097C203.021 58.4721 214.726 47.5953 214.726 29.1476C214.726 10.6998 203.021 0 185.097 0H165.29V58.4721Z" fill="#E74237"/>
<path fill-rule="evenodd" clip-rule="evenodd" d="M175.844 49.329V9.1422H184.515C196.138 9.1422 203.834 16.1446 203.834 29.1612C203.834 42.3403 196.301 49.3427 184.515 49.3427L175.844 49.329ZM165.29 58.4721H185.097C203.021 58.4721 214.726 47.5953 214.726 29.1476C214.726 10.6998 203.021 0 185.097 0H165.29V58.4721Z" fill="#E74237"/>
<path d="M22.6237 117.295H15.1322L-0.000488281 75.5369H8.12794L17.2455 102.776C17.8012 104.428 18.3159 106.689 18.6006 107.949C18.7219 108.531 18.8168 108.897 18.8305 108.897H18.9528C18.9655 108.897 19.0477 108.531 19.1827 107.949C19.4674 106.689 19.9684 104.428 20.5378 102.776L29.7229 75.5369H37.7974L22.6237 117.295Z" fill="#E74237"/>
<path d="M22.6237 117.295H15.1322L-0.000488281 75.5369H8.12794L17.2455 102.776C17.8012 104.428 18.3159 106.689 18.6006 107.949C18.7219 108.531 18.8168 108.897 18.8305 108.897H18.9528C18.9655 108.897 19.0477 108.531 19.1827 107.949C19.4674 106.689 19.9684 104.428 20.5378 102.776L29.7229 75.5369H37.7974L22.6237 117.295Z" fill="#E74237"/>
<path d="M78.0957 117.295H52.3007V75.5369H77.1614V82.0657H59.8469V93.0092H73.828V99.538H59.8469V110.78H78.0957V117.295Z" fill="#E74237"/>
<path d="M78.0957 117.295H52.3007V75.5369H77.1614V82.0657H59.8469V93.0092H73.828V99.538H59.8469V110.78H78.0957V117.295Z" fill="#E74237"/>
<path fill-rule="evenodd" clip-rule="evenodd" d="M102.832 82.0646V95.1214H109.619C113.657 95.1214 116.162 92.7106 116.162 88.5387C116.162 84.5429 114.469 82.0646 108.562 82.0646H102.832ZM102.832 117.294H95.2855V75.5358H108.671C113.168 75.5358 115.214 75.888 117.03 76.7138C121.176 78.5972 123.817 82.5929 123.817 88.1326C123.817 93.1303 121.189 97.7758 116.799 99.5369V99.6592C116.799 99.6592 117.382 100.241 118.208 101.718L126.744 117.308H118.33L110.08 101.718H102.832V117.294Z" fill="#E74237"/>
<path fill-rule="evenodd" clip-rule="evenodd" d="M102.832 82.0646V95.1214H109.619C113.657 95.1214 116.162 92.7106 116.162 88.5387C116.162 84.5429 114.469 82.0646 108.562 82.0646H102.832ZM102.832 117.294H95.2855V75.5358H108.671C113.168 75.5358 115.214 75.888 117.03 76.7138C121.176 78.5972 123.817 82.5929 123.817 88.1326C123.817 93.1303 121.189 97.7758 116.799 99.5369V99.6592C116.799 99.6592 117.382 100.241 118.208 101.718L126.744 117.308H118.33L110.08 101.718H102.832V117.294Z" fill="#E74237"/>
<path d="M154.301 118C145.061 118 139.981 112.298 139.981 112.298L144.072 106.596C144.072 106.596 148.571 111.011 154.423 111.011C157.58 111.011 160.451 109.359 160.451 105.945C160.451 102.708 156.781 101.124 152.621 99.3215C147.161 96.9518 140.862 94.2289 140.862 86.9555C140.862 80.0069 146.823 74.8331 154.775 74.8331C162.958 74.8331 167.172 79.3034 167.172 79.3034L163.893 85.4791C163.893 85.4791 159.923 81.8356 154.707 81.8356C151.199 81.8356 148.449 83.895 148.449 86.8342C148.449 90.0032 152.012 91.4796 156.09 93.1723C161.563 95.448 167.984 98.1161 167.984 105.769C167.984 112.419 162.958 118 154.301 118Z" fill="#E74237"/>
<path d="M154.301 118C145.061 118 139.981 112.298 139.981 112.298L144.072 106.596C144.072 106.596 148.571 111.011 154.423 111.011C157.58 111.011 160.451 109.359 160.451 105.945C160.451 102.708 156.781 101.124 152.621 99.3215C147.161 96.9518 140.862 94.2289 140.862 86.9555C140.862 80.0069 146.823 74.8331 154.775 74.8331C162.958 74.8331 167.172 79.3034 167.172 79.3034L163.893 85.4791C163.893 85.4791 159.923 81.8356 154.707 81.8356C151.199 81.8356 148.449 83.895 148.449 86.8342C148.449 90.0032 152.012 91.4796 156.09 93.1723C161.563 95.448 167.984 98.1161 167.984 105.769C167.984 112.419 162.958 118 154.301 118Z" fill="#E74237"/>
<path d="M210.646 117.294H184.851V75.5359H209.697V82.0647H192.398V93.0082H206.379V99.537H192.398V110.779H210.646V117.294Z" fill="#E74237"/>
<path d="M210.646 117.294H184.851V75.5359H209.697V82.0647H192.398V93.0082H206.379V99.537H192.398V110.779H210.646V117.294Z" fill="#E74237"/>
<path d="M102.153 18.5835C105.364 14.1278 108.656 10.0098 112.572 6.74581C123.599 -2.45114 139.125 -2.49129 149.53 8.2359C160.706 19.7624 160.706 38.6162 149.53 50.1428C144.042 55.7911 136.876 58.5541 129.75 58.3378C114.739 57.8907 107.139 47.0002 98.9016 35.1898C97.4252 33.0765 95.989 30.9368 94.5126 28.8097C87.3587 18.5434 80.7477 9.08908 68.9611 8.73686C59.1528 8.43847 47.8535 16.4848 48.1245 29.6091C48.2331 34.9325 50.4413 39.8627 53.9772 43.4926C61.8081 51.5653 73.6622 51.4568 82.0343 44.6441C85.6925 41.6639 88.8898 37.5331 92.0735 33.0364C92.5744 33.7673 93.0763 34.4854 93.591 35.1898C94.6339 36.7475 95.6641 38.2503 96.7345 39.7815C93.4422 44.3457 90.0688 48.5578 86.0173 51.8628C75.0036 60.8435 59.6264 60.7349 49.3572 50.1428C44.3176 44.9416 41.1476 37.7357 40.9852 29.8126C40.6056 11.5674 55.1561 -0.378885 69.1372 0.0408588C84.1485 0.487977 91.7486 11.3785 99.9857 23.1888C101.462 25.3021 102.898 27.4556 104.375 29.5689C111.529 39.8353 118.14 49.2896 129.926 49.6418C135.291 49.8042 140.777 47.7594 144.91 43.4926C152.714 35.4609 152.714 22.9178 144.91 14.8861C136.971 6.70475 124.981 6.96207 116.622 13.938C113.073 16.9045 109.943 20.9405 106.827 25.3286C105.296 23.0538 103.738 20.8319 102.167 18.5972" fill="#E74237"/>
<path d="M102.153 18.5835C105.364 14.1278 108.656 10.0098 112.572 6.74581C123.599 -2.45114 139.125 -2.49129 149.53 8.2359C160.706 19.7624 160.706 38.6162 149.53 50.1428C144.042 55.7911 136.876 58.5541 129.75 58.3378C114.739 57.8907 107.139 47.0002 98.9016 35.1898C97.4252 33.0765 95.989 30.9368 94.5126 28.8097C87.3587 18.5434 80.7477 9.08908 68.9611 8.73686C59.1528 8.43847 47.8535 16.4848 48.1245 29.6091C48.2331 34.9325 50.4413 39.8627 53.9772 43.4926C61.8081 51.5653 73.6622 51.4568 82.0343 44.6441C85.6925 41.6639 88.8898 37.5331 92.0735 33.0364C92.5744 33.7673 93.0763 34.4854 93.591 35.1898C94.6339 36.7475 95.6641 38.2503 96.7345 39.7815C93.4422 44.3457 90.0688 48.5578 86.0173 51.8628C75.0036 60.8435 59.6264 60.7349 49.3572 50.1428C44.3176 44.9416 41.1476 37.7357 40.9852 29.8126C40.6056 11.5674 55.1561 -0.378885 69.1372 0.0408588C84.1485 0.487977 91.7486 11.3785 99.9857 23.1888C101.462 25.3021 102.898 27.4556 104.375 29.5689C111.529 39.8353 118.14 49.2896 129.926 49.6418C135.291 49.8042 140.777 47.7594 144.91 43.4926C152.714 35.4609 152.714 22.9178 144.91 14.8861C136.971 6.70475 124.981 6.96207 116.622 13.938C113.073 16.9045 109.943 20.9405 106.827 25.3286C105.296 23.0538 103.738 20.8319 102.167 18.5972" fill="#E74237"/>
</svg>
