<svg width="51" height="51" viewBox="0 0 51 51" fill="none" xmlns="http://www.w3.org/2000/svg">
<path d="M34.0002 25.5C34.0012 25.9965 33.8283 26.4777 33.5115 26.86L22.8865 39.61C22.5258 40.044 22.0075 40.3169 21.4456 40.3687C20.8837 40.4205 20.3242 40.247 19.8902 39.8863C19.4563 39.5256 19.1834 39.0073 19.1316 38.4454C19.0797 37.8835 19.2533 37.324 19.614 36.89L29.134 25.5L19.954 14.11C19.7775 13.8927 19.6456 13.6426 19.5661 13.3741C19.4866 13.1056 19.4609 12.8241 19.4905 12.5456C19.5201 12.2672 19.6045 11.9974 19.7387 11.7516C19.8729 11.5059 20.0544 11.2891 20.2727 11.1138C20.4912 10.9192 20.7475 10.7718 21.0257 10.6808C21.3038 10.5899 21.5976 10.5574 21.8889 10.5853C22.1802 10.6132 22.4625 10.701 22.7183 10.8431C22.974 10.9853 23.1977 11.1787 23.3752 11.4113L33.639 24.1613C33.9057 24.5546 34.0329 25.0259 34.0002 25.5V25.5Z" fill="#E74237" stroke="#E74237"/>
</svg>
