<svg width="41" height="40" viewBox="0 0 41 40" fill="none" xmlns="http://www.w3.org/2000/svg">
<path fill-rule="evenodd" clip-rule="evenodd" d="M20.3061 -0.000244141C9.40957 -0.000244141 0.576172 8.83315 0.576172 19.7297C0.576172 30.6262 9.40957 39.4596 20.3061 39.4596C31.2027 39.4596 40.036 30.6262 40.036 19.7297C40.036 8.83315 31.2027 -0.000244141 20.3061 -0.000244141ZM19.7569 16.7186L19.7155 16.0359C19.5913 14.2665 20.6815 12.6503 22.4066 12.0233C23.0414 11.8004 24.1179 11.7725 24.8217 11.9676C25.0977 12.0512 25.6222 12.3298 25.9948 12.5806L26.671 13.0404L27.4162 12.8036C27.8303 12.6782 28.3823 12.4692 28.6307 12.3298C28.8653 12.2045 29.0723 12.1348 29.0723 12.1766C29.0723 12.4134 28.5617 13.2215 28.1339 13.6674C27.5543 14.2944 27.7199 14.3501 28.8929 13.9321C29.5968 13.6952 29.6106 13.6952 29.4726 13.96C29.3897 14.0993 28.9619 14.5869 28.5065 15.0328C27.7337 15.7991 27.6923 15.8827 27.6923 16.5236C27.6923 17.5128 27.223 19.5748 26.7538 20.7034C25.8844 22.8211 24.0213 25.0086 22.1582 26.1092C19.5361 27.6558 16.0445 28.0459 13.1049 27.1403C12.1251 26.8337 10.4414 26.0535 10.4414 25.9142C10.4414 25.8724 10.952 25.8167 11.5731 25.8027C12.8703 25.7749 14.1676 25.4126 15.2716 24.7717L16.0169 24.3259L15.1612 24.0333C13.9468 23.6153 12.8565 22.6539 12.5805 21.7483C12.4977 21.4557 12.5253 21.4418 13.2981 21.4418L14.0986 21.4279L13.4224 21.1074C12.6219 20.7034 11.8905 20.0207 11.5317 19.324C11.2694 18.8225 10.9382 17.5546 11.0348 17.4571C11.0624 17.4153 11.3523 17.4989 11.6835 17.6103C12.6357 17.9586 12.7599 17.875 12.2079 17.2899C11.1728 16.231 10.8554 14.6566 11.3523 13.1658L11.5869 12.497L12.4977 13.4027C14.3608 15.2278 16.5551 16.3146 19.0668 16.635L19.7569 16.7186Z" fill="black"/>
</svg>
