<svg width="41" height="40" viewBox="0 0 41 40" fill="none" xmlns="http://www.w3.org/2000/svg">
<path fill-rule="evenodd" clip-rule="evenodd" d="M20.5932 -0.000244141C9.69667 -0.000244141 0.863281 8.83315 0.863281 19.7297C0.863281 30.6262 9.69667 39.4596 20.5932 39.4596C31.4898 39.4596 40.3232 30.6262 40.3232 19.7297C40.3232 8.83315 31.4898 -0.000244141 20.5932 -0.000244141ZM28.819 12.944C29.7245 13.1925 30.4377 13.9247 30.6797 14.8545C31.1195 16.5396 31.1195 20.0556 31.1195 20.0556C31.1195 20.0556 31.1195 23.5715 30.6797 25.2567C30.4377 26.1865 29.7245 26.9186 28.819 27.1672C27.1779 27.6187 20.5969 27.6187 20.5969 27.6187C20.5969 27.6187 14.0158 27.6187 12.3746 27.1672C11.4691 26.9186 10.7559 26.1865 10.5139 25.2567C10.0742 23.5715 10.0742 20.0556 10.0742 20.0556C10.0742 20.0556 10.0742 16.5396 10.5139 14.8545C10.7559 13.9247 11.4691 13.1925 12.3746 12.944C14.0158 12.4924 20.5969 12.4924 20.5969 12.4924C20.5969 12.4924 27.1779 12.4924 28.819 12.944Z" fill="black"/>
<path fill-rule="evenodd" clip-rule="evenodd" d="M18.6172 23.677V17.1003L23.8785 20.3888L18.6172 23.677Z" fill="black"/>
</svg>
